G04 #@! TF.GenerationSoftware,KiCad,Pcbnew,8.0.3*
G04 #@! TF.CreationDate,2025-08-12T15:57:26+07:00*
G04 #@! TF.ProjectId,si-hardware-downled,73692d68-6172-4647-9761-72652d646f77,rev?*
G04 #@! TF.SameCoordinates,Original*
G04 #@! TF.FileFunction,Legend,Top*
G04 #@! TF.FilePolarity,Positive*
%FSLAX46Y46*%
G04 Gerber Fmt 4.6, Leading zero omitted, Abs format (unit mm)*
G04 Created by KiCad (PCBNEW 8.0.3) date 2025-08-12 15:57:26*
%MOMM*%
%LPD*%
G01*
G04 APERTURE LIST*
G04 Aperture macros list*
%AMRoundRect*
0 Rectangle with rounded corners*
0 $1 Rounding radius*
0 $2 $3 $4 $5 $6 $7 $8 $9 X,Y pos of 4 corners*
0 Add a 4 corners polygon primitive as box body*
4,1,4,$2,$3,$4,$5,$6,$7,$8,$9,$2,$3,0*
0 Add four circle primitives for the rounded corners*
1,1,$1+$1,$2,$3*
1,1,$1+$1,$4,$5*
1,1,$1+$1,$6,$7*
1,1,$1+$1,$8,$9*
0 Add four rect primitives between the rounded corners*
20,1,$1+$1,$2,$3,$4,$5,0*
20,1,$1+$1,$4,$5,$6,$7,0*
20,1,$1+$1,$6,$7,$8,$9,0*
20,1,$1+$1,$8,$9,$2,$3,0*%
G04 Aperture macros list end*
%ADD10C,0.300000*%
%ADD11C,0.150000*%
%ADD12C,0.200000*%
%ADD13C,0.120000*%
%ADD14C,0.010000*%
%ADD15C,1.600000*%
%ADD16R,2.000000X2.000000*%
%ADD17C,2.000000*%
%ADD18C,3.200000*%
%ADD19RoundRect,0.250000X0.312500X0.625000X-0.312500X0.625000X-0.312500X-0.625000X0.312500X-0.625000X0*%
%ADD20RoundRect,0.250000X1.000000X0.650000X-1.000000X0.650000X-1.000000X-0.650000X1.000000X-0.650000X0*%
%ADD21RoundRect,0.250000X-1.000000X-0.650000X1.000000X-0.650000X1.000000X0.650000X-1.000000X0.650000X0*%
%ADD22RoundRect,0.250000X-0.262500X-0.450000X0.262500X-0.450000X0.262500X0.450000X-0.262500X0.450000X0*%
%ADD23RoundRect,0.250000X-1.450000X0.312500X-1.450000X-0.312500X1.450000X-0.312500X1.450000X0.312500X0*%
%ADD24RoundRect,0.150000X-0.825000X-0.150000X0.825000X-0.150000X0.825000X0.150000X-0.825000X0.150000X0*%
%ADD25R,1.792199X0.862800*%
%ADD26RoundRect,0.250001X-1.149999X1.149999X-1.149999X-1.149999X1.149999X-1.149999X1.149999X1.149999X0*%
%ADD27C,2.800000*%
G04 APERTURE END LIST*
D10*
G36*
X189673036Y-66056084D02*
G01*
X189748327Y-66066138D01*
X189822056Y-66097776D01*
X189880817Y-66145246D01*
X189886260Y-66150973D01*
X189932049Y-66212997D01*
X189960879Y-66282749D01*
X189972750Y-66360230D01*
X189973089Y-66376653D01*
X189967396Y-66459579D01*
X189950317Y-66535524D01*
X189921852Y-66604487D01*
X189882002Y-66666470D01*
X189830765Y-66721472D01*
X189811156Y-66738255D01*
X189746026Y-66782704D01*
X189672086Y-66817956D01*
X189589337Y-66844012D01*
X189513649Y-66858701D01*
X189431843Y-66867003D01*
X189361993Y-66869047D01*
X189285452Y-66867558D01*
X189195523Y-66861512D01*
X189111980Y-66850814D01*
X189034823Y-66835466D01*
X188964053Y-66815466D01*
X188887559Y-66785327D01*
X188864104Y-66773792D01*
X188864104Y-66388377D01*
X188907335Y-66388377D01*
X188976808Y-66421065D01*
X189048971Y-66446516D01*
X189089418Y-66458352D01*
X189162041Y-66475665D01*
X189237040Y-66486860D01*
X189277363Y-66488761D01*
X189354657Y-66485254D01*
X189427197Y-66471791D01*
X189470803Y-66452857D01*
X189520549Y-66395355D01*
X189528689Y-66349176D01*
X189495350Y-66289092D01*
X189423962Y-66265145D01*
X189407422Y-66264546D01*
X189159027Y-66264546D01*
X189159027Y-65884260D01*
X189296048Y-65884260D01*
X189369507Y-65880473D01*
X189443810Y-65863643D01*
X189501859Y-65818518D01*
X189512203Y-65776549D01*
X189477032Y-65716098D01*
X189404686Y-65698976D01*
X189345507Y-65696681D01*
X189267284Y-65700611D01*
X189188854Y-65711216D01*
X189140343Y-65720495D01*
X189066150Y-65737870D01*
X188993507Y-65759689D01*
X188944704Y-65778014D01*
X188901473Y-65778014D01*
X188901473Y-65392965D01*
X188971845Y-65366817D01*
X189043858Y-65345751D01*
X189115217Y-65328995D01*
X189131916Y-65325554D01*
X189205902Y-65312272D01*
X189283283Y-65302612D01*
X189362533Y-65298184D01*
X189376281Y-65298077D01*
X189450706Y-65300321D01*
X189530396Y-65308381D01*
X189604361Y-65322303D01*
X189680730Y-65344971D01*
X189748260Y-65374331D01*
X189811057Y-65414431D01*
X189865258Y-65467632D01*
X189873438Y-65478328D01*
X189912061Y-65547708D01*
X189931805Y-65619272D01*
X189936819Y-65683492D01*
X189931110Y-65756963D01*
X189911375Y-65831595D01*
X189877543Y-65898857D01*
X189864645Y-65917599D01*
X189814921Y-65971759D01*
X189749563Y-66015219D01*
X189680455Y-66040078D01*
X189673036Y-66041796D01*
X189673036Y-66056084D01*
G37*
G36*
X190940657Y-66056084D02*
G01*
X191015948Y-66066138D01*
X191089676Y-66097776D01*
X191148438Y-66145246D01*
X191153881Y-66150973D01*
X191199669Y-66212997D01*
X191228499Y-66282749D01*
X191240370Y-66360230D01*
X191240709Y-66376653D01*
X191235016Y-66459579D01*
X191217937Y-66535524D01*
X191189473Y-66604487D01*
X191149622Y-66666470D01*
X191098385Y-66721472D01*
X191078776Y-66738255D01*
X191013646Y-66782704D01*
X190939707Y-66817956D01*
X190856957Y-66844012D01*
X190781269Y-66858701D01*
X190699463Y-66867003D01*
X190629614Y-66869047D01*
X190553072Y-66867558D01*
X190463143Y-66861512D01*
X190379600Y-66850814D01*
X190302444Y-66835466D01*
X190231673Y-66815466D01*
X190155179Y-66785327D01*
X190131725Y-66773792D01*
X190131725Y-66388377D01*
X190174956Y-66388377D01*
X190244429Y-66421065D01*
X190316591Y-66446516D01*
X190357039Y-66458352D01*
X190429661Y-66475665D01*
X190504660Y-66486860D01*
X190544983Y-66488761D01*
X190622278Y-66485254D01*
X190694818Y-66471791D01*
X190738424Y-66452857D01*
X190788169Y-66395355D01*
X190796309Y-66349176D01*
X190762970Y-66289092D01*
X190691583Y-66265145D01*
X190675043Y-66264546D01*
X190426648Y-66264546D01*
X190426648Y-65884260D01*
X190563668Y-65884260D01*
X190637127Y-65880473D01*
X190711430Y-65863643D01*
X190769480Y-65818518D01*
X190779823Y-65776549D01*
X190744652Y-65716098D01*
X190672306Y-65698976D01*
X190613127Y-65696681D01*
X190534905Y-65700611D01*
X190456474Y-65711216D01*
X190407963Y-65720495D01*
X190333770Y-65737870D01*
X190261127Y-65759689D01*
X190212325Y-65778014D01*
X190169094Y-65778014D01*
X190169094Y-65392965D01*
X190239465Y-65366817D01*
X190311479Y-65345751D01*
X190382837Y-65328995D01*
X190399537Y-65325554D01*
X190473523Y-65312272D01*
X190550903Y-65302612D01*
X190630153Y-65298184D01*
X190643902Y-65298077D01*
X190718326Y-65300321D01*
X190798016Y-65308381D01*
X190871982Y-65322303D01*
X190948351Y-65344971D01*
X191015880Y-65374331D01*
X191078677Y-65414431D01*
X191132878Y-65467632D01*
X191141058Y-65478328D01*
X191179681Y-65547708D01*
X191199426Y-65619272D01*
X191204439Y-65683492D01*
X191198730Y-65756963D01*
X191178995Y-65831595D01*
X191145164Y-65898857D01*
X191132265Y-65917599D01*
X191082541Y-65971759D01*
X191017184Y-66015219D01*
X190948075Y-66040078D01*
X190940657Y-66041796D01*
X190940657Y-66056084D01*
G37*
G36*
X192051493Y-65302692D02*
G01*
X192133570Y-65316538D01*
X192208314Y-65339615D01*
X192275723Y-65371922D01*
X192346932Y-65422875D01*
X192398205Y-65475490D01*
X192407579Y-65487121D01*
X192450219Y-65551501D01*
X192485632Y-65626489D01*
X192513818Y-65712086D01*
X192531163Y-65788201D01*
X192543883Y-65871105D01*
X192551977Y-65960799D01*
X192555446Y-66057281D01*
X192555591Y-66082463D01*
X192553272Y-66177713D01*
X192546317Y-66266818D01*
X192534725Y-66349778D01*
X192518496Y-66426593D01*
X192497631Y-66497263D01*
X192457638Y-66591745D01*
X192407213Y-66672401D01*
X192346355Y-66739230D01*
X192275064Y-66792232D01*
X192193341Y-66831408D01*
X192101184Y-66856756D01*
X191998595Y-66868279D01*
X191962080Y-66869047D01*
X191872343Y-66864449D01*
X191789975Y-66850657D01*
X191714978Y-66827670D01*
X191647351Y-66795488D01*
X191575927Y-66744732D01*
X191524514Y-66692321D01*
X191515116Y-66680736D01*
X191472582Y-66616407D01*
X191437256Y-66541345D01*
X191409141Y-66455550D01*
X191391838Y-66379186D01*
X191379150Y-66295953D01*
X191371076Y-66205850D01*
X191367615Y-66108878D01*
X191367519Y-66091988D01*
X191827258Y-66091988D01*
X191828273Y-66172617D01*
X191831779Y-66250240D01*
X191839292Y-66326765D01*
X191840081Y-66332323D01*
X191856018Y-66407977D01*
X191878183Y-66459085D01*
X191943794Y-66496972D01*
X191960981Y-66497920D01*
X192030128Y-66470273D01*
X192039383Y-66459085D01*
X192070569Y-66389930D01*
X192080050Y-66348077D01*
X192088352Y-66270454D01*
X192091620Y-66194826D01*
X192092822Y-66112566D01*
X192092872Y-66089790D01*
X192092148Y-66014819D01*
X192089295Y-65936175D01*
X192083713Y-65866674D01*
X192071707Y-65791942D01*
X192057335Y-65745408D01*
X192016302Y-65695582D01*
X191960981Y-65685690D01*
X191889174Y-65706207D01*
X191853394Y-65770712D01*
X191852538Y-65773618D01*
X191838770Y-65846118D01*
X191833120Y-65902944D01*
X191829113Y-65979520D01*
X191827402Y-66059166D01*
X191827258Y-66091988D01*
X191367519Y-66091988D01*
X191367471Y-66083562D01*
X191368762Y-66009415D01*
X191374501Y-65916453D01*
X191384831Y-65830234D01*
X191399752Y-65750759D01*
X191419263Y-65678027D01*
X191450109Y-65596595D01*
X191488129Y-65525700D01*
X191514383Y-65488220D01*
X191564050Y-65433442D01*
X191633568Y-65379965D01*
X191699764Y-65345613D01*
X191773473Y-65320545D01*
X191854696Y-65304762D01*
X191943432Y-65298263D01*
X191962080Y-65298077D01*
X192051493Y-65302692D01*
G37*
G36*
X193793169Y-65321524D02*
G01*
X193429736Y-66845600D01*
X192934045Y-66845600D01*
X192566948Y-65321524D01*
X193047251Y-65321524D01*
X193185371Y-66220216D01*
X193329718Y-65321524D01*
X193793169Y-65321524D01*
G37*
G36*
X194385282Y-65324426D02*
G01*
X194472500Y-65333133D01*
X194553444Y-65347645D01*
X194628113Y-65367961D01*
X194712627Y-65401519D01*
X194787339Y-65444146D01*
X194852247Y-65495843D01*
X194864052Y-65507271D01*
X194917668Y-65570352D01*
X194962197Y-65643505D01*
X194997639Y-65726730D01*
X195019449Y-65800561D01*
X195035443Y-65880838D01*
X195045621Y-65967560D01*
X195049983Y-66060728D01*
X195050165Y-66085027D01*
X195047798Y-66164794D01*
X195040698Y-66240283D01*
X195026788Y-66321318D01*
X195006695Y-66396766D01*
X195000706Y-66414755D01*
X194973434Y-66482784D01*
X194936678Y-66552037D01*
X194893488Y-66613581D01*
X194861121Y-66650327D01*
X194806397Y-66699368D01*
X194743617Y-66741801D01*
X194672780Y-66777627D01*
X194629945Y-66794675D01*
X194556764Y-66816954D01*
X194478270Y-66832868D01*
X194405231Y-66841571D01*
X194328124Y-66845401D01*
X194305346Y-66845600D01*
X193866442Y-66845600D01*
X193866442Y-66452857D01*
X194345646Y-66452857D01*
X194394006Y-66452857D01*
X194466592Y-66438260D01*
X194498054Y-66415488D01*
X194536350Y-66351718D01*
X194553009Y-66297519D01*
X194565343Y-66223259D01*
X194570869Y-66146256D01*
X194572060Y-66082096D01*
X194570061Y-66001461D01*
X194562883Y-65922229D01*
X194548566Y-65849570D01*
X194530294Y-65799630D01*
X194483832Y-65740525D01*
X194411328Y-65713927D01*
X194394006Y-65713168D01*
X194345646Y-65713168D01*
X194345646Y-66452857D01*
X193866442Y-66452857D01*
X193866442Y-65321524D01*
X194291791Y-65321524D01*
X194385282Y-65324426D01*
G37*
G36*
X195832353Y-66869047D02*
G01*
X195751449Y-66865711D01*
X195674976Y-66855703D01*
X195602934Y-66839024D01*
X195524485Y-66811132D01*
X195452066Y-66774158D01*
X195386573Y-66728788D01*
X195328898Y-66675704D01*
X195279042Y-66614906D01*
X195237005Y-66546394D01*
X195216494Y-66503782D01*
X195186659Y-66423867D01*
X195166918Y-66350374D01*
X195152561Y-66272270D01*
X195143588Y-66189555D01*
X195139999Y-66102228D01*
X195139924Y-66087225D01*
X195141785Y-66013194D01*
X195148929Y-65928701D01*
X195161431Y-65848948D01*
X195179291Y-65773935D01*
X195202509Y-65703662D01*
X195216128Y-65670303D01*
X195253306Y-65597351D01*
X195298163Y-65531727D01*
X195350699Y-65473431D01*
X195410913Y-65422463D01*
X195448769Y-65396629D01*
X195519685Y-65358228D01*
X195595229Y-65329259D01*
X195675401Y-65309722D01*
X195760202Y-65299617D01*
X195810737Y-65298077D01*
X195884910Y-65301367D01*
X195958824Y-65311237D01*
X196025793Y-65325921D01*
X196098728Y-65348023D01*
X196168597Y-65379852D01*
X196186627Y-65391500D01*
X196186627Y-65819413D01*
X196146327Y-65819413D01*
X196093953Y-65764235D01*
X196038982Y-65729288D01*
X195966532Y-65704700D01*
X195907457Y-65698879D01*
X195823042Y-65712493D01*
X195756092Y-65753336D01*
X195706607Y-65821407D01*
X195678711Y-65898932D01*
X195665127Y-65974566D01*
X195659305Y-66062302D01*
X195659062Y-66086126D01*
X195662341Y-66165147D01*
X195674116Y-66244464D01*
X195697599Y-66319684D01*
X195727572Y-66374089D01*
X195782422Y-66429364D01*
X195852770Y-66461694D01*
X195930172Y-66471175D01*
X196006926Y-66464846D01*
X196053637Y-66453223D01*
X196120393Y-66416401D01*
X196151456Y-66386911D01*
X196186627Y-66386911D01*
X196186627Y-66778921D01*
X196118941Y-66813817D01*
X196048974Y-66837989D01*
X196030922Y-66843035D01*
X195957145Y-66858886D01*
X195882545Y-66867421D01*
X195832353Y-66869047D01*
G37*
D11*
X140413466Y-80595209D02*
X140556323Y-80642828D01*
X140556323Y-80642828D02*
X140603942Y-80690447D01*
X140603942Y-80690447D02*
X140651561Y-80785685D01*
X140651561Y-80785685D02*
X140651561Y-80928542D01*
X140651561Y-80928542D02*
X140603942Y-81023780D01*
X140603942Y-81023780D02*
X140556323Y-81071400D01*
X140556323Y-81071400D02*
X140461085Y-81119019D01*
X140461085Y-81119019D02*
X140080133Y-81119019D01*
X140080133Y-81119019D02*
X140080133Y-80119019D01*
X140080133Y-80119019D02*
X140413466Y-80119019D01*
X140413466Y-80119019D02*
X140508704Y-80166638D01*
X140508704Y-80166638D02*
X140556323Y-80214257D01*
X140556323Y-80214257D02*
X140603942Y-80309495D01*
X140603942Y-80309495D02*
X140603942Y-80404733D01*
X140603942Y-80404733D02*
X140556323Y-80499971D01*
X140556323Y-80499971D02*
X140508704Y-80547590D01*
X140508704Y-80547590D02*
X140413466Y-80595209D01*
X140413466Y-80595209D02*
X140080133Y-80595209D01*
X141080133Y-81119019D02*
X141080133Y-80119019D01*
X141080133Y-80119019D02*
X141461085Y-80119019D01*
X141461085Y-80119019D02*
X141556323Y-80166638D01*
X141556323Y-80166638D02*
X141603942Y-80214257D01*
X141603942Y-80214257D02*
X141651561Y-80309495D01*
X141651561Y-80309495D02*
X141651561Y-80452352D01*
X141651561Y-80452352D02*
X141603942Y-80547590D01*
X141603942Y-80547590D02*
X141556323Y-80595209D01*
X141556323Y-80595209D02*
X141461085Y-80642828D01*
X141461085Y-80642828D02*
X141080133Y-80642828D01*
X142032514Y-80214257D02*
X142080133Y-80166638D01*
X142080133Y-80166638D02*
X142175371Y-80119019D01*
X142175371Y-80119019D02*
X142413466Y-80119019D01*
X142413466Y-80119019D02*
X142508704Y-80166638D01*
X142508704Y-80166638D02*
X142556323Y-80214257D01*
X142556323Y-80214257D02*
X142603942Y-80309495D01*
X142603942Y-80309495D02*
X142603942Y-80404733D01*
X142603942Y-80404733D02*
X142556323Y-80547590D01*
X142556323Y-80547590D02*
X141984895Y-81119019D01*
X141984895Y-81119019D02*
X142603942Y-81119019D01*
X143175371Y-80547590D02*
X143080133Y-80499971D01*
X143080133Y-80499971D02*
X143032514Y-80452352D01*
X143032514Y-80452352D02*
X142984895Y-80357114D01*
X142984895Y-80357114D02*
X142984895Y-80309495D01*
X142984895Y-80309495D02*
X143032514Y-80214257D01*
X143032514Y-80214257D02*
X143080133Y-80166638D01*
X143080133Y-80166638D02*
X143175371Y-80119019D01*
X143175371Y-80119019D02*
X143365847Y-80119019D01*
X143365847Y-80119019D02*
X143461085Y-80166638D01*
X143461085Y-80166638D02*
X143508704Y-80214257D01*
X143508704Y-80214257D02*
X143556323Y-80309495D01*
X143556323Y-80309495D02*
X143556323Y-80357114D01*
X143556323Y-80357114D02*
X143508704Y-80452352D01*
X143508704Y-80452352D02*
X143461085Y-80499971D01*
X143461085Y-80499971D02*
X143365847Y-80547590D01*
X143365847Y-80547590D02*
X143175371Y-80547590D01*
X143175371Y-80547590D02*
X143080133Y-80595209D01*
X143080133Y-80595209D02*
X143032514Y-80642828D01*
X143032514Y-80642828D02*
X142984895Y-80738066D01*
X142984895Y-80738066D02*
X142984895Y-80928542D01*
X142984895Y-80928542D02*
X143032514Y-81023780D01*
X143032514Y-81023780D02*
X143080133Y-81071400D01*
X143080133Y-81071400D02*
X143175371Y-81119019D01*
X143175371Y-81119019D02*
X143365847Y-81119019D01*
X143365847Y-81119019D02*
X143461085Y-81071400D01*
X143461085Y-81071400D02*
X143508704Y-81023780D01*
X143508704Y-81023780D02*
X143556323Y-80928542D01*
X143556323Y-80928542D02*
X143556323Y-80738066D01*
X143556323Y-80738066D02*
X143508704Y-80642828D01*
X143508704Y-80642828D02*
X143461085Y-80595209D01*
X143461085Y-80595209D02*
X143365847Y-80547590D01*
X144413466Y-80119019D02*
X144222990Y-80119019D01*
X144222990Y-80119019D02*
X144127752Y-80166638D01*
X144127752Y-80166638D02*
X144080133Y-80214257D01*
X144080133Y-80214257D02*
X143984895Y-80357114D01*
X143984895Y-80357114D02*
X143937276Y-80547590D01*
X143937276Y-80547590D02*
X143937276Y-80928542D01*
X143937276Y-80928542D02*
X143984895Y-81023780D01*
X143984895Y-81023780D02*
X144032514Y-81071400D01*
X144032514Y-81071400D02*
X144127752Y-81119019D01*
X144127752Y-81119019D02*
X144318228Y-81119019D01*
X144318228Y-81119019D02*
X144413466Y-81071400D01*
X144413466Y-81071400D02*
X144461085Y-81023780D01*
X144461085Y-81023780D02*
X144508704Y-80928542D01*
X144508704Y-80928542D02*
X144508704Y-80690447D01*
X144508704Y-80690447D02*
X144461085Y-80595209D01*
X144461085Y-80595209D02*
X144413466Y-80547590D01*
X144413466Y-80547590D02*
X144318228Y-80499971D01*
X144318228Y-80499971D02*
X144127752Y-80499971D01*
X144127752Y-80499971D02*
X144032514Y-80547590D01*
X144032514Y-80547590D02*
X143984895Y-80595209D01*
X143984895Y-80595209D02*
X143937276Y-80690447D01*
X145365847Y-80119019D02*
X145175371Y-80119019D01*
X145175371Y-80119019D02*
X145080133Y-80166638D01*
X145080133Y-80166638D02*
X145032514Y-80214257D01*
X145032514Y-80214257D02*
X144937276Y-80357114D01*
X144937276Y-80357114D02*
X144889657Y-80547590D01*
X144889657Y-80547590D02*
X144889657Y-80928542D01*
X144889657Y-80928542D02*
X144937276Y-81023780D01*
X144937276Y-81023780D02*
X144984895Y-81071400D01*
X144984895Y-81071400D02*
X145080133Y-81119019D01*
X145080133Y-81119019D02*
X145270609Y-81119019D01*
X145270609Y-81119019D02*
X145365847Y-81071400D01*
X145365847Y-81071400D02*
X145413466Y-81023780D01*
X145413466Y-81023780D02*
X145461085Y-80928542D01*
X145461085Y-80928542D02*
X145461085Y-80690447D01*
X145461085Y-80690447D02*
X145413466Y-80595209D01*
X145413466Y-80595209D02*
X145365847Y-80547590D01*
X145365847Y-80547590D02*
X145270609Y-80499971D01*
X145270609Y-80499971D02*
X145080133Y-80499971D01*
X145080133Y-80499971D02*
X144984895Y-80547590D01*
X144984895Y-80547590D02*
X144937276Y-80595209D01*
X144937276Y-80595209D02*
X144889657Y-80690447D01*
X145889657Y-81119019D02*
X145889657Y-80119019D01*
X145889657Y-80119019D02*
X146127752Y-80119019D01*
X146127752Y-80119019D02*
X146270609Y-80166638D01*
X146270609Y-80166638D02*
X146365847Y-80261876D01*
X146365847Y-80261876D02*
X146413466Y-80357114D01*
X146413466Y-80357114D02*
X146461085Y-80547590D01*
X146461085Y-80547590D02*
X146461085Y-80690447D01*
X146461085Y-80690447D02*
X146413466Y-80880923D01*
X146413466Y-80880923D02*
X146365847Y-80976161D01*
X146365847Y-80976161D02*
X146270609Y-81071400D01*
X146270609Y-81071400D02*
X146127752Y-81119019D01*
X146127752Y-81119019D02*
X145889657Y-81119019D01*
X176403333Y-71908200D02*
X176546190Y-71955819D01*
X176546190Y-71955819D02*
X176784285Y-71955819D01*
X176784285Y-71955819D02*
X176879523Y-71908200D01*
X176879523Y-71908200D02*
X176927142Y-71860580D01*
X176927142Y-71860580D02*
X176974761Y-71765342D01*
X176974761Y-71765342D02*
X176974761Y-71670104D01*
X176974761Y-71670104D02*
X176927142Y-71574866D01*
X176927142Y-71574866D02*
X176879523Y-71527247D01*
X176879523Y-71527247D02*
X176784285Y-71479628D01*
X176784285Y-71479628D02*
X176593809Y-71432009D01*
X176593809Y-71432009D02*
X176498571Y-71384390D01*
X176498571Y-71384390D02*
X176450952Y-71336771D01*
X176450952Y-71336771D02*
X176403333Y-71241533D01*
X176403333Y-71241533D02*
X176403333Y-71146295D01*
X176403333Y-71146295D02*
X176450952Y-71051057D01*
X176450952Y-71051057D02*
X176498571Y-71003438D01*
X176498571Y-71003438D02*
X176593809Y-70955819D01*
X176593809Y-70955819D02*
X176831904Y-70955819D01*
X176831904Y-70955819D02*
X176974761Y-71003438D01*
X177831904Y-71289152D02*
X177831904Y-71955819D01*
X177593809Y-70908200D02*
X177355714Y-71622485D01*
X177355714Y-71622485D02*
X177974761Y-71622485D01*
X178831904Y-70955819D02*
X178355714Y-70955819D01*
X178355714Y-70955819D02*
X178308095Y-71432009D01*
X178308095Y-71432009D02*
X178355714Y-71384390D01*
X178355714Y-71384390D02*
X178450952Y-71336771D01*
X178450952Y-71336771D02*
X178689047Y-71336771D01*
X178689047Y-71336771D02*
X178784285Y-71384390D01*
X178784285Y-71384390D02*
X178831904Y-71432009D01*
X178831904Y-71432009D02*
X178879523Y-71527247D01*
X178879523Y-71527247D02*
X178879523Y-71765342D01*
X178879523Y-71765342D02*
X178831904Y-71860580D01*
X178831904Y-71860580D02*
X178784285Y-71908200D01*
X178784285Y-71908200D02*
X178689047Y-71955819D01*
X178689047Y-71955819D02*
X178450952Y-71955819D01*
X178450952Y-71955819D02*
X178355714Y-71908200D01*
X178355714Y-71908200D02*
X178308095Y-71860580D01*
X179260476Y-71051057D02*
X179308095Y-71003438D01*
X179308095Y-71003438D02*
X179403333Y-70955819D01*
X179403333Y-70955819D02*
X179641428Y-70955819D01*
X179641428Y-70955819D02*
X179736666Y-71003438D01*
X179736666Y-71003438D02*
X179784285Y-71051057D01*
X179784285Y-71051057D02*
X179831904Y-71146295D01*
X179831904Y-71146295D02*
X179831904Y-71241533D01*
X179831904Y-71241533D02*
X179784285Y-71384390D01*
X179784285Y-71384390D02*
X179212857Y-71955819D01*
X179212857Y-71955819D02*
X179831904Y-71955819D01*
X180736666Y-70955819D02*
X180260476Y-70955819D01*
X180260476Y-70955819D02*
X180212857Y-71432009D01*
X180212857Y-71432009D02*
X180260476Y-71384390D01*
X180260476Y-71384390D02*
X180355714Y-71336771D01*
X180355714Y-71336771D02*
X180593809Y-71336771D01*
X180593809Y-71336771D02*
X180689047Y-71384390D01*
X180689047Y-71384390D02*
X180736666Y-71432009D01*
X180736666Y-71432009D02*
X180784285Y-71527247D01*
X180784285Y-71527247D02*
X180784285Y-71765342D01*
X180784285Y-71765342D02*
X180736666Y-71860580D01*
X180736666Y-71860580D02*
X180689047Y-71908200D01*
X180689047Y-71908200D02*
X180593809Y-71955819D01*
X180593809Y-71955819D02*
X180355714Y-71955819D01*
X180355714Y-71955819D02*
X180260476Y-71908200D01*
X180260476Y-71908200D02*
X180212857Y-71860580D01*
X181165238Y-71908200D02*
X181308095Y-71955819D01*
X181308095Y-71955819D02*
X181546190Y-71955819D01*
X181546190Y-71955819D02*
X181641428Y-71908200D01*
X181641428Y-71908200D02*
X181689047Y-71860580D01*
X181689047Y-71860580D02*
X181736666Y-71765342D01*
X181736666Y-71765342D02*
X181736666Y-71670104D01*
X181736666Y-71670104D02*
X181689047Y-71574866D01*
X181689047Y-71574866D02*
X181641428Y-71527247D01*
X181641428Y-71527247D02*
X181546190Y-71479628D01*
X181546190Y-71479628D02*
X181355714Y-71432009D01*
X181355714Y-71432009D02*
X181260476Y-71384390D01*
X181260476Y-71384390D02*
X181212857Y-71336771D01*
X181212857Y-71336771D02*
X181165238Y-71241533D01*
X181165238Y-71241533D02*
X181165238Y-71146295D01*
X181165238Y-71146295D02*
X181212857Y-71051057D01*
X181212857Y-71051057D02*
X181260476Y-71003438D01*
X181260476Y-71003438D02*
X181355714Y-70955819D01*
X181355714Y-70955819D02*
X181593809Y-70955819D01*
X181593809Y-70955819D02*
X181736666Y-71003438D01*
D12*
G36*
X131673991Y-86929946D02*
G01*
X131732136Y-86935751D01*
X131786098Y-86945425D01*
X131835878Y-86958969D01*
X131892221Y-86981341D01*
X131942028Y-87009759D01*
X131985300Y-87044224D01*
X131993170Y-87051842D01*
X132028915Y-87093897D01*
X132058601Y-87142665D01*
X132082228Y-87198148D01*
X132096769Y-87247369D01*
X132107431Y-87300887D01*
X132114217Y-87358702D01*
X132117125Y-87420814D01*
X132117246Y-87437013D01*
X132115668Y-87490191D01*
X132110935Y-87540517D01*
X132101661Y-87594540D01*
X132088266Y-87644839D01*
X132084273Y-87656832D01*
X132066092Y-87702185D01*
X132041588Y-87748353D01*
X132012795Y-87789382D01*
X131991217Y-87813880D01*
X131954734Y-87846574D01*
X131912880Y-87874863D01*
X131865656Y-87898746D01*
X131837099Y-87910112D01*
X131788312Y-87924965D01*
X131735983Y-87935574D01*
X131687290Y-87941376D01*
X131635885Y-87943929D01*
X131620700Y-87944062D01*
X131328097Y-87944062D01*
X131328097Y-87682233D01*
X131647567Y-87682233D01*
X131679807Y-87682233D01*
X131728198Y-87672502D01*
X131749172Y-87657320D01*
X131774703Y-87614807D01*
X131785808Y-87578674D01*
X131794031Y-87529168D01*
X131797715Y-87477832D01*
X131798509Y-87435059D01*
X131797177Y-87381302D01*
X131792391Y-87328481D01*
X131782847Y-87280042D01*
X131770665Y-87246748D01*
X131739690Y-87207345D01*
X131691355Y-87189613D01*
X131679807Y-87189107D01*
X131647567Y-87189107D01*
X131647567Y-87682233D01*
X131328097Y-87682233D01*
X131328097Y-86928011D01*
X131611663Y-86928011D01*
X131673991Y-86929946D01*
G37*
G36*
X132746078Y-86930604D02*
G01*
X132795989Y-86938384D01*
X132848272Y-86954015D01*
X132894150Y-86976705D01*
X132928376Y-87001773D01*
X132965669Y-87042286D01*
X132992307Y-87090311D01*
X133006874Y-87138493D01*
X133013284Y-87192425D01*
X133013617Y-87208891D01*
X133011236Y-87261494D01*
X133002864Y-87315054D01*
X132988464Y-87362662D01*
X132975515Y-87391096D01*
X132947647Y-87433395D01*
X132911669Y-87469921D01*
X132867581Y-87500676D01*
X132857790Y-87506134D01*
X133105697Y-87944062D01*
X132725899Y-87944062D01*
X132551998Y-87584536D01*
X132538321Y-87584536D01*
X132538321Y-87944062D01*
X132216164Y-87944062D01*
X132216164Y-87378395D01*
X132538321Y-87378395D01*
X132562989Y-87378395D01*
X132611693Y-87372706D01*
X132650672Y-87352505D01*
X132675230Y-87309076D01*
X132679249Y-87272394D01*
X132669256Y-87223292D01*
X132656046Y-87205715D01*
X132609187Y-87186762D01*
X132571293Y-87184222D01*
X132538321Y-87184222D01*
X132538321Y-87378395D01*
X132216164Y-87378395D01*
X132216164Y-86928011D01*
X132691461Y-86928011D01*
X132746078Y-86930604D01*
G37*
G36*
X133665501Y-87944062D02*
G01*
X133123038Y-87944062D01*
X133123038Y-87678814D01*
X133230016Y-87678814D01*
X133230016Y-87193259D01*
X133123038Y-87193259D01*
X133123038Y-86928011D01*
X133665501Y-86928011D01*
X133665501Y-87193259D01*
X133557790Y-87193259D01*
X133557790Y-87678814D01*
X133665501Y-87678814D01*
X133665501Y-87944062D01*
G37*
G36*
X134505208Y-86928011D02*
G01*
X134262919Y-87944062D01*
X133932459Y-87944062D01*
X133687727Y-86928011D01*
X134007930Y-86928011D01*
X134100009Y-87527139D01*
X134196241Y-86928011D01*
X134505208Y-86928011D01*
G37*
G36*
X135209360Y-87944062D02*
G01*
X134554057Y-87944062D01*
X134554057Y-86928011D01*
X135209360Y-86928011D01*
X135209360Y-87193259D01*
X134869374Y-87193259D01*
X134869374Y-87287537D01*
X135185913Y-87287537D01*
X135185913Y-87549854D01*
X134869374Y-87549854D01*
X134869374Y-87678814D01*
X135209360Y-87678814D01*
X135209360Y-87944062D01*
G37*
G36*
X135823538Y-86930604D02*
G01*
X135873449Y-86938384D01*
X135925732Y-86954015D01*
X135971610Y-86976705D01*
X136005836Y-87001773D01*
X136043129Y-87042286D01*
X136069767Y-87090311D01*
X136084334Y-87138493D01*
X136090744Y-87192425D01*
X136091077Y-87208891D01*
X136088696Y-87261494D01*
X136080324Y-87315054D01*
X136065924Y-87362662D01*
X136052975Y-87391096D01*
X136025107Y-87433395D01*
X135989128Y-87469921D01*
X135945041Y-87500676D01*
X135935250Y-87506134D01*
X136183157Y-87944062D01*
X135803359Y-87944062D01*
X135629458Y-87584536D01*
X135615780Y-87584536D01*
X135615780Y-87944062D01*
X135293624Y-87944062D01*
X135293624Y-87378395D01*
X135615780Y-87378395D01*
X135640449Y-87378395D01*
X135689153Y-87372706D01*
X135728132Y-87352505D01*
X135752690Y-87309076D01*
X135756709Y-87272394D01*
X135746716Y-87223292D01*
X135733505Y-87205715D01*
X135686647Y-87186762D01*
X135648753Y-87184222D01*
X135615780Y-87184222D01*
X135615780Y-87378395D01*
X135293624Y-87378395D01*
X135293624Y-86928011D01*
X135768921Y-86928011D01*
X135823538Y-86930604D01*
G37*
G36*
X137248788Y-87944062D02*
G01*
X136617420Y-87944062D01*
X136617420Y-86928011D01*
X136942996Y-86928011D01*
X136942996Y-87674662D01*
X137248788Y-87674662D01*
X137248788Y-87944062D01*
G37*
G36*
X137974189Y-87944062D02*
G01*
X137318886Y-87944062D01*
X137318886Y-86928011D01*
X137974189Y-86928011D01*
X137974189Y-87193259D01*
X137634203Y-87193259D01*
X137634203Y-87287537D01*
X137950742Y-87287537D01*
X137950742Y-87549854D01*
X137634203Y-87549854D01*
X137634203Y-87678814D01*
X137974189Y-87678814D01*
X137974189Y-87944062D01*
G37*
G36*
X138404347Y-86929946D02*
G01*
X138462492Y-86935751D01*
X138516454Y-86945425D01*
X138566234Y-86958969D01*
X138622577Y-86981341D01*
X138672384Y-87009759D01*
X138715656Y-87044224D01*
X138723526Y-87051842D01*
X138759271Y-87093897D01*
X138788957Y-87142665D01*
X138812584Y-87198148D01*
X138827124Y-87247369D01*
X138837787Y-87300887D01*
X138844573Y-87358702D01*
X138847481Y-87420814D01*
X138847602Y-87437013D01*
X138846024Y-87490191D01*
X138841291Y-87540517D01*
X138832017Y-87594540D01*
X138818622Y-87644839D01*
X138814629Y-87656832D01*
X138796448Y-87702185D01*
X138771944Y-87748353D01*
X138743151Y-87789382D01*
X138721572Y-87813880D01*
X138685090Y-87846574D01*
X138643236Y-87874863D01*
X138596012Y-87898746D01*
X138567455Y-87910112D01*
X138518668Y-87924965D01*
X138466339Y-87935574D01*
X138417646Y-87941376D01*
X138366241Y-87943929D01*
X138351056Y-87944062D01*
X138058453Y-87944062D01*
X138058453Y-87682233D01*
X138377923Y-87682233D01*
X138410163Y-87682233D01*
X138458553Y-87672502D01*
X138479528Y-87657320D01*
X138505059Y-87614807D01*
X138516164Y-87578674D01*
X138524387Y-87529168D01*
X138528071Y-87477832D01*
X138528865Y-87435059D01*
X138527532Y-87381302D01*
X138522747Y-87328481D01*
X138513203Y-87280042D01*
X138501021Y-87246748D01*
X138470046Y-87207345D01*
X138421710Y-87189613D01*
X138410163Y-87189107D01*
X138377923Y-87189107D01*
X138377923Y-87682233D01*
X138058453Y-87682233D01*
X138058453Y-86928011D01*
X138342019Y-86928011D01*
X138404347Y-86929946D01*
G37*
G36*
X139681248Y-86929946D02*
G01*
X139739393Y-86935751D01*
X139793356Y-86945425D01*
X139843136Y-86958969D01*
X139899478Y-86981341D01*
X139949286Y-87009759D01*
X139992558Y-87044224D01*
X140000428Y-87051842D01*
X140036172Y-87093897D01*
X140065858Y-87142665D01*
X140089486Y-87198148D01*
X140104026Y-87247369D01*
X140114689Y-87300887D01*
X140121474Y-87358702D01*
X140124382Y-87420814D01*
X140124503Y-87437013D01*
X140122926Y-87490191D01*
X140118192Y-87540517D01*
X140108919Y-87594540D01*
X140095523Y-87644839D01*
X140091531Y-87656832D01*
X140073350Y-87702185D01*
X140048846Y-87748353D01*
X140020052Y-87789382D01*
X139998474Y-87813880D01*
X139961991Y-87846574D01*
X139920138Y-87874863D01*
X139872913Y-87898746D01*
X139844357Y-87910112D01*
X139795569Y-87924965D01*
X139743240Y-87935574D01*
X139694547Y-87941376D01*
X139643143Y-87943929D01*
X139627958Y-87944062D01*
X139335355Y-87944062D01*
X139335355Y-87682233D01*
X139654824Y-87682233D01*
X139687064Y-87682233D01*
X139735455Y-87672502D01*
X139756429Y-87657320D01*
X139781960Y-87614807D01*
X139793066Y-87578674D01*
X139801289Y-87529168D01*
X139804973Y-87477832D01*
X139805766Y-87435059D01*
X139804434Y-87381302D01*
X139799648Y-87328481D01*
X139790104Y-87280042D01*
X139777923Y-87246748D01*
X139746948Y-87207345D01*
X139698612Y-87189613D01*
X139687064Y-87189107D01*
X139654824Y-87189107D01*
X139654824Y-87682233D01*
X139335355Y-87682233D01*
X139335355Y-86928011D01*
X139618921Y-86928011D01*
X139681248Y-86929946D01*
G37*
G36*
X140673420Y-86914502D02*
G01*
X140732877Y-86923122D01*
X140787694Y-86938372D01*
X140837873Y-86960254D01*
X140883412Y-86988767D01*
X140924312Y-87023910D01*
X140946625Y-87048179D01*
X140979695Y-87093372D01*
X141007161Y-87144230D01*
X141029021Y-87200753D01*
X141042473Y-87250050D01*
X141052339Y-87302972D01*
X141058616Y-87359520D01*
X141061307Y-87419694D01*
X141061419Y-87435304D01*
X141059679Y-87497948D01*
X141054458Y-87556677D01*
X141045757Y-87611491D01*
X141033575Y-87662388D01*
X141017913Y-87709371D01*
X140993441Y-87762593D01*
X140963531Y-87809696D01*
X140950044Y-87826825D01*
X140912746Y-87865102D01*
X140870307Y-87896892D01*
X140822729Y-87922194D01*
X140770010Y-87941008D01*
X140712152Y-87953335D01*
X140662164Y-87958525D01*
X140622515Y-87959693D01*
X140570067Y-87957644D01*
X140520925Y-87951496D01*
X140464144Y-87938047D01*
X140412528Y-87918194D01*
X140366075Y-87891936D01*
X140324786Y-87859275D01*
X140295473Y-87828535D01*
X140263599Y-87784287D01*
X140237127Y-87733671D01*
X140216057Y-87676687D01*
X140203092Y-87626514D01*
X140193583Y-87572265D01*
X140187533Y-87513941D01*
X140184939Y-87451541D01*
X140184873Y-87441654D01*
X140526283Y-87441654D01*
X140527090Y-87494639D01*
X140530072Y-87548468D01*
X140536170Y-87599454D01*
X140547829Y-87647387D01*
X140549242Y-87651214D01*
X140576898Y-87694166D01*
X140622515Y-87711054D01*
X140670917Y-87698184D01*
X140683331Y-87686141D01*
X140703281Y-87638717D01*
X140709953Y-87602122D01*
X140714865Y-87551632D01*
X140717226Y-87500427D01*
X140718006Y-87447245D01*
X140718013Y-87440921D01*
X140717479Y-87391294D01*
X140715309Y-87337718D01*
X140710500Y-87285832D01*
X140709465Y-87278500D01*
X140698047Y-87229346D01*
X140680889Y-87196190D01*
X140638414Y-87172004D01*
X140622515Y-87170789D01*
X140574847Y-87183141D01*
X140560965Y-87196923D01*
X140541451Y-87244682D01*
X140534587Y-87280698D01*
X140529527Y-87330352D01*
X140527094Y-87381543D01*
X140526291Y-87435241D01*
X140526283Y-87441654D01*
X140184873Y-87441654D01*
X140184831Y-87435304D01*
X140186598Y-87374224D01*
X140191899Y-87316770D01*
X140200734Y-87262941D01*
X140213102Y-87212737D01*
X140229005Y-87166159D01*
X140253853Y-87113035D01*
X140284222Y-87065576D01*
X140297916Y-87048179D01*
X140335658Y-87009057D01*
X140378206Y-86976566D01*
X140425560Y-86950706D01*
X140477720Y-86931476D01*
X140534687Y-86918878D01*
X140583721Y-86913573D01*
X140622515Y-86912380D01*
X140673420Y-86914502D01*
G37*
G36*
X142233540Y-86928011D02*
G01*
X142052068Y-87944062D01*
X141746520Y-87944062D01*
X141646869Y-87394759D01*
X141550637Y-87944062D01*
X141243624Y-87944062D01*
X141065083Y-86928011D01*
X141346695Y-86928011D01*
X141417525Y-87500516D01*
X141501300Y-86928011D01*
X141792438Y-86928011D01*
X141887937Y-87496364D01*
X141967804Y-86928011D01*
X142233540Y-86928011D01*
G37*
G36*
X143084727Y-87944062D02*
G01*
X142783819Y-87944062D01*
X142587204Y-87495632D01*
X142587204Y-87944062D01*
X142299486Y-87944062D01*
X142299486Y-86928011D01*
X142614071Y-86928011D01*
X142796032Y-87361298D01*
X142796032Y-86928011D01*
X143084727Y-86928011D01*
X143084727Y-87944062D01*
G37*
G36*
X143851161Y-87944062D02*
G01*
X143219793Y-87944062D01*
X143219793Y-86928011D01*
X143545369Y-86928011D01*
X143545369Y-87674662D01*
X143851161Y-87674662D01*
X143851161Y-87944062D01*
G37*
G36*
X144435634Y-87944062D02*
G01*
X143893170Y-87944062D01*
X143893170Y-87678814D01*
X144000149Y-87678814D01*
X144000149Y-87193259D01*
X143893170Y-87193259D01*
X143893170Y-86928011D01*
X144435634Y-86928011D01*
X144435634Y-87193259D01*
X144327923Y-87193259D01*
X144327923Y-87678814D01*
X144435634Y-87678814D01*
X144435634Y-87944062D01*
G37*
G36*
X145332494Y-87875185D02*
G01*
X145287460Y-87899103D01*
X145254092Y-87911577D01*
X145207197Y-87926152D01*
X145155906Y-87938734D01*
X145119270Y-87946015D01*
X145068244Y-87953803D01*
X145018603Y-87958357D01*
X144974678Y-87959693D01*
X144921638Y-87957452D01*
X144871329Y-87950729D01*
X144823750Y-87939523D01*
X144771693Y-87920785D01*
X144723352Y-87895946D01*
X144679372Y-87865320D01*
X144640184Y-87829434D01*
X144605788Y-87788290D01*
X144576184Y-87741886D01*
X144561419Y-87713008D01*
X144542411Y-87666920D01*
X144527336Y-87618051D01*
X144516193Y-87566399D01*
X144508983Y-87511965D01*
X144505706Y-87454750D01*
X144505487Y-87435059D01*
X144507574Y-87379072D01*
X144513834Y-87325230D01*
X144524266Y-87273536D01*
X144538872Y-87223988D01*
X144557651Y-87176587D01*
X144564838Y-87161263D01*
X144588658Y-87117611D01*
X144620397Y-87071872D01*
X144656391Y-87031719D01*
X144696639Y-86997153D01*
X144727993Y-86975883D01*
X144774715Y-86951139D01*
X144824056Y-86932473D01*
X144876015Y-86919884D01*
X144930592Y-86913372D01*
X144962954Y-86912380D01*
X145012624Y-86913887D01*
X145065727Y-86919096D01*
X145116637Y-86928026D01*
X145131482Y-86931431D01*
X145180540Y-86945794D01*
X145229408Y-86965071D01*
X145278085Y-86989262D01*
X145287797Y-86994690D01*
X145287797Y-87252610D01*
X145256778Y-87252610D01*
X145210661Y-87222822D01*
X145161857Y-87200351D01*
X145110364Y-87185195D01*
X145056182Y-87177356D01*
X145024015Y-87176162D01*
X144972586Y-87182387D01*
X144926978Y-87203616D01*
X144892856Y-87239909D01*
X144871089Y-87286134D01*
X144858392Y-87338912D01*
X144852587Y-87394714D01*
X144851579Y-87433838D01*
X144852282Y-87484442D01*
X144854750Y-87533599D01*
X144860181Y-87582502D01*
X144862815Y-87597237D01*
X144877591Y-87644986D01*
X144898963Y-87677348D01*
X144943387Y-87699608D01*
X144970526Y-87702017D01*
X145004720Y-87700307D01*
X145045997Y-87686874D01*
X145045997Y-87589177D01*
X144947078Y-87589177D01*
X144947078Y-87350063D01*
X145332494Y-87350063D01*
X145332494Y-87875185D01*
G37*
G36*
X146240100Y-87944062D02*
G01*
X145914524Y-87944062D01*
X145914524Y-87553273D01*
X145766025Y-87553273D01*
X145766025Y-87944062D01*
X145440449Y-87944062D01*
X145440449Y-86928011D01*
X145766025Y-86928011D01*
X145766025Y-87272882D01*
X145914524Y-87272882D01*
X145914524Y-86928011D01*
X146240100Y-86928011D01*
X146240100Y-87944062D01*
G37*
G36*
X147078097Y-87193747D02*
G01*
X146860477Y-87193747D01*
X146860477Y-87944062D01*
X146534657Y-87944062D01*
X146534657Y-87193747D01*
X146316304Y-87193747D01*
X146316304Y-86928011D01*
X147078097Y-86928011D01*
X147078097Y-87193747D01*
G37*
D10*
G36*
X173797638Y-65103474D02*
G01*
X173863301Y-65114550D01*
X173923095Y-65133012D01*
X173977022Y-65158858D01*
X174033990Y-65199620D01*
X174075008Y-65241712D01*
X174082508Y-65251017D01*
X174116620Y-65302521D01*
X174144950Y-65362511D01*
X174167499Y-65430989D01*
X174181375Y-65491881D01*
X174191550Y-65558204D01*
X174198026Y-65629959D01*
X174200801Y-65707145D01*
X174200917Y-65727290D01*
X174199062Y-65803490D01*
X174193498Y-65874775D01*
X174184224Y-65941143D01*
X174171241Y-66002595D01*
X174154549Y-66059130D01*
X174122555Y-66134716D01*
X174082215Y-66199241D01*
X174033528Y-66252704D01*
X173976496Y-66295105D01*
X173911117Y-66326446D01*
X173837392Y-66346725D01*
X173755320Y-66355943D01*
X173726109Y-66356557D01*
X173654318Y-66352879D01*
X173588424Y-66341846D01*
X173528427Y-66323456D01*
X173474325Y-66297710D01*
X173417186Y-66257105D01*
X173376056Y-66215177D01*
X173368537Y-66205908D01*
X173334510Y-66154446D01*
X173306249Y-66094396D01*
X173283757Y-66025760D01*
X173269915Y-65964669D01*
X173259764Y-65898082D01*
X173253305Y-65826000D01*
X173250537Y-65748422D01*
X173250460Y-65734910D01*
X173618251Y-65734910D01*
X173619062Y-65799413D01*
X173621867Y-65861512D01*
X173627878Y-65922732D01*
X173628509Y-65927178D01*
X173641259Y-65987702D01*
X173658991Y-66028588D01*
X173711479Y-66058897D01*
X173725229Y-66059656D01*
X173780546Y-66037538D01*
X173787951Y-66028588D01*
X173812899Y-65973264D01*
X173820484Y-65939781D01*
X173827126Y-65877683D01*
X173829741Y-65817181D01*
X173830702Y-65751373D01*
X173830742Y-65733152D01*
X173830163Y-65673175D01*
X173827880Y-65610260D01*
X173823415Y-65554659D01*
X173813810Y-65494873D01*
X173802312Y-65457646D01*
X173769486Y-65417786D01*
X173725229Y-65409872D01*
X173667783Y-65426285D01*
X173639160Y-65477890D01*
X173638474Y-65480214D01*
X173627460Y-65538214D01*
X173622940Y-65583675D01*
X173619735Y-65644936D01*
X173618366Y-65708652D01*
X173618251Y-65734910D01*
X173250460Y-65734910D01*
X173250421Y-65728169D01*
X173251454Y-65668852D01*
X173256045Y-65594482D01*
X173264309Y-65525507D01*
X173276246Y-65461927D01*
X173291855Y-65403741D01*
X173316532Y-65338596D01*
X173346947Y-65281880D01*
X173367951Y-65251896D01*
X173407684Y-65208074D01*
X173463298Y-65165292D01*
X173516255Y-65137810D01*
X173575223Y-65117756D01*
X173640201Y-65105129D01*
X173711190Y-65099930D01*
X173726109Y-65099781D01*
X173797638Y-65103474D01*
G37*
G36*
X174804328Y-65101756D02*
G01*
X174864880Y-65107681D01*
X174931667Y-65120005D01*
X174992045Y-65138016D01*
X175046014Y-65161715D01*
X175078432Y-65180675D01*
X175126854Y-65218840D01*
X175167631Y-65269568D01*
X175192873Y-65327879D01*
X175202582Y-65393775D01*
X175202703Y-65402545D01*
X175196480Y-65462555D01*
X175173487Y-65520899D01*
X175158446Y-65542056D01*
X175111068Y-65585107D01*
X175058758Y-65617828D01*
X174999884Y-65646983D01*
X174999884Y-65651966D01*
X175053808Y-65677025D01*
X175111103Y-65714119D01*
X175157163Y-65757625D01*
X175191989Y-65807542D01*
X175215581Y-65863871D01*
X175227939Y-65926611D01*
X175229961Y-65967332D01*
X175225115Y-66027981D01*
X175210579Y-66085292D01*
X175186352Y-66139264D01*
X175168705Y-66167806D01*
X175130333Y-66214960D01*
X175083800Y-66255854D01*
X175029106Y-66290488D01*
X174995194Y-66307025D01*
X174936851Y-66328695D01*
X174874074Y-66344174D01*
X174815509Y-66352639D01*
X174753549Y-66356364D01*
X174735222Y-66356557D01*
X174665117Y-66354361D01*
X174600063Y-66347770D01*
X174540060Y-66336787D01*
X174474726Y-66317807D01*
X174416667Y-66292500D01*
X174373841Y-66266578D01*
X174323592Y-66223482D01*
X174285684Y-66172924D01*
X174260119Y-66114905D01*
X174246895Y-66049425D01*
X174244880Y-66008658D01*
X174250559Y-65959125D01*
X174610072Y-65959125D01*
X174622314Y-66018136D01*
X174648760Y-66052622D01*
X174703175Y-66080520D01*
X174750170Y-66086034D01*
X174807937Y-66073618D01*
X174826667Y-66062000D01*
X174857262Y-66011011D01*
X174858028Y-65999279D01*
X174849235Y-65954436D01*
X174817581Y-65924541D01*
X174762205Y-65895329D01*
X174712947Y-65872370D01*
X174650226Y-65848044D01*
X174637623Y-65871784D01*
X174624434Y-65898162D01*
X174614176Y-65927472D01*
X174610072Y-65959125D01*
X174250559Y-65959125D01*
X174252155Y-65945206D01*
X174273979Y-65888060D01*
X174310352Y-65837220D01*
X174361274Y-65792686D01*
X174414824Y-65760392D01*
X174451803Y-65743117D01*
X174451803Y-65738134D01*
X174399625Y-65707554D01*
X174352873Y-65667173D01*
X174317274Y-65619726D01*
X174292411Y-65563696D01*
X174278764Y-65504345D01*
X174274242Y-65449733D01*
X174636451Y-65449733D01*
X174643192Y-65485197D01*
X174667811Y-65506885D01*
X174726874Y-65528750D01*
X174785617Y-65548168D01*
X174826667Y-65561400D01*
X174837511Y-65535608D01*
X174852802Y-65477040D01*
X174853045Y-65468490D01*
X174830605Y-65414026D01*
X174823736Y-65407820D01*
X174767682Y-65385014D01*
X174743429Y-65383494D01*
X174684524Y-65394943D01*
X174669570Y-65402252D01*
X174636451Y-65449733D01*
X174274242Y-65449733D01*
X174273774Y-65444077D01*
X174273603Y-65429802D01*
X174280495Y-65366635D01*
X174301171Y-65308109D01*
X174331929Y-65258930D01*
X174373230Y-65214835D01*
X174423863Y-65177437D01*
X174477410Y-65149505D01*
X174496939Y-65141400D01*
X174559126Y-65121282D01*
X174618335Y-65108926D01*
X174681245Y-65101773D01*
X174739326Y-65099781D01*
X174804328Y-65101756D01*
G37*
G36*
X176093115Y-65062266D02*
G01*
X175581084Y-66619167D01*
X175246374Y-66619167D01*
X175756060Y-65062266D01*
X176093115Y-65062266D01*
G37*
G36*
X176673451Y-65103474D02*
G01*
X176739114Y-65114550D01*
X176798908Y-65133012D01*
X176852835Y-65158858D01*
X176909803Y-65199620D01*
X176950821Y-65241712D01*
X176958321Y-65251017D01*
X176992433Y-65302521D01*
X177020763Y-65362511D01*
X177043312Y-65430989D01*
X177057188Y-65491881D01*
X177067363Y-65558204D01*
X177073839Y-65629959D01*
X177076614Y-65707145D01*
X177076730Y-65727290D01*
X177074875Y-65803490D01*
X177069311Y-65874775D01*
X177060037Y-65941143D01*
X177047054Y-66002595D01*
X177030362Y-66059130D01*
X176998368Y-66134716D01*
X176958028Y-66199241D01*
X176909341Y-66252704D01*
X176852309Y-66295105D01*
X176786930Y-66326446D01*
X176713205Y-66346725D01*
X176631133Y-66355943D01*
X176601922Y-66356557D01*
X176530131Y-66352879D01*
X176464237Y-66341846D01*
X176404239Y-66323456D01*
X176350138Y-66297710D01*
X176292999Y-66257105D01*
X176251869Y-66215177D01*
X176244350Y-66205908D01*
X176210323Y-66154446D01*
X176182062Y-66094396D01*
X176159570Y-66025760D01*
X176145728Y-65964669D01*
X176135577Y-65898082D01*
X176129118Y-65826000D01*
X176126350Y-65748422D01*
X176126273Y-65734910D01*
X176494064Y-65734910D01*
X176494875Y-65799413D01*
X176497680Y-65861512D01*
X176503691Y-65922732D01*
X176504322Y-65927178D01*
X176517072Y-65987702D01*
X176534804Y-66028588D01*
X176587292Y-66058897D01*
X176601042Y-66059656D01*
X176656359Y-66037538D01*
X176663764Y-66028588D01*
X176688712Y-65973264D01*
X176696297Y-65939781D01*
X176702939Y-65877683D01*
X176705553Y-65817181D01*
X176706515Y-65751373D01*
X176706555Y-65733152D01*
X176705976Y-65673175D01*
X176703693Y-65610260D01*
X176699228Y-65554659D01*
X176689623Y-65494873D01*
X176678125Y-65457646D01*
X176645299Y-65417786D01*
X176601042Y-65409872D01*
X176543596Y-65426285D01*
X176514973Y-65477890D01*
X176514287Y-65480214D01*
X176503273Y-65538214D01*
X176498753Y-65583675D01*
X176495548Y-65644936D01*
X176494178Y-65708652D01*
X176494064Y-65734910D01*
X176126273Y-65734910D01*
X176126234Y-65728169D01*
X176127267Y-65668852D01*
X176131858Y-65594482D01*
X176140122Y-65525507D01*
X176152059Y-65461927D01*
X176167668Y-65403741D01*
X176192345Y-65338596D01*
X176222760Y-65281880D01*
X176243764Y-65251896D01*
X176283497Y-65208074D01*
X176339111Y-65165292D01*
X176392068Y-65137810D01*
X176451036Y-65117756D01*
X176516014Y-65105129D01*
X176587003Y-65099930D01*
X176601922Y-65099781D01*
X176673451Y-65103474D01*
G37*
G36*
X177680141Y-65101756D02*
G01*
X177740693Y-65107681D01*
X177807480Y-65120005D01*
X177867858Y-65138016D01*
X177921827Y-65161715D01*
X177954245Y-65180675D01*
X178002667Y-65218840D01*
X178043444Y-65269568D01*
X178068686Y-65327879D01*
X178078395Y-65393775D01*
X178078516Y-65402545D01*
X178072293Y-65462555D01*
X178049300Y-65520899D01*
X178034259Y-65542056D01*
X177986881Y-65585107D01*
X177934571Y-65617828D01*
X177875697Y-65646983D01*
X177875697Y-65651966D01*
X177929621Y-65677025D01*
X177986916Y-65714119D01*
X178032976Y-65757625D01*
X178067802Y-65807542D01*
X178091394Y-65863871D01*
X178103752Y-65926611D01*
X178105774Y-65967332D01*
X178100928Y-66027981D01*
X178086392Y-66085292D01*
X178062165Y-66139264D01*
X178044518Y-66167806D01*
X178006146Y-66214960D01*
X177959613Y-66255854D01*
X177904919Y-66290488D01*
X177871007Y-66307025D01*
X177812664Y-66328695D01*
X177749887Y-66344174D01*
X177691322Y-66352639D01*
X177629362Y-66356364D01*
X177611035Y-66356557D01*
X177540930Y-66354361D01*
X177475876Y-66347770D01*
X177415873Y-66336787D01*
X177350539Y-66317807D01*
X177292480Y-66292500D01*
X177249654Y-66266578D01*
X177199405Y-66223482D01*
X177161497Y-66172924D01*
X177135932Y-66114905D01*
X177122708Y-66049425D01*
X177120693Y-66008658D01*
X177126372Y-65959125D01*
X177485885Y-65959125D01*
X177498126Y-66018136D01*
X177524573Y-66052622D01*
X177578988Y-66080520D01*
X177625983Y-66086034D01*
X177683750Y-66073618D01*
X177702480Y-66062000D01*
X177733075Y-66011011D01*
X177733841Y-65999279D01*
X177725048Y-65954436D01*
X177693394Y-65924541D01*
X177638018Y-65895329D01*
X177588760Y-65872370D01*
X177526039Y-65848044D01*
X177513436Y-65871784D01*
X177500247Y-65898162D01*
X177489989Y-65927472D01*
X177485885Y-65959125D01*
X177126372Y-65959125D01*
X177127968Y-65945206D01*
X177149792Y-65888060D01*
X177186165Y-65837220D01*
X177237087Y-65792686D01*
X177290637Y-65760392D01*
X177327616Y-65743117D01*
X177327616Y-65738134D01*
X177275438Y-65707554D01*
X177228686Y-65667173D01*
X177193087Y-65619726D01*
X177168224Y-65563696D01*
X177154577Y-65504345D01*
X177150055Y-65449733D01*
X177512264Y-65449733D01*
X177519005Y-65485197D01*
X177543624Y-65506885D01*
X177602687Y-65528750D01*
X177661430Y-65548168D01*
X177702480Y-65561400D01*
X177713324Y-65535608D01*
X177728615Y-65477040D01*
X177728858Y-65468490D01*
X177706418Y-65414026D01*
X177699549Y-65407820D01*
X177643495Y-65385014D01*
X177619242Y-65383494D01*
X177560337Y-65394943D01*
X177545383Y-65402252D01*
X177512264Y-65449733D01*
X177150055Y-65449733D01*
X177149587Y-65444077D01*
X177149416Y-65429802D01*
X177156308Y-65366635D01*
X177176984Y-65308109D01*
X177207742Y-65258930D01*
X177249043Y-65214835D01*
X177299676Y-65177437D01*
X177353223Y-65149505D01*
X177372752Y-65141400D01*
X177434939Y-65121282D01*
X177494148Y-65108926D01*
X177557058Y-65101773D01*
X177615139Y-65099781D01*
X177680141Y-65101756D01*
G37*
G36*
X178968928Y-65062266D02*
G01*
X178456897Y-66619167D01*
X178122187Y-66619167D01*
X178631873Y-65062266D01*
X178968928Y-65062266D01*
G37*
G36*
X179937595Y-66337800D02*
G01*
X179019340Y-66337800D01*
X179019340Y-66067276D01*
X179070928Y-66026243D01*
X179119742Y-65985943D01*
X179165780Y-65946376D01*
X179219425Y-65897947D01*
X179268734Y-65850663D01*
X179313707Y-65804524D01*
X179354343Y-65759530D01*
X179396277Y-65708278D01*
X179434234Y-65653954D01*
X179463154Y-65599081D01*
X179477614Y-65541310D01*
X179477735Y-65536194D01*
X179466944Y-65477771D01*
X179425508Y-65436225D01*
X179367239Y-65425406D01*
X179308342Y-65427910D01*
X179268174Y-65433319D01*
X179209387Y-65448329D01*
X179187867Y-65456181D01*
X179131848Y-65483334D01*
X179080303Y-65512747D01*
X179048356Y-65512747D01*
X179048356Y-65178916D01*
X179107020Y-65153623D01*
X179163589Y-65135883D01*
X179227141Y-65121177D01*
X179286670Y-65110834D01*
X179350910Y-65103312D01*
X179413146Y-65099969D01*
X179431426Y-65099781D01*
X179499099Y-65102136D01*
X179561434Y-65109198D01*
X179629190Y-65123888D01*
X179689258Y-65145358D01*
X179741641Y-65173608D01*
X179772291Y-65196208D01*
X179817516Y-65242841D01*
X179851632Y-65298366D01*
X179874641Y-65362782D01*
X179885522Y-65425073D01*
X179888356Y-65481973D01*
X179882503Y-65544032D01*
X179867024Y-65602192D01*
X179841871Y-65662012D01*
X179838823Y-65668086D01*
X179806950Y-65722748D01*
X179771885Y-65771493D01*
X179730481Y-65820384D01*
X179689054Y-65863284D01*
X179644304Y-65904738D01*
X179597507Y-65943443D01*
X179548662Y-65979399D01*
X179497770Y-66012605D01*
X179467770Y-66030347D01*
X179937595Y-66030347D01*
X179937595Y-66337800D01*
G37*
G36*
X180563361Y-65103474D02*
G01*
X180629023Y-65114550D01*
X180688818Y-65133012D01*
X180742745Y-65158858D01*
X180799712Y-65199620D01*
X180840730Y-65241712D01*
X180848230Y-65251017D01*
X180882342Y-65302521D01*
X180910672Y-65362511D01*
X180933221Y-65430989D01*
X180947097Y-65491881D01*
X180957273Y-65558204D01*
X180963748Y-65629959D01*
X180966523Y-65707145D01*
X180966639Y-65727290D01*
X180964784Y-65803490D01*
X180959220Y-65874775D01*
X180949947Y-65941143D01*
X180936964Y-66002595D01*
X180920271Y-66059130D01*
X180888277Y-66134716D01*
X180847937Y-66199241D01*
X180799251Y-66252704D01*
X180742218Y-66295105D01*
X180676839Y-66326446D01*
X180603114Y-66346725D01*
X180521043Y-66355943D01*
X180491831Y-66356557D01*
X180420041Y-66352879D01*
X180354147Y-66341846D01*
X180294149Y-66323456D01*
X180240047Y-66297710D01*
X180182908Y-66257105D01*
X180141778Y-66215177D01*
X180134259Y-66205908D01*
X180100232Y-66154446D01*
X180071972Y-66094396D01*
X180049479Y-66025760D01*
X180035637Y-65964669D01*
X180025487Y-65898082D01*
X180019027Y-65826000D01*
X180016259Y-65748422D01*
X180016182Y-65734910D01*
X180383973Y-65734910D01*
X180384785Y-65799413D01*
X180387590Y-65861512D01*
X180393600Y-65922732D01*
X180394231Y-65927178D01*
X180406981Y-65987702D01*
X180424713Y-66028588D01*
X180477202Y-66058897D01*
X180490952Y-66059656D01*
X180546269Y-66037538D01*
X180553673Y-66028588D01*
X180578621Y-65973264D01*
X180586206Y-65939781D01*
X180592848Y-65877683D01*
X180595463Y-65817181D01*
X180596424Y-65751373D01*
X180596465Y-65733152D01*
X180595885Y-65673175D01*
X180593602Y-65610260D01*
X180589137Y-65554659D01*
X180579532Y-65494873D01*
X180568035Y-65457646D01*
X180535208Y-65417786D01*
X180490952Y-65409872D01*
X180433506Y-65426285D01*
X180404882Y-65477890D01*
X180404197Y-65480214D01*
X180393183Y-65538214D01*
X180388663Y-65583675D01*
X180385457Y-65644936D01*
X180384088Y-65708652D01*
X180383973Y-65734910D01*
X180016182Y-65734910D01*
X180016144Y-65728169D01*
X180017177Y-65668852D01*
X180021768Y-65594482D01*
X180030031Y-65525507D01*
X180041968Y-65461927D01*
X180057577Y-65403741D01*
X180082254Y-65338596D01*
X180112669Y-65281880D01*
X180133673Y-65251896D01*
X180173407Y-65208074D01*
X180229021Y-65165292D01*
X180281977Y-65137810D01*
X180340945Y-65117756D01*
X180405923Y-65105129D01*
X180476912Y-65099930D01*
X180491831Y-65099781D01*
X180563361Y-65103474D01*
G37*
G36*
X181965788Y-66337800D02*
G01*
X181047532Y-66337800D01*
X181047532Y-66067276D01*
X181099121Y-66026243D01*
X181147934Y-65985943D01*
X181193973Y-65946376D01*
X181247618Y-65897947D01*
X181296927Y-65850663D01*
X181341899Y-65804524D01*
X181382536Y-65759530D01*
X181424470Y-65708278D01*
X181462427Y-65653954D01*
X181491347Y-65599081D01*
X181505807Y-65541310D01*
X181505927Y-65536194D01*
X181495137Y-65477771D01*
X181453701Y-65436225D01*
X181395432Y-65425406D01*
X181336534Y-65427910D01*
X181296367Y-65433319D01*
X181237580Y-65448329D01*
X181216060Y-65456181D01*
X181160041Y-65483334D01*
X181108495Y-65512747D01*
X181076548Y-65512747D01*
X181076548Y-65178916D01*
X181135212Y-65153623D01*
X181191781Y-65135883D01*
X181255334Y-65121177D01*
X181314863Y-65110834D01*
X181379102Y-65103312D01*
X181441339Y-65099969D01*
X181459619Y-65099781D01*
X181527292Y-65102136D01*
X181589627Y-65109198D01*
X181657382Y-65123888D01*
X181717451Y-65145358D01*
X181769833Y-65173608D01*
X181800484Y-65196208D01*
X181845708Y-65242841D01*
X181879825Y-65298366D01*
X181902834Y-65362782D01*
X181913715Y-65425073D01*
X181916548Y-65481973D01*
X181910695Y-65544032D01*
X181895216Y-65602192D01*
X181870063Y-65662012D01*
X181867016Y-65668086D01*
X181835143Y-65722748D01*
X181800077Y-65771493D01*
X181758674Y-65820384D01*
X181717246Y-65863284D01*
X181672497Y-65904738D01*
X181625700Y-65943443D01*
X181576855Y-65979399D01*
X181525963Y-66012605D01*
X181495962Y-66030347D01*
X181965788Y-66030347D01*
X181965788Y-66337800D01*
G37*
G36*
X182970212Y-65907248D02*
G01*
X182966512Y-65970721D01*
X182955411Y-66030420D01*
X182936909Y-66086345D01*
X182911007Y-66138497D01*
X182873604Y-66191754D01*
X182827669Y-66238425D01*
X182779675Y-66274384D01*
X182739256Y-66297939D01*
X182681480Y-66323585D01*
X182620994Y-66341903D01*
X182557796Y-66352894D01*
X182491887Y-66356557D01*
X182429156Y-66355394D01*
X182369484Y-66351905D01*
X182299197Y-66344271D01*
X182233689Y-66333002D01*
X182172961Y-66318099D01*
X182117014Y-66299560D01*
X182075697Y-66282112D01*
X182075697Y-65965280D01*
X182112040Y-65965280D01*
X182168410Y-66001140D01*
X182225706Y-66028192D01*
X182283927Y-66046436D01*
X182343074Y-66055873D01*
X182377288Y-66057311D01*
X182440946Y-66053536D01*
X182500551Y-66039341D01*
X182528816Y-66025364D01*
X182569579Y-65980470D01*
X182579228Y-65933626D01*
X182568731Y-65874211D01*
X182531454Y-65826648D01*
X182475074Y-65801614D01*
X182413278Y-65792622D01*
X182383150Y-65791770D01*
X182324155Y-65793650D01*
X182260476Y-65800400D01*
X182200791Y-65812059D01*
X182138418Y-65831044D01*
X182112920Y-65831044D01*
X182112920Y-65118539D01*
X182923903Y-65118539D01*
X182923903Y-65425992D01*
X182419493Y-65425992D01*
X182419493Y-65515678D01*
X182479591Y-65512769D01*
X182516800Y-65512454D01*
X182544057Y-65512454D01*
X182604481Y-65514980D01*
X182671361Y-65524679D01*
X182732100Y-65541654D01*
X182786697Y-65565902D01*
X182842632Y-65603387D01*
X182857079Y-65615915D01*
X182901161Y-65665119D01*
X182934416Y-65722456D01*
X182954303Y-65778077D01*
X182966235Y-65839675D01*
X182970212Y-65907248D01*
G37*
G36*
X170415989Y-86634661D02*
G01*
X170485763Y-86641627D01*
X170550518Y-86653236D01*
X170610254Y-86669489D01*
X170677865Y-86696335D01*
X170737634Y-86730437D01*
X170789560Y-86771794D01*
X170799005Y-86780937D01*
X170841898Y-86831402D01*
X170877521Y-86889924D01*
X170905874Y-86956504D01*
X170923322Y-87015569D01*
X170936118Y-87079790D01*
X170944260Y-87149168D01*
X170947750Y-87223702D01*
X170947895Y-87243142D01*
X170946002Y-87306955D01*
X170940322Y-87367346D01*
X170929193Y-87432174D01*
X170913119Y-87492533D01*
X170908328Y-87506924D01*
X170886511Y-87561347D01*
X170857106Y-87616749D01*
X170822554Y-87665984D01*
X170796660Y-87695382D01*
X170752881Y-87734614D01*
X170702657Y-87768561D01*
X170645987Y-87797221D01*
X170611719Y-87810860D01*
X170553174Y-87828683D01*
X170490379Y-87841415D01*
X170431948Y-87848377D01*
X170370262Y-87851440D01*
X170352040Y-87851600D01*
X170000917Y-87851600D01*
X170000917Y-87537406D01*
X170384280Y-87537406D01*
X170422968Y-87537406D01*
X170481037Y-87525728D01*
X170506206Y-87507510D01*
X170536844Y-87456494D01*
X170550170Y-87413135D01*
X170560038Y-87353727D01*
X170564458Y-87292125D01*
X170565411Y-87240797D01*
X170563812Y-87176289D01*
X170558069Y-87112903D01*
X170546616Y-87054776D01*
X170531998Y-87014824D01*
X170494828Y-86967540D01*
X170436826Y-86946262D01*
X170422968Y-86945654D01*
X170384280Y-86945654D01*
X170384280Y-87537406D01*
X170000917Y-87537406D01*
X170000917Y-86632339D01*
X170341196Y-86632339D01*
X170415989Y-86634661D01*
G37*
G36*
X171852961Y-87851600D02*
G01*
X171066597Y-87851600D01*
X171066597Y-86632339D01*
X171852961Y-86632339D01*
X171852961Y-86950636D01*
X171444978Y-86950636D01*
X171444978Y-87063770D01*
X171824825Y-87063770D01*
X171824825Y-87378550D01*
X171444978Y-87378550D01*
X171444978Y-87533302D01*
X171852961Y-87533302D01*
X171852961Y-87851600D01*
G37*
G36*
X172864713Y-87452702D02*
G01*
X172861361Y-87513940D01*
X172849576Y-87577884D01*
X172829305Y-87636588D01*
X172811077Y-87672814D01*
X172776737Y-87721995D01*
X172733725Y-87764684D01*
X172682043Y-87800882D01*
X172649584Y-87818187D01*
X172593842Y-87841012D01*
X172534472Y-87857315D01*
X172471476Y-87867097D01*
X172404853Y-87870357D01*
X172345369Y-87869432D01*
X172281819Y-87866107D01*
X172222994Y-87860364D01*
X172162466Y-87851013D01*
X172105137Y-87837907D01*
X172048226Y-87820349D01*
X171991731Y-87798339D01*
X171960526Y-87784188D01*
X171960526Y-87468529D01*
X171998335Y-87468529D01*
X172049819Y-87500173D01*
X172107132Y-87529894D01*
X172164559Y-87553891D01*
X172181810Y-87559974D01*
X172240875Y-87576357D01*
X172303031Y-87586672D01*
X172361614Y-87590768D01*
X172381698Y-87591041D01*
X172442811Y-87586683D01*
X172472264Y-87577266D01*
X172497176Y-87532130D01*
X172480470Y-87490804D01*
X172429532Y-87460767D01*
X172418628Y-87455926D01*
X172362660Y-87433330D01*
X172304263Y-87411439D01*
X172266220Y-87397601D01*
X172209324Y-87375106D01*
X172153986Y-87348924D01*
X172103268Y-87318744D01*
X172082159Y-87303225D01*
X172039267Y-87262875D01*
X172002661Y-87212930D01*
X171987197Y-87183351D01*
X171967908Y-87126816D01*
X171958047Y-87067969D01*
X171955543Y-87014824D01*
X171960041Y-86953515D01*
X171973534Y-86895544D01*
X171996023Y-86840913D01*
X172012403Y-86812004D01*
X172048166Y-86763841D01*
X172091486Y-86721566D01*
X172142365Y-86685180D01*
X172173896Y-86667510D01*
X172227734Y-86643916D01*
X172284319Y-86627064D01*
X172343651Y-86616952D01*
X172405732Y-86613581D01*
X172466422Y-86615671D01*
X172529059Y-86621939D01*
X172587096Y-86631153D01*
X172606793Y-86634977D01*
X172665031Y-86648310D01*
X172727129Y-86666171D01*
X172786480Y-86687237D01*
X172803750Y-86694181D01*
X172803750Y-86987566D01*
X172767407Y-86987566D01*
X172715039Y-86956163D01*
X172661909Y-86931272D01*
X172612947Y-86914293D01*
X172551343Y-86900362D01*
X172490528Y-86893240D01*
X172437679Y-86891432D01*
X172376879Y-86896392D01*
X172346234Y-86905500D01*
X172313994Y-86955912D01*
X172326011Y-86992842D01*
X172372612Y-87022151D01*
X172430718Y-87045085D01*
X172490922Y-87066935D01*
X172535864Y-87082821D01*
X172592962Y-87104253D01*
X172649008Y-87129503D01*
X172701112Y-87158972D01*
X172723150Y-87174265D01*
X172768968Y-87213874D01*
X172806626Y-87258840D01*
X172827197Y-87291795D01*
X172850058Y-87346296D01*
X172862368Y-87407804D01*
X172864713Y-87452702D01*
G37*
G36*
X173591287Y-87851600D02*
G01*
X172940331Y-87851600D01*
X172940331Y-87533302D01*
X173068705Y-87533302D01*
X173068705Y-86950636D01*
X172940331Y-86950636D01*
X172940331Y-86632339D01*
X173591287Y-86632339D01*
X173591287Y-86950636D01*
X173462033Y-86950636D01*
X173462033Y-87533302D01*
X173591287Y-87533302D01*
X173591287Y-87851600D01*
G37*
G36*
X174667518Y-87768948D02*
G01*
X174613478Y-87797649D01*
X174573436Y-87812618D01*
X174517162Y-87830108D01*
X174455613Y-87845206D01*
X174411649Y-87853944D01*
X174350419Y-87863289D01*
X174290850Y-87868755D01*
X174238139Y-87870357D01*
X174174492Y-87867668D01*
X174114120Y-87859600D01*
X174057026Y-87846153D01*
X173994557Y-87823667D01*
X173936548Y-87793860D01*
X173883773Y-87757109D01*
X173836747Y-87714047D01*
X173795472Y-87664673D01*
X173759947Y-87608989D01*
X173742229Y-87574335D01*
X173719419Y-87519030D01*
X173701329Y-87460387D01*
X173687958Y-87398405D01*
X173679306Y-87333084D01*
X173675373Y-87264425D01*
X173675111Y-87240797D01*
X173677615Y-87173612D01*
X173685126Y-87109002D01*
X173697646Y-87046969D01*
X173715173Y-86987511D01*
X173737708Y-86930630D01*
X173746332Y-86912242D01*
X173774915Y-86859859D01*
X173813003Y-86804972D01*
X173856195Y-86756789D01*
X173904493Y-86715309D01*
X173942117Y-86689785D01*
X173998184Y-86660092D01*
X174057394Y-86637693D01*
X174119744Y-86622586D01*
X174185236Y-86614772D01*
X174224071Y-86613581D01*
X174283674Y-86615390D01*
X174347399Y-86621641D01*
X174408490Y-86632357D01*
X174426304Y-86636442D01*
X174485174Y-86653679D01*
X174543815Y-86676811D01*
X174602228Y-86705840D01*
X174613883Y-86712353D01*
X174613883Y-87021858D01*
X174576660Y-87021858D01*
X174521320Y-86986112D01*
X174462754Y-86959146D01*
X174400962Y-86940960D01*
X174335945Y-86931553D01*
X174297344Y-86930120D01*
X174235629Y-86937590D01*
X174180899Y-86963065D01*
X174139954Y-87006617D01*
X174113833Y-87062087D01*
X174098596Y-87125420D01*
X174091631Y-87192383D01*
X174090421Y-87239332D01*
X174091264Y-87300056D01*
X174094226Y-87359044D01*
X174100744Y-87417728D01*
X174103903Y-87435410D01*
X174121636Y-87492709D01*
X174147281Y-87531544D01*
X174200590Y-87558255D01*
X174233157Y-87561146D01*
X174274190Y-87559094D01*
X174323722Y-87542974D01*
X174323722Y-87425738D01*
X174205020Y-87425738D01*
X174205020Y-87138801D01*
X174667518Y-87138801D01*
X174667518Y-87768948D01*
G37*
G36*
X175739354Y-87851600D02*
G01*
X175378265Y-87851600D01*
X175142326Y-87313484D01*
X175142326Y-87851600D01*
X174797065Y-87851600D01*
X174797065Y-86632339D01*
X175174566Y-86632339D01*
X175392920Y-87152283D01*
X175392920Y-86632339D01*
X175739354Y-86632339D01*
X175739354Y-87851600D01*
G37*
G36*
X176687797Y-87851600D02*
G01*
X175901433Y-87851600D01*
X175901433Y-86632339D01*
X176687797Y-86632339D01*
X176687797Y-86950636D01*
X176279814Y-86950636D01*
X176279814Y-87063770D01*
X176659661Y-87063770D01*
X176659661Y-87378550D01*
X176279814Y-87378550D01*
X176279814Y-87533302D01*
X176687797Y-87533302D01*
X176687797Y-87851600D01*
G37*
G36*
X177203986Y-86634661D02*
G01*
X177273760Y-86641627D01*
X177338515Y-86653236D01*
X177398251Y-86669489D01*
X177465862Y-86696335D01*
X177525631Y-86730437D01*
X177577558Y-86771794D01*
X177587002Y-86780937D01*
X177629895Y-86831402D01*
X177665518Y-86889924D01*
X177693871Y-86956504D01*
X177711320Y-87015569D01*
X177724115Y-87079790D01*
X177732257Y-87149168D01*
X177735747Y-87223702D01*
X177735892Y-87243142D01*
X177733999Y-87306955D01*
X177728319Y-87367346D01*
X177717191Y-87432174D01*
X177701116Y-87492533D01*
X177696325Y-87506924D01*
X177674508Y-87561347D01*
X177645103Y-87616749D01*
X177610551Y-87665984D01*
X177584657Y-87695382D01*
X177540878Y-87734614D01*
X177490654Y-87768561D01*
X177433984Y-87797221D01*
X177399716Y-87810860D01*
X177341171Y-87828683D01*
X177278377Y-87841415D01*
X177219945Y-87848377D01*
X177158260Y-87851440D01*
X177140037Y-87851600D01*
X176788914Y-87851600D01*
X176788914Y-87537406D01*
X177172278Y-87537406D01*
X177210966Y-87537406D01*
X177269034Y-87525728D01*
X177294204Y-87507510D01*
X177324841Y-87456494D01*
X177338167Y-87413135D01*
X177348035Y-87353727D01*
X177352455Y-87292125D01*
X177353408Y-87240797D01*
X177351809Y-87176289D01*
X177346066Y-87112903D01*
X177334614Y-87054776D01*
X177319996Y-87014824D01*
X177282826Y-86967540D01*
X177224823Y-86946262D01*
X177210966Y-86945654D01*
X177172278Y-86945654D01*
X177172278Y-87537406D01*
X176788914Y-87537406D01*
X176788914Y-86632339D01*
X177129193Y-86632339D01*
X177203986Y-86634661D01*
G37*
G36*
X178801490Y-86634107D02*
G01*
X178864953Y-86639409D01*
X178933684Y-86650438D01*
X178994316Y-86666556D01*
X179054817Y-86691795D01*
X179077372Y-86704733D01*
X179127765Y-86745766D01*
X179163760Y-86796763D01*
X179185358Y-86857727D01*
X179192444Y-86919244D01*
X179192557Y-86928655D01*
X179186900Y-86997489D01*
X179169929Y-87057812D01*
X179141645Y-87109624D01*
X179102046Y-87152925D01*
X179051134Y-87187714D01*
X179031649Y-87197419D01*
X179031649Y-87203867D01*
X179091287Y-87226479D01*
X179142337Y-87257677D01*
X179188575Y-87301913D01*
X179192264Y-87306449D01*
X179225637Y-87360392D01*
X179245157Y-87421468D01*
X179250882Y-87483184D01*
X179246863Y-87547092D01*
X179234808Y-87605169D01*
X179210585Y-87665554D01*
X179175422Y-87718001D01*
X179136576Y-87756638D01*
X179082053Y-87793640D01*
X179027930Y-87818122D01*
X178966985Y-87835927D01*
X178899219Y-87847055D01*
X178837537Y-87851229D01*
X178811538Y-87851600D01*
X178321196Y-87851600D01*
X178321196Y-87569646D01*
X178692250Y-87569646D01*
X178768746Y-87569646D01*
X178822774Y-87544658D01*
X178825606Y-87541216D01*
X178846815Y-87483735D01*
X178847881Y-87462960D01*
X178835846Y-87403994D01*
X178826485Y-87389394D01*
X178773784Y-87362851D01*
X178763764Y-87362430D01*
X178692250Y-87362430D01*
X178692250Y-87569646D01*
X178321196Y-87569646D01*
X178321196Y-87120043D01*
X178692250Y-87120043D01*
X178727421Y-87120043D01*
X178786726Y-87100745D01*
X178812820Y-87042850D01*
X178814176Y-87019220D01*
X178804788Y-86960077D01*
X178796004Y-86944188D01*
X178742483Y-86920152D01*
X178723317Y-86919276D01*
X178692250Y-86919276D01*
X178692250Y-87120043D01*
X178321196Y-87120043D01*
X178321196Y-86632339D01*
X178732403Y-86632339D01*
X178801490Y-86634107D01*
G37*
G36*
X180319493Y-86632339D02*
G01*
X179956646Y-87411962D01*
X179956646Y-87851600D01*
X179565076Y-87851600D01*
X179565076Y-87425151D01*
X179204866Y-86632339D01*
X179614608Y-86632339D01*
X179636133Y-86697162D01*
X179656195Y-86758419D01*
X179674794Y-86816111D01*
X179697316Y-86887488D01*
X179717237Y-86952527D01*
X179734557Y-87011227D01*
X179752549Y-87075690D01*
X179768774Y-87139974D01*
X179782821Y-87078824D01*
X179799516Y-87018696D01*
X179816444Y-86961863D01*
X179824755Y-86934810D01*
X179845323Y-86869546D01*
X179863445Y-86813204D01*
X179882019Y-86756490D01*
X179901047Y-86699406D01*
X179920529Y-86641951D01*
X179923820Y-86632339D01*
X180319493Y-86632339D01*
G37*
G36*
X181702005Y-87452702D02*
G01*
X181698653Y-87513940D01*
X181686868Y-87577884D01*
X181666597Y-87636588D01*
X181648370Y-87672814D01*
X181614029Y-87721995D01*
X181571018Y-87764684D01*
X181519335Y-87800882D01*
X181486876Y-87818187D01*
X181431134Y-87841012D01*
X181371765Y-87857315D01*
X181308768Y-87867097D01*
X181242145Y-87870357D01*
X181182661Y-87869432D01*
X181119111Y-87866107D01*
X181060287Y-87860364D01*
X180999758Y-87851013D01*
X180942429Y-87837907D01*
X180885518Y-87820349D01*
X180829024Y-87798339D01*
X180797818Y-87784188D01*
X180797818Y-87468529D01*
X180835627Y-87468529D01*
X180887111Y-87500173D01*
X180944424Y-87529894D01*
X181001852Y-87553891D01*
X181019102Y-87559974D01*
X181078167Y-87576357D01*
X181140323Y-87586672D01*
X181198907Y-87590768D01*
X181218991Y-87591041D01*
X181280104Y-87586683D01*
X181309556Y-87577266D01*
X181334469Y-87532130D01*
X181317763Y-87490804D01*
X181266824Y-87460767D01*
X181255920Y-87455926D01*
X181199952Y-87433330D01*
X181141555Y-87411439D01*
X181103513Y-87397601D01*
X181046616Y-87375106D01*
X180991279Y-87348924D01*
X180940560Y-87318744D01*
X180919451Y-87303225D01*
X180876559Y-87262875D01*
X180839953Y-87212930D01*
X180824490Y-87183351D01*
X180805201Y-87126816D01*
X180795340Y-87067969D01*
X180792836Y-87014824D01*
X180797333Y-86953515D01*
X180810827Y-86895544D01*
X180833315Y-86840913D01*
X180849696Y-86812004D01*
X180885458Y-86763841D01*
X180928779Y-86721566D01*
X180979657Y-86685180D01*
X181011189Y-86667510D01*
X181065026Y-86643916D01*
X181121611Y-86627064D01*
X181180944Y-86616952D01*
X181243024Y-86613581D01*
X181303715Y-86615671D01*
X181366352Y-86621939D01*
X181424389Y-86631153D01*
X181444085Y-86634977D01*
X181502323Y-86648310D01*
X181564422Y-86666171D01*
X181623773Y-86687237D01*
X181641042Y-86694181D01*
X181641042Y-86987566D01*
X181604699Y-86987566D01*
X181552331Y-86956163D01*
X181499201Y-86931272D01*
X181450240Y-86914293D01*
X181388636Y-86900362D01*
X181327820Y-86893240D01*
X181274971Y-86891432D01*
X181214172Y-86896392D01*
X181183527Y-86905500D01*
X181151287Y-86955912D01*
X181163303Y-86992842D01*
X181209905Y-87022151D01*
X181268010Y-87045085D01*
X181328214Y-87066935D01*
X181373157Y-87082821D01*
X181430255Y-87104253D01*
X181486301Y-87129503D01*
X181538405Y-87158972D01*
X181560442Y-87174265D01*
X181606261Y-87213874D01*
X181643918Y-87258840D01*
X181664490Y-87291795D01*
X181687351Y-87346296D01*
X181699661Y-87407804D01*
X181702005Y-87452702D01*
G37*
G36*
X182428579Y-87851600D02*
G01*
X181777623Y-87851600D01*
X181777623Y-87533302D01*
X181905997Y-87533302D01*
X181905997Y-86950636D01*
X181777623Y-86950636D01*
X181777623Y-86632339D01*
X182428579Y-86632339D01*
X182428579Y-86950636D01*
X182299326Y-86950636D01*
X182299326Y-87533302D01*
X182428579Y-87533302D01*
X182428579Y-87851600D01*
G37*
G36*
X183402522Y-86951223D02*
G01*
X183141377Y-86951223D01*
X183141377Y-87851600D01*
X182750393Y-87851600D01*
X182750393Y-86951223D01*
X182488370Y-86951223D01*
X182488370Y-86632339D01*
X183402522Y-86632339D01*
X183402522Y-86951223D01*
G37*
G36*
X184280037Y-87851600D02*
G01*
X183493673Y-87851600D01*
X183493673Y-86632339D01*
X184280037Y-86632339D01*
X184280037Y-86950636D01*
X183872054Y-86950636D01*
X183872054Y-87063770D01*
X184251901Y-87063770D01*
X184251901Y-87378550D01*
X183872054Y-87378550D01*
X183872054Y-87533302D01*
X184280037Y-87533302D01*
X184280037Y-87851600D01*
G37*
G36*
X184888202Y-87870357D02*
G01*
X184823479Y-87867689D01*
X184762301Y-87859682D01*
X184704667Y-87846339D01*
X184641908Y-87824025D01*
X184583973Y-87794447D01*
X184531578Y-87758150D01*
X184485438Y-87715683D01*
X184445554Y-87667045D01*
X184411924Y-87612235D01*
X184395515Y-87578145D01*
X184371647Y-87514214D01*
X184355855Y-87455419D01*
X184344369Y-87392936D01*
X184337191Y-87326764D01*
X184334319Y-87256902D01*
X184334259Y-87244900D01*
X184335748Y-87185675D01*
X184341463Y-87118081D01*
X184351465Y-87054279D01*
X184365753Y-86994268D01*
X184384328Y-86938050D01*
X184395222Y-86911362D01*
X184424965Y-86853001D01*
X184460851Y-86800502D01*
X184502879Y-86753865D01*
X184551051Y-86713090D01*
X184581335Y-86692423D01*
X184638068Y-86661702D01*
X184698503Y-86638527D01*
X184762641Y-86622898D01*
X184830481Y-86614813D01*
X184870910Y-86613581D01*
X184930248Y-86616213D01*
X184989379Y-86624110D01*
X185042954Y-86635856D01*
X185101303Y-86653538D01*
X185157197Y-86679002D01*
X185171622Y-86688320D01*
X185171622Y-87030650D01*
X185139381Y-87030650D01*
X185097482Y-86986508D01*
X185053506Y-86958550D01*
X184995546Y-86938880D01*
X184948286Y-86934223D01*
X184880754Y-86945115D01*
X184827193Y-86977789D01*
X184787605Y-87032245D01*
X184765289Y-87094265D01*
X184754421Y-87154773D01*
X184749764Y-87224961D01*
X184749570Y-87244021D01*
X184752193Y-87307237D01*
X184761613Y-87370691D01*
X184780399Y-87430867D01*
X184804378Y-87474391D01*
X184848258Y-87518611D01*
X184904536Y-87544475D01*
X184966458Y-87552060D01*
X185027860Y-87546997D01*
X185065229Y-87537699D01*
X185118634Y-87508240D01*
X185143485Y-87484649D01*
X185171622Y-87484649D01*
X185171622Y-87798257D01*
X185117473Y-87826174D01*
X185061500Y-87845511D01*
X185047058Y-87849548D01*
X184988036Y-87862229D01*
X184928356Y-87869057D01*
X184888202Y-87870357D01*
G37*
G36*
X186244629Y-87851600D02*
G01*
X185853938Y-87851600D01*
X185853938Y-87382653D01*
X185675739Y-87382653D01*
X185675739Y-87851600D01*
X185285048Y-87851600D01*
X185285048Y-86632339D01*
X185675739Y-86632339D01*
X185675739Y-87046184D01*
X185853938Y-87046184D01*
X185853938Y-86632339D01*
X186244629Y-86632339D01*
X186244629Y-87851600D01*
G37*
G36*
X185613349Y-68089903D02*
G01*
X184837390Y-68089903D01*
X184837390Y-67688002D01*
X185613349Y-67688002D01*
X185613349Y-68089903D01*
G37*
G36*
X186780586Y-67054924D02*
G01*
X186417152Y-68579000D01*
X185921461Y-68579000D01*
X185554364Y-67054924D01*
X186034668Y-67054924D01*
X186172787Y-67953616D01*
X186317135Y-67054924D01*
X186780586Y-67054924D01*
G37*
G36*
X187961378Y-68579000D02*
G01*
X186813558Y-68579000D01*
X186813558Y-68240845D01*
X186878044Y-68189554D01*
X186939061Y-68139179D01*
X186996609Y-68089720D01*
X187063665Y-68029184D01*
X187125302Y-67970079D01*
X187181517Y-67912405D01*
X187232313Y-67856163D01*
X187284730Y-67792098D01*
X187332177Y-67724192D01*
X187368327Y-67655602D01*
X187386402Y-67583388D01*
X187386552Y-67576993D01*
X187373064Y-67503964D01*
X187321269Y-67452032D01*
X187248433Y-67438508D01*
X187174811Y-67441637D01*
X187124602Y-67448399D01*
X187051118Y-67467161D01*
X187024218Y-67476976D01*
X186954194Y-67510917D01*
X186889762Y-67547684D01*
X186849829Y-67547684D01*
X186849829Y-67130395D01*
X186923159Y-67098779D01*
X186993870Y-67076604D01*
X187073311Y-67058221D01*
X187147722Y-67045293D01*
X187228021Y-67035891D01*
X187305816Y-67031712D01*
X187328667Y-67031477D01*
X187413258Y-67034420D01*
X187491176Y-67043248D01*
X187575871Y-67061610D01*
X187650957Y-67088448D01*
X187716435Y-67123761D01*
X187754748Y-67152011D01*
X187811279Y-67210302D01*
X187853924Y-67279707D01*
X187882685Y-67360228D01*
X187896287Y-67438091D01*
X187899829Y-67509216D01*
X187892512Y-67586790D01*
X187873164Y-67659490D01*
X187841722Y-67734265D01*
X187837913Y-67741857D01*
X187798072Y-67810186D01*
X187754240Y-67871116D01*
X187702485Y-67932231D01*
X187650701Y-67985856D01*
X187594764Y-68037673D01*
X187536268Y-68086054D01*
X187475212Y-68130998D01*
X187411597Y-68172507D01*
X187374096Y-68194683D01*
X187961378Y-68194683D01*
X187961378Y-68579000D01*
G37*
G36*
X185613349Y-74566903D02*
G01*
X184837390Y-74566903D01*
X184837390Y-74165002D01*
X185613349Y-74165002D01*
X185613349Y-74566903D01*
G37*
G36*
X186780586Y-73531924D02*
G01*
X186417152Y-75056000D01*
X185921461Y-75056000D01*
X185554364Y-73531924D01*
X186034668Y-73531924D01*
X186172787Y-74430616D01*
X186317135Y-73531924D01*
X186780586Y-73531924D01*
G37*
G36*
X187940861Y-75056000D02*
G01*
X186852759Y-75056000D01*
X186852759Y-74666554D01*
X187178457Y-74666554D01*
X187178457Y-74071212D01*
X186852759Y-74071212D01*
X186852759Y-73716572D01*
X186935040Y-73714591D01*
X187015080Y-73707475D01*
X187087278Y-73693285D01*
X187135593Y-73675173D01*
X187192884Y-73627197D01*
X187221144Y-73556362D01*
X187223886Y-73531924D01*
X187655464Y-73531924D01*
X187655464Y-74666554D01*
X187940861Y-74666554D01*
X187940861Y-75056000D01*
G37*
G36*
X186040163Y-80785873D02*
G01*
X185634232Y-80785873D01*
X185634232Y-81255552D01*
X185230132Y-81255552D01*
X185230132Y-80785873D01*
X184824200Y-80785873D01*
X184824200Y-80388002D01*
X185230132Y-80388002D01*
X185230132Y-79919422D01*
X185634232Y-79919422D01*
X185634232Y-80388002D01*
X186040163Y-80388002D01*
X186040163Y-80785873D01*
G37*
G36*
X187272979Y-79754924D02*
G01*
X186909546Y-81279000D01*
X186413855Y-81279000D01*
X186046758Y-79754924D01*
X186527062Y-79754924D01*
X186665181Y-80653616D01*
X186809528Y-79754924D01*
X187272979Y-79754924D01*
G37*
G36*
X111459007Y-66642400D02*
G01*
X111007646Y-66642400D01*
X110712723Y-65969755D01*
X110712723Y-66642400D01*
X110281146Y-66642400D01*
X110281146Y-65118324D01*
X110753023Y-65118324D01*
X111025965Y-65768254D01*
X111025965Y-65118324D01*
X111459007Y-65118324D01*
X111459007Y-66642400D01*
G37*
G36*
X111482198Y-87597400D02*
G01*
X110535146Y-87597400D01*
X110535146Y-86073324D01*
X111023510Y-86073324D01*
X111023510Y-87193300D01*
X111482198Y-87193300D01*
X111482198Y-87597400D01*
G37*
G36*
X111495800Y-78410134D02*
G01*
X111495800Y-79557953D01*
X111157645Y-79557953D01*
X111106354Y-79493467D01*
X111055979Y-79432450D01*
X111006520Y-79374903D01*
X110945984Y-79307846D01*
X110886879Y-79246210D01*
X110829205Y-79189994D01*
X110772963Y-79139199D01*
X110708898Y-79086781D01*
X110640992Y-79039335D01*
X110572402Y-79003185D01*
X110500188Y-78985110D01*
X110493793Y-78984959D01*
X110420764Y-78998448D01*
X110368832Y-79050242D01*
X110355308Y-79123079D01*
X110358437Y-79196701D01*
X110365199Y-79246910D01*
X110383961Y-79320394D01*
X110393776Y-79347294D01*
X110427717Y-79417317D01*
X110464484Y-79481749D01*
X110464484Y-79521683D01*
X110047195Y-79521683D01*
X110015579Y-79448353D01*
X109993404Y-79377642D01*
X109975021Y-79298201D01*
X109962093Y-79223790D01*
X109952691Y-79143490D01*
X109948512Y-79065695D01*
X109948277Y-79042845D01*
X109951220Y-78958254D01*
X109960048Y-78880335D01*
X109978410Y-78795641D01*
X110005248Y-78720554D01*
X110040561Y-78655077D01*
X110068811Y-78616763D01*
X110127102Y-78560233D01*
X110196507Y-78517587D01*
X110277028Y-78488826D01*
X110354891Y-78475225D01*
X110426016Y-78471683D01*
X110503590Y-78478999D01*
X110576290Y-78498348D01*
X110651065Y-78529789D01*
X110658657Y-78533599D01*
X110726986Y-78573440D01*
X110787916Y-78617272D01*
X110849031Y-78669026D01*
X110902656Y-78720811D01*
X110954473Y-78776747D01*
X111002854Y-78835244D01*
X111047798Y-78896300D01*
X111089307Y-78959915D01*
X111111483Y-78997416D01*
X111111483Y-78410134D01*
X111495800Y-78410134D01*
G37*
G36*
X111495800Y-77142513D02*
G01*
X111495800Y-78290333D01*
X111157645Y-78290333D01*
X111106354Y-78225847D01*
X111055979Y-78164830D01*
X111006520Y-78107282D01*
X110945984Y-78040226D01*
X110886879Y-77978590D01*
X110829205Y-77922374D01*
X110772963Y-77871578D01*
X110708898Y-77819161D01*
X110640992Y-77771714D01*
X110572402Y-77735564D01*
X110500188Y-77717490D01*
X110493793Y-77717339D01*
X110420764Y-77730827D01*
X110368832Y-77782622D01*
X110355308Y-77855458D01*
X110358437Y-77929080D01*
X110365199Y-77979289D01*
X110383961Y-78052773D01*
X110393776Y-78079673D01*
X110427717Y-78149697D01*
X110464484Y-78214129D01*
X110464484Y-78254063D01*
X110047195Y-78254063D01*
X110015579Y-78180732D01*
X109993404Y-78110021D01*
X109975021Y-78030580D01*
X109962093Y-77956169D01*
X109952691Y-77875870D01*
X109948512Y-77798075D01*
X109948277Y-77775224D01*
X109951220Y-77690633D01*
X109960048Y-77612715D01*
X109978410Y-77528020D01*
X110005248Y-77452934D01*
X110040561Y-77387457D01*
X110068811Y-77349143D01*
X110127102Y-77292613D01*
X110196507Y-77249967D01*
X110277028Y-77221206D01*
X110354891Y-77207605D01*
X110426016Y-77204063D01*
X110503590Y-77211379D01*
X110576290Y-77230727D01*
X110651065Y-77262169D01*
X110658657Y-77265978D01*
X110726986Y-77305819D01*
X110787916Y-77349651D01*
X110849031Y-77401406D01*
X110902656Y-77453190D01*
X110954473Y-77509127D01*
X111002854Y-77567623D01*
X111047798Y-77628679D01*
X111089307Y-77692294D01*
X111111483Y-77729795D01*
X111111483Y-77142513D01*
X111495800Y-77142513D01*
G37*
G36*
X110827913Y-75858527D02*
G01*
X110917018Y-75865482D01*
X110999978Y-75877074D01*
X111076793Y-75893303D01*
X111147463Y-75914168D01*
X111241945Y-75954161D01*
X111322601Y-76004586D01*
X111389430Y-76065444D01*
X111442432Y-76136735D01*
X111481608Y-76218458D01*
X111506956Y-76310615D01*
X111518479Y-76413204D01*
X111519247Y-76449719D01*
X111514649Y-76539456D01*
X111500857Y-76621824D01*
X111477870Y-76696821D01*
X111445688Y-76764448D01*
X111394932Y-76835872D01*
X111342521Y-76887285D01*
X111330936Y-76896683D01*
X111266607Y-76939217D01*
X111191545Y-76974543D01*
X111105750Y-77002658D01*
X111029386Y-77019961D01*
X110946153Y-77032649D01*
X110856050Y-77040723D01*
X110759078Y-77044184D01*
X110733762Y-77044328D01*
X110659615Y-77043037D01*
X110566653Y-77037298D01*
X110480434Y-77026968D01*
X110400959Y-77012047D01*
X110328227Y-76992536D01*
X110246795Y-76961690D01*
X110175900Y-76923670D01*
X110138420Y-76897416D01*
X110083642Y-76847749D01*
X110030165Y-76778231D01*
X109995813Y-76712035D01*
X109970745Y-76638326D01*
X109954962Y-76557103D01*
X109948463Y-76468367D01*
X109948288Y-76450818D01*
X110335890Y-76450818D01*
X110356407Y-76522625D01*
X110420912Y-76558405D01*
X110423818Y-76559261D01*
X110496318Y-76573029D01*
X110553144Y-76578679D01*
X110629720Y-76582686D01*
X110709366Y-76584397D01*
X110742188Y-76584541D01*
X110822817Y-76583526D01*
X110900440Y-76580020D01*
X110976965Y-76572507D01*
X110982523Y-76571718D01*
X111058177Y-76555781D01*
X111109285Y-76533616D01*
X111147172Y-76468005D01*
X111148120Y-76450818D01*
X111120473Y-76381671D01*
X111109285Y-76372416D01*
X111040130Y-76341230D01*
X110998277Y-76331749D01*
X110920654Y-76323447D01*
X110845026Y-76320179D01*
X110762766Y-76318977D01*
X110739990Y-76318927D01*
X110665019Y-76319651D01*
X110586375Y-76322504D01*
X110516874Y-76328086D01*
X110442142Y-76340092D01*
X110395608Y-76354464D01*
X110345782Y-76395497D01*
X110335890Y-76450818D01*
X109948288Y-76450818D01*
X109948277Y-76449719D01*
X109952892Y-76360306D01*
X109966738Y-76278229D01*
X109989815Y-76203485D01*
X110022122Y-76136076D01*
X110073075Y-76064867D01*
X110125690Y-76013594D01*
X110137321Y-76004220D01*
X110201701Y-75961580D01*
X110276689Y-75926167D01*
X110362286Y-75897981D01*
X110438401Y-75880636D01*
X110521305Y-75867916D01*
X110610999Y-75859822D01*
X110707481Y-75856353D01*
X110732663Y-75856208D01*
X110827913Y-75858527D01*
G37*
G36*
X109971724Y-74618630D02*
G01*
X111495800Y-74982063D01*
X111495800Y-75477754D01*
X109971724Y-75844851D01*
X109971724Y-75364548D01*
X110870416Y-75226428D01*
X109971724Y-75082081D01*
X109971724Y-74618630D01*
G37*
G36*
X111495800Y-73911547D02*
G01*
X111308221Y-73949649D01*
X111308221Y-74200975D01*
X111495800Y-74236146D01*
X111495800Y-74737698D01*
X109971724Y-74299893D01*
X109971724Y-74069084D01*
X110631913Y-74069084D01*
X110713370Y-74080571D01*
X110795212Y-74094198D01*
X110877441Y-74109964D01*
X110960055Y-74127868D01*
X111007436Y-74139059D01*
X111007436Y-74007168D01*
X110930942Y-74022517D01*
X110857255Y-74036139D01*
X110774836Y-74049851D01*
X110696240Y-74061214D01*
X110631913Y-74069084D01*
X109971724Y-74069084D01*
X109971724Y-73832046D01*
X111495800Y-73395340D01*
X111495800Y-73911547D01*
G37*
G36*
X111519247Y-72730388D02*
G01*
X111515911Y-72811292D01*
X111505903Y-72887765D01*
X111489224Y-72959807D01*
X111461332Y-73038256D01*
X111424358Y-73110675D01*
X111378988Y-73176168D01*
X111325904Y-73233843D01*
X111265106Y-73283699D01*
X111196594Y-73325736D01*
X111153982Y-73346247D01*
X111074067Y-73376082D01*
X111000574Y-73395823D01*
X110922470Y-73410180D01*
X110839755Y-73419153D01*
X110752428Y-73422742D01*
X110737425Y-73422817D01*
X110663394Y-73420957D01*
X110578901Y-73413812D01*
X110499148Y-73401310D01*
X110424135Y-73383450D01*
X110353862Y-73360232D01*
X110320503Y-73346613D01*
X110247551Y-73309435D01*
X110181927Y-73264578D01*
X110123631Y-73212042D01*
X110072663Y-73151828D01*
X110046829Y-73113972D01*
X110008428Y-73043056D01*
X109979459Y-72967512D01*
X109959922Y-72887340D01*
X109949817Y-72802539D01*
X109948277Y-72752004D01*
X109951567Y-72677831D01*
X109961437Y-72603917D01*
X109976121Y-72536948D01*
X109998223Y-72464013D01*
X110030052Y-72394144D01*
X110041700Y-72376114D01*
X110469613Y-72376114D01*
X110469613Y-72416414D01*
X110414435Y-72468788D01*
X110379488Y-72523759D01*
X110354900Y-72596209D01*
X110349079Y-72655284D01*
X110362693Y-72739699D01*
X110403536Y-72806649D01*
X110471607Y-72856134D01*
X110549132Y-72884030D01*
X110624766Y-72897614D01*
X110712502Y-72903436D01*
X110736326Y-72903679D01*
X110815347Y-72900400D01*
X110894664Y-72888625D01*
X110969884Y-72865142D01*
X111024289Y-72835169D01*
X111079564Y-72780319D01*
X111111894Y-72709971D01*
X111121375Y-72632569D01*
X111115046Y-72555816D01*
X111103423Y-72509104D01*
X111066601Y-72442349D01*
X111037111Y-72411285D01*
X111037111Y-72376114D01*
X111429121Y-72376114D01*
X111464017Y-72443800D01*
X111488189Y-72513767D01*
X111493235Y-72531819D01*
X111509086Y-72605596D01*
X111517621Y-72680197D01*
X111519247Y-72730388D01*
G37*
D11*
X128729133Y-80972980D02*
X128681514Y-81020600D01*
X128681514Y-81020600D02*
X128538657Y-81068219D01*
X128538657Y-81068219D02*
X128443419Y-81068219D01*
X128443419Y-81068219D02*
X128300562Y-81020600D01*
X128300562Y-81020600D02*
X128205324Y-80925361D01*
X128205324Y-80925361D02*
X128157705Y-80830123D01*
X128157705Y-80830123D02*
X128110086Y-80639647D01*
X128110086Y-80639647D02*
X128110086Y-80496790D01*
X128110086Y-80496790D02*
X128157705Y-80306314D01*
X128157705Y-80306314D02*
X128205324Y-80211076D01*
X128205324Y-80211076D02*
X128300562Y-80115838D01*
X128300562Y-80115838D02*
X128443419Y-80068219D01*
X128443419Y-80068219D02*
X128538657Y-80068219D01*
X128538657Y-80068219D02*
X128681514Y-80115838D01*
X128681514Y-80115838D02*
X128729133Y-80163457D01*
X129110086Y-80163457D02*
X129157705Y-80115838D01*
X129157705Y-80115838D02*
X129252943Y-80068219D01*
X129252943Y-80068219D02*
X129491038Y-80068219D01*
X129491038Y-80068219D02*
X129586276Y-80115838D01*
X129586276Y-80115838D02*
X129633895Y-80163457D01*
X129633895Y-80163457D02*
X129681514Y-80258695D01*
X129681514Y-80258695D02*
X129681514Y-80353933D01*
X129681514Y-80353933D02*
X129633895Y-80496790D01*
X129633895Y-80496790D02*
X129062467Y-81068219D01*
X129062467Y-81068219D02*
X129681514Y-81068219D01*
X167641933Y-69441380D02*
X167594314Y-69489000D01*
X167594314Y-69489000D02*
X167451457Y-69536619D01*
X167451457Y-69536619D02*
X167356219Y-69536619D01*
X167356219Y-69536619D02*
X167213362Y-69489000D01*
X167213362Y-69489000D02*
X167118124Y-69393761D01*
X167118124Y-69393761D02*
X167070505Y-69298523D01*
X167070505Y-69298523D02*
X167022886Y-69108047D01*
X167022886Y-69108047D02*
X167022886Y-68965190D01*
X167022886Y-68965190D02*
X167070505Y-68774714D01*
X167070505Y-68774714D02*
X167118124Y-68679476D01*
X167118124Y-68679476D02*
X167213362Y-68584238D01*
X167213362Y-68584238D02*
X167356219Y-68536619D01*
X167356219Y-68536619D02*
X167451457Y-68536619D01*
X167451457Y-68536619D02*
X167594314Y-68584238D01*
X167594314Y-68584238D02*
X167641933Y-68631857D01*
X167975267Y-68536619D02*
X168594314Y-68536619D01*
X168594314Y-68536619D02*
X168260981Y-68917571D01*
X168260981Y-68917571D02*
X168403838Y-68917571D01*
X168403838Y-68917571D02*
X168499076Y-68965190D01*
X168499076Y-68965190D02*
X168546695Y-69012809D01*
X168546695Y-69012809D02*
X168594314Y-69108047D01*
X168594314Y-69108047D02*
X168594314Y-69346142D01*
X168594314Y-69346142D02*
X168546695Y-69441380D01*
X168546695Y-69441380D02*
X168499076Y-69489000D01*
X168499076Y-69489000D02*
X168403838Y-69536619D01*
X168403838Y-69536619D02*
X168118124Y-69536619D01*
X168118124Y-69536619D02*
X168022886Y-69489000D01*
X168022886Y-69489000D02*
X167975267Y-69441380D01*
X118670733Y-84449080D02*
X118623114Y-84496700D01*
X118623114Y-84496700D02*
X118480257Y-84544319D01*
X118480257Y-84544319D02*
X118385019Y-84544319D01*
X118385019Y-84544319D02*
X118242162Y-84496700D01*
X118242162Y-84496700D02*
X118146924Y-84401461D01*
X118146924Y-84401461D02*
X118099305Y-84306223D01*
X118099305Y-84306223D02*
X118051686Y-84115747D01*
X118051686Y-84115747D02*
X118051686Y-83972890D01*
X118051686Y-83972890D02*
X118099305Y-83782414D01*
X118099305Y-83782414D02*
X118146924Y-83687176D01*
X118146924Y-83687176D02*
X118242162Y-83591938D01*
X118242162Y-83591938D02*
X118385019Y-83544319D01*
X118385019Y-83544319D02*
X118480257Y-83544319D01*
X118480257Y-83544319D02*
X118623114Y-83591938D01*
X118623114Y-83591938D02*
X118670733Y-83639557D01*
X119623114Y-84544319D02*
X119051686Y-84544319D01*
X119337400Y-84544319D02*
X119337400Y-83544319D01*
X119337400Y-83544319D02*
X119242162Y-83687176D01*
X119242162Y-83687176D02*
X119146924Y-83782414D01*
X119146924Y-83782414D02*
X119051686Y-83830033D01*
X149684133Y-85919619D02*
X149350800Y-85443428D01*
X149112705Y-85919619D02*
X149112705Y-84919619D01*
X149112705Y-84919619D02*
X149493657Y-84919619D01*
X149493657Y-84919619D02*
X149588895Y-84967238D01*
X149588895Y-84967238D02*
X149636514Y-85014857D01*
X149636514Y-85014857D02*
X149684133Y-85110095D01*
X149684133Y-85110095D02*
X149684133Y-85252952D01*
X149684133Y-85252952D02*
X149636514Y-85348190D01*
X149636514Y-85348190D02*
X149588895Y-85395809D01*
X149588895Y-85395809D02*
X149493657Y-85443428D01*
X149493657Y-85443428D02*
X149112705Y-85443428D01*
X150541276Y-85252952D02*
X150541276Y-85919619D01*
X150303181Y-84872000D02*
X150065086Y-85586285D01*
X150065086Y-85586285D02*
X150684133Y-85586285D01*
X129495205Y-84187419D02*
X129495205Y-83187419D01*
X129495205Y-83187419D02*
X129733300Y-83187419D01*
X129733300Y-83187419D02*
X129876157Y-83235038D01*
X129876157Y-83235038D02*
X129971395Y-83330276D01*
X129971395Y-83330276D02*
X130019014Y-83425514D01*
X130019014Y-83425514D02*
X130066633Y-83615990D01*
X130066633Y-83615990D02*
X130066633Y-83758847D01*
X130066633Y-83758847D02*
X130019014Y-83949323D01*
X130019014Y-83949323D02*
X129971395Y-84044561D01*
X129971395Y-84044561D02*
X129876157Y-84139800D01*
X129876157Y-84139800D02*
X129733300Y-84187419D01*
X129733300Y-84187419D02*
X129495205Y-84187419D01*
X130399967Y-83187419D02*
X131019014Y-83187419D01*
X131019014Y-83187419D02*
X130685681Y-83568371D01*
X130685681Y-83568371D02*
X130828538Y-83568371D01*
X130828538Y-83568371D02*
X130923776Y-83615990D01*
X130923776Y-83615990D02*
X130971395Y-83663609D01*
X130971395Y-83663609D02*
X131019014Y-83758847D01*
X131019014Y-83758847D02*
X131019014Y-83996942D01*
X131019014Y-83996942D02*
X130971395Y-84092180D01*
X130971395Y-84092180D02*
X130923776Y-84139800D01*
X130923776Y-84139800D02*
X130828538Y-84187419D01*
X130828538Y-84187419D02*
X130542824Y-84187419D01*
X130542824Y-84187419D02*
X130447586Y-84139800D01*
X130447586Y-84139800D02*
X130399967Y-84092180D01*
X130507133Y-70197019D02*
X130173800Y-69720828D01*
X129935705Y-70197019D02*
X129935705Y-69197019D01*
X129935705Y-69197019D02*
X130316657Y-69197019D01*
X130316657Y-69197019D02*
X130411895Y-69244638D01*
X130411895Y-69244638D02*
X130459514Y-69292257D01*
X130459514Y-69292257D02*
X130507133Y-69387495D01*
X130507133Y-69387495D02*
X130507133Y-69530352D01*
X130507133Y-69530352D02*
X130459514Y-69625590D01*
X130459514Y-69625590D02*
X130411895Y-69673209D01*
X130411895Y-69673209D02*
X130316657Y-69720828D01*
X130316657Y-69720828D02*
X129935705Y-69720828D01*
X130888086Y-69292257D02*
X130935705Y-69244638D01*
X130935705Y-69244638D02*
X131030943Y-69197019D01*
X131030943Y-69197019D02*
X131269038Y-69197019D01*
X131269038Y-69197019D02*
X131364276Y-69244638D01*
X131364276Y-69244638D02*
X131411895Y-69292257D01*
X131411895Y-69292257D02*
X131459514Y-69387495D01*
X131459514Y-69387495D02*
X131459514Y-69482733D01*
X131459514Y-69482733D02*
X131411895Y-69625590D01*
X131411895Y-69625590D02*
X130840467Y-70197019D01*
X130840467Y-70197019D02*
X131459514Y-70197019D01*
X146794505Y-84060419D02*
X146794505Y-83060419D01*
X146794505Y-83060419D02*
X147032600Y-83060419D01*
X147032600Y-83060419D02*
X147175457Y-83108038D01*
X147175457Y-83108038D02*
X147270695Y-83203276D01*
X147270695Y-83203276D02*
X147318314Y-83298514D01*
X147318314Y-83298514D02*
X147365933Y-83488990D01*
X147365933Y-83488990D02*
X147365933Y-83631847D01*
X147365933Y-83631847D02*
X147318314Y-83822323D01*
X147318314Y-83822323D02*
X147270695Y-83917561D01*
X147270695Y-83917561D02*
X147175457Y-84012800D01*
X147175457Y-84012800D02*
X147032600Y-84060419D01*
X147032600Y-84060419D02*
X146794505Y-84060419D01*
X147746886Y-83155657D02*
X147794505Y-83108038D01*
X147794505Y-83108038D02*
X147889743Y-83060419D01*
X147889743Y-83060419D02*
X148127838Y-83060419D01*
X148127838Y-83060419D02*
X148223076Y-83108038D01*
X148223076Y-83108038D02*
X148270695Y-83155657D01*
X148270695Y-83155657D02*
X148318314Y-83250895D01*
X148318314Y-83250895D02*
X148318314Y-83346133D01*
X148318314Y-83346133D02*
X148270695Y-83488990D01*
X148270695Y-83488990D02*
X147699267Y-84060419D01*
X147699267Y-84060419D02*
X148318314Y-84060419D01*
X156999333Y-68677819D02*
X156666000Y-68201628D01*
X156427905Y-68677819D02*
X156427905Y-67677819D01*
X156427905Y-67677819D02*
X156808857Y-67677819D01*
X156808857Y-67677819D02*
X156904095Y-67725438D01*
X156904095Y-67725438D02*
X156951714Y-67773057D01*
X156951714Y-67773057D02*
X156999333Y-67868295D01*
X156999333Y-67868295D02*
X156999333Y-68011152D01*
X156999333Y-68011152D02*
X156951714Y-68106390D01*
X156951714Y-68106390D02*
X156904095Y-68154009D01*
X156904095Y-68154009D02*
X156808857Y-68201628D01*
X156808857Y-68201628D02*
X156427905Y-68201628D01*
X157332667Y-67677819D02*
X157951714Y-67677819D01*
X157951714Y-67677819D02*
X157618381Y-68058771D01*
X157618381Y-68058771D02*
X157761238Y-68058771D01*
X157761238Y-68058771D02*
X157856476Y-68106390D01*
X157856476Y-68106390D02*
X157904095Y-68154009D01*
X157904095Y-68154009D02*
X157951714Y-68249247D01*
X157951714Y-68249247D02*
X157951714Y-68487342D01*
X157951714Y-68487342D02*
X157904095Y-68582580D01*
X157904095Y-68582580D02*
X157856476Y-68630200D01*
X157856476Y-68630200D02*
X157761238Y-68677819D01*
X157761238Y-68677819D02*
X157475524Y-68677819D01*
X157475524Y-68677819D02*
X157380286Y-68630200D01*
X157380286Y-68630200D02*
X157332667Y-68582580D01*
X158497933Y-85945019D02*
X158164600Y-85468828D01*
X157926505Y-85945019D02*
X157926505Y-84945019D01*
X157926505Y-84945019D02*
X158307457Y-84945019D01*
X158307457Y-84945019D02*
X158402695Y-84992638D01*
X158402695Y-84992638D02*
X158450314Y-85040257D01*
X158450314Y-85040257D02*
X158497933Y-85135495D01*
X158497933Y-85135495D02*
X158497933Y-85278352D01*
X158497933Y-85278352D02*
X158450314Y-85373590D01*
X158450314Y-85373590D02*
X158402695Y-85421209D01*
X158402695Y-85421209D02*
X158307457Y-85468828D01*
X158307457Y-85468828D02*
X157926505Y-85468828D01*
X159402695Y-84945019D02*
X158926505Y-84945019D01*
X158926505Y-84945019D02*
X158878886Y-85421209D01*
X158878886Y-85421209D02*
X158926505Y-85373590D01*
X158926505Y-85373590D02*
X159021743Y-85325971D01*
X159021743Y-85325971D02*
X159259838Y-85325971D01*
X159259838Y-85325971D02*
X159355076Y-85373590D01*
X159355076Y-85373590D02*
X159402695Y-85421209D01*
X159402695Y-85421209D02*
X159450314Y-85516447D01*
X159450314Y-85516447D02*
X159450314Y-85754542D01*
X159450314Y-85754542D02*
X159402695Y-85849780D01*
X159402695Y-85849780D02*
X159355076Y-85897400D01*
X159355076Y-85897400D02*
X159259838Y-85945019D01*
X159259838Y-85945019D02*
X159021743Y-85945019D01*
X159021743Y-85945019D02*
X158926505Y-85897400D01*
X158926505Y-85897400D02*
X158878886Y-85849780D01*
X115202066Y-66748509D02*
X114868733Y-66748509D01*
X114868733Y-67272319D02*
X114868733Y-66272319D01*
X114868733Y-66272319D02*
X115344923Y-66272319D01*
X116249685Y-67272319D02*
X115678257Y-67272319D01*
X115963971Y-67272319D02*
X115963971Y-66272319D01*
X115963971Y-66272319D02*
X115868733Y-66415176D01*
X115868733Y-66415176D02*
X115773495Y-66510414D01*
X115773495Y-66510414D02*
X115678257Y-66558033D01*
X178248095Y-79509419D02*
X178248095Y-80318942D01*
X178248095Y-80318942D02*
X178295714Y-80414180D01*
X178295714Y-80414180D02*
X178343333Y-80461800D01*
X178343333Y-80461800D02*
X178438571Y-80509419D01*
X178438571Y-80509419D02*
X178629047Y-80509419D01*
X178629047Y-80509419D02*
X178724285Y-80461800D01*
X178724285Y-80461800D02*
X178771904Y-80414180D01*
X178771904Y-80414180D02*
X178819523Y-80318942D01*
X178819523Y-80318942D02*
X178819523Y-79509419D01*
X179248095Y-79604657D02*
X179295714Y-79557038D01*
X179295714Y-79557038D02*
X179390952Y-79509419D01*
X179390952Y-79509419D02*
X179629047Y-79509419D01*
X179629047Y-79509419D02*
X179724285Y-79557038D01*
X179724285Y-79557038D02*
X179771904Y-79604657D01*
X179771904Y-79604657D02*
X179819523Y-79699895D01*
X179819523Y-79699895D02*
X179819523Y-79795133D01*
X179819523Y-79795133D02*
X179771904Y-79937990D01*
X179771904Y-79937990D02*
X179200476Y-80509419D01*
X179200476Y-80509419D02*
X179819523Y-80509419D01*
X146459495Y-72700619D02*
X146459495Y-73510142D01*
X146459495Y-73510142D02*
X146507114Y-73605380D01*
X146507114Y-73605380D02*
X146554733Y-73653000D01*
X146554733Y-73653000D02*
X146649971Y-73700619D01*
X146649971Y-73700619D02*
X146840447Y-73700619D01*
X146840447Y-73700619D02*
X146935685Y-73653000D01*
X146935685Y-73653000D02*
X146983304Y-73605380D01*
X146983304Y-73605380D02*
X147030923Y-73510142D01*
X147030923Y-73510142D02*
X147030923Y-72700619D01*
X148030923Y-73700619D02*
X147459495Y-73700619D01*
X147745209Y-73700619D02*
X147745209Y-72700619D01*
X147745209Y-72700619D02*
X147649971Y-72843476D01*
X147649971Y-72843476D02*
X147554733Y-72938714D01*
X147554733Y-72938714D02*
X147459495Y-72986333D01*
X145418733Y-70183019D02*
X145085400Y-69706828D01*
X144847305Y-70183019D02*
X144847305Y-69183019D01*
X144847305Y-69183019D02*
X145228257Y-69183019D01*
X145228257Y-69183019D02*
X145323495Y-69230638D01*
X145323495Y-69230638D02*
X145371114Y-69278257D01*
X145371114Y-69278257D02*
X145418733Y-69373495D01*
X145418733Y-69373495D02*
X145418733Y-69516352D01*
X145418733Y-69516352D02*
X145371114Y-69611590D01*
X145371114Y-69611590D02*
X145323495Y-69659209D01*
X145323495Y-69659209D02*
X145228257Y-69706828D01*
X145228257Y-69706828D02*
X144847305Y-69706828D01*
X146371114Y-70183019D02*
X145799686Y-70183019D01*
X146085400Y-70183019D02*
X146085400Y-69183019D01*
X146085400Y-69183019D02*
X145990162Y-69325876D01*
X145990162Y-69325876D02*
X145894924Y-69421114D01*
X145894924Y-69421114D02*
X145799686Y-69468733D01*
X119686805Y-73106019D02*
X119686805Y-72106019D01*
X119686805Y-72106019D02*
X119924900Y-72106019D01*
X119924900Y-72106019D02*
X120067757Y-72153638D01*
X120067757Y-72153638D02*
X120162995Y-72248876D01*
X120162995Y-72248876D02*
X120210614Y-72344114D01*
X120210614Y-72344114D02*
X120258233Y-72534590D01*
X120258233Y-72534590D02*
X120258233Y-72677447D01*
X120258233Y-72677447D02*
X120210614Y-72867923D01*
X120210614Y-72867923D02*
X120162995Y-72963161D01*
X120162995Y-72963161D02*
X120067757Y-73058400D01*
X120067757Y-73058400D02*
X119924900Y-73106019D01*
X119924900Y-73106019D02*
X119686805Y-73106019D01*
X121210614Y-73106019D02*
X120639186Y-73106019D01*
X120924900Y-73106019D02*
X120924900Y-72106019D01*
X120924900Y-72106019D02*
X120829662Y-72248876D01*
X120829662Y-72248876D02*
X120734424Y-72344114D01*
X120734424Y-72344114D02*
X120639186Y-72391733D01*
D13*
X137206800Y-76216600D02*
G75*
G02*
X128966800Y-76216600I-4120000J0D01*
G01*
X128966800Y-76216600D02*
G75*
G02*
X137206800Y-76216600I4120000J0D01*
G01*
X174204000Y-76605000D02*
G75*
G02*
X161464000Y-76605000I-6370000J0D01*
G01*
X161464000Y-76605000D02*
G75*
G02*
X174204000Y-76605000I6370000J0D01*
G01*
D14*
X106712430Y-81945448D02*
X106711811Y-82032531D01*
X106260086Y-82491491D01*
X105808361Y-82950452D01*
X105808032Y-83161071D01*
X105807703Y-83371689D01*
X105532610Y-83371689D01*
X105525522Y-83425130D01*
X105522838Y-83449488D01*
X105518313Y-83495359D01*
X105512191Y-83560005D01*
X105504712Y-83640691D01*
X105496119Y-83734681D01*
X105486654Y-83839237D01*
X105476558Y-83951625D01*
X105466074Y-84069107D01*
X105455444Y-84188948D01*
X105444909Y-84308411D01*
X105434713Y-84424759D01*
X105425095Y-84535257D01*
X105416300Y-84637169D01*
X105408568Y-84727758D01*
X105402142Y-84804287D01*
X105397263Y-84864021D01*
X105394175Y-84904224D01*
X105393117Y-84922159D01*
X105393118Y-84922244D01*
X105400827Y-84936635D01*
X105423981Y-84966348D01*
X105462895Y-85011731D01*
X105517884Y-85073129D01*
X105589264Y-85150888D01*
X105677349Y-85245354D01*
X105782454Y-85356872D01*
X105904895Y-85485788D01*
X105939310Y-85521887D01*
X106485137Y-86094016D01*
X106396881Y-86182036D01*
X106325485Y-86104358D01*
X106299366Y-86076286D01*
X106258566Y-86032874D01*
X106205777Y-85976966D01*
X106143691Y-85911408D01*
X106075000Y-85839041D01*
X106002396Y-85762712D01*
X105958960Y-85717124D01*
X105877416Y-85631719D01*
X105811504Y-85563310D01*
X105759544Y-85510653D01*
X105719855Y-85472505D01*
X105690757Y-85447620D01*
X105670569Y-85434756D01*
X105657610Y-85432668D01*
X105650200Y-85440113D01*
X105646658Y-85455846D01*
X105645303Y-85478623D01*
X105645121Y-85484839D01*
X105635703Y-85527661D01*
X105612497Y-85579419D01*
X105580136Y-85631928D01*
X105543252Y-85677003D01*
X105528493Y-85690928D01*
X105452767Y-85739647D01*
X105364308Y-85766906D01*
X105286100Y-85773373D01*
X105197468Y-85761176D01*
X105115612Y-85725413D01*
X105043164Y-85667322D01*
X105029797Y-85652862D01*
X104980918Y-85597333D01*
X104135326Y-85597333D01*
X104135326Y-85773373D01*
X103908990Y-85773373D01*
X103908990Y-85691131D01*
X103906150Y-85634986D01*
X103896607Y-85596016D01*
X103885009Y-85574819D01*
X103876723Y-85559652D01*
X103869627Y-85537662D01*
X103863252Y-85505587D01*
X103857128Y-85460169D01*
X103850784Y-85398148D01*
X103843750Y-85316262D01*
X103838934Y-85255346D01*
X103816839Y-84969943D01*
X103274435Y-85519405D01*
X103176363Y-85618828D01*
X103082216Y-85714415D01*
X102993715Y-85804410D01*
X102912580Y-85887057D01*
X102840531Y-85960601D01*
X102779288Y-86023284D01*
X102730573Y-86073352D01*
X102696104Y-86109048D01*
X102677621Y-86128595D01*
X102647257Y-86159544D01*
X102621929Y-86181130D01*
X102608305Y-86188323D01*
X102590905Y-86179897D01*
X102565540Y-86158845D01*
X102556942Y-86150271D01*
X102520486Y-86112220D01*
X102721198Y-85908258D01*
X102772404Y-85856299D01*
X102838431Y-85789420D01*
X102916382Y-85710550D01*
X103003362Y-85622614D01*
X103096474Y-85528541D01*
X103192821Y-85431258D01*
X103289508Y-85333693D01*
X103358866Y-85263745D01*
X103464297Y-85157150D01*
X103552871Y-85066907D01*
X103625719Y-84991792D01*
X103683977Y-84930586D01*
X103728775Y-84882066D01*
X103750979Y-84856729D01*
X103929276Y-84856729D01*
X103951599Y-85142155D01*
X103958331Y-85225819D01*
X103964843Y-85302327D01*
X103970766Y-85367681D01*
X103975732Y-85417881D01*
X103979371Y-85448929D01*
X103980542Y-85455873D01*
X103987162Y-85484165D01*
X104936636Y-85484165D01*
X104942974Y-85405206D01*
X104962110Y-85311915D01*
X105002154Y-85229391D01*
X105060582Y-85160638D01*
X105134871Y-85108663D01*
X105218252Y-85077463D01*
X105245302Y-85062828D01*
X105258844Y-85031419D01*
X105259128Y-85030034D01*
X105260753Y-85016774D01*
X105258744Y-85003195D01*
X105251142Y-84986781D01*
X105235984Y-84965011D01*
X105211312Y-84935367D01*
X105175164Y-84895332D01*
X105125580Y-84842385D01*
X105060599Y-84774009D01*
X105056401Y-84769605D01*
X104986507Y-84696211D01*
X104912200Y-84618037D01*
X104838586Y-84540464D01*
X104770771Y-84468875D01*
X104713860Y-84408651D01*
X104701168Y-84395187D01*
X104652513Y-84344420D01*
X104609291Y-84300975D01*
X104574605Y-84267841D01*
X104551556Y-84248005D01*
X104543818Y-84243646D01*
X104532278Y-84252770D01*
X104505290Y-84277800D01*
X104464979Y-84316652D01*
X104413471Y-84367243D01*
X104352891Y-84427488D01*
X104285364Y-84495304D01*
X104230174Y-84551165D01*
X103929276Y-84856729D01*
X103750979Y-84856729D01*
X103761249Y-84845011D01*
X103782529Y-84818199D01*
X103793749Y-84800408D01*
X103796246Y-84792170D01*
X103795300Y-84774190D01*
X103792427Y-84733492D01*
X103787813Y-84672419D01*
X103781642Y-84593313D01*
X103774102Y-84498514D01*
X103765379Y-84390367D01*
X103755657Y-84271212D01*
X103745124Y-84143391D01*
X103736635Y-84041235D01*
X103688604Y-83465274D01*
X103812195Y-83465274D01*
X103812727Y-83477704D01*
X103815231Y-83512710D01*
X103819504Y-83567815D01*
X103825347Y-83640543D01*
X103832557Y-83728414D01*
X103840934Y-83828951D01*
X103850277Y-83939677D01*
X103859242Y-84044805D01*
X103869398Y-84164083D01*
X103878858Y-84276680D01*
X103887404Y-84379905D01*
X103894821Y-84471073D01*
X103900892Y-84547495D01*
X103905399Y-84606483D01*
X103908127Y-84645349D01*
X103908884Y-84660444D01*
X103910065Y-84669838D01*
X103914744Y-84673566D01*
X103924724Y-84670071D01*
X103941810Y-84657799D01*
X103967804Y-84635194D01*
X104004510Y-84600700D01*
X104053733Y-84552762D01*
X104117274Y-84489824D01*
X104184695Y-84422568D01*
X104460399Y-84147077D01*
X104458467Y-84145006D01*
X104640710Y-84145006D01*
X104649016Y-84156380D01*
X104672267Y-84183163D01*
X104708135Y-84222892D01*
X104754287Y-84273107D01*
X104808394Y-84331346D01*
X104868126Y-84395147D01*
X104931152Y-84462049D01*
X104995142Y-84529590D01*
X105057764Y-84595310D01*
X105116690Y-84656746D01*
X105169588Y-84711437D01*
X105214128Y-84756922D01*
X105247980Y-84790738D01*
X105268812Y-84810426D01*
X105274494Y-84814437D01*
X105276366Y-84801491D01*
X105280254Y-84765734D01*
X105285943Y-84709404D01*
X105293219Y-84634740D01*
X105301869Y-84543980D01*
X105311678Y-84439362D01*
X105322434Y-84323126D01*
X105333921Y-84197508D01*
X105343093Y-84096218D01*
X105354826Y-83964879D01*
X105365665Y-83841152D01*
X105375430Y-83727281D01*
X105383937Y-83625511D01*
X105391005Y-83538087D01*
X105396451Y-83467253D01*
X105400092Y-83415253D01*
X105401747Y-83384332D01*
X105401558Y-83376303D01*
X105391666Y-83383454D01*
X105366476Y-83406441D01*
X105328190Y-83443039D01*
X105279011Y-83491022D01*
X105221139Y-83548166D01*
X105156778Y-83612247D01*
X105088129Y-83681038D01*
X105017395Y-83752316D01*
X104946778Y-83823855D01*
X104878480Y-83893430D01*
X104814704Y-83958817D01*
X104757650Y-84017791D01*
X104709522Y-84068127D01*
X104672522Y-84107599D01*
X104648852Y-84133983D01*
X104640710Y-84145006D01*
X104458467Y-84145006D01*
X104357591Y-84036895D01*
X104305232Y-83980977D01*
X104246465Y-83918548D01*
X104183615Y-83852043D01*
X104119005Y-83783898D01*
X104054958Y-83716548D01*
X103993797Y-83652428D01*
X103937847Y-83593972D01*
X103889430Y-83543618D01*
X103850870Y-83503798D01*
X103824491Y-83476950D01*
X103812616Y-83465508D01*
X103812195Y-83465274D01*
X103688604Y-83465274D01*
X103676599Y-83321326D01*
X103076062Y-82689758D01*
X102475525Y-82058189D01*
X102475966Y-81969915D01*
X102476408Y-81881640D01*
X102573417Y-81985266D01*
X102627709Y-82043063D01*
X102691808Y-82110968D01*
X102763984Y-82187172D01*
X102842508Y-82269869D01*
X102925651Y-82357253D01*
X103011681Y-82447515D01*
X103098870Y-82538850D01*
X103185487Y-82629449D01*
X103269803Y-82717507D01*
X103350088Y-82801215D01*
X103424613Y-82878767D01*
X103491646Y-82948357D01*
X103549459Y-83008176D01*
X103596321Y-83056418D01*
X103630504Y-83091276D01*
X103650276Y-83110943D01*
X103654610Y-83114716D01*
X103654908Y-83101592D01*
X103653269Y-83067989D01*
X103649977Y-83018480D01*
X103645318Y-82957637D01*
X103643318Y-82933332D01*
X103628423Y-82755551D01*
X103745045Y-82755551D01*
X103751066Y-82783843D01*
X103754137Y-82806218D01*
X103758452Y-82848317D01*
X103763512Y-82904778D01*
X103768819Y-82970235D01*
X103770656Y-82994462D01*
X103776073Y-83064021D01*
X103781541Y-83128618D01*
X103786512Y-83182148D01*
X103790439Y-83218510D01*
X103791325Y-83225109D01*
X103794666Y-83238656D01*
X103801899Y-83254514D01*
X103814560Y-83274461D01*
X103834189Y-83300273D01*
X103862322Y-83333729D01*
X103900498Y-83376607D01*
X103950254Y-83430683D01*
X104013129Y-83497736D01*
X104090659Y-83579543D01*
X104169749Y-83662550D01*
X104248436Y-83744694D01*
X104321888Y-83820769D01*
X104388276Y-83888925D01*
X104445773Y-83947312D01*
X104492549Y-83994081D01*
X104526776Y-84027382D01*
X104546627Y-84045367D01*
X104550860Y-84048042D01*
X104561997Y-84038341D01*
X104588029Y-84013041D01*
X104626430Y-83974682D01*
X104674672Y-83925800D01*
X104730230Y-83868934D01*
X104770408Y-83827506D01*
X104980169Y-83610600D01*
X104361663Y-83610600D01*
X104361663Y-83371689D01*
X105116119Y-83371689D01*
X105116119Y-83478142D01*
X105254435Y-83340254D01*
X105352553Y-83242440D01*
X105543643Y-83242440D01*
X105545471Y-83257870D01*
X105554723Y-83266467D01*
X105577050Y-83270213D01*
X105618105Y-83271089D01*
X105625376Y-83271095D01*
X105707109Y-83271095D01*
X105707109Y-83051772D01*
X105625376Y-83132779D01*
X105579270Y-83182028D01*
X105551694Y-83219759D01*
X105543643Y-83242440D01*
X105352553Y-83242440D01*
X105392752Y-83202366D01*
X105392752Y-83079552D01*
X105393137Y-83023050D01*
X105394900Y-82987105D01*
X105398950Y-82967130D01*
X105406199Y-82958537D01*
X105417130Y-82956739D01*
X105429288Y-82954098D01*
X105438273Y-82943512D01*
X105445174Y-82920981D01*
X105451076Y-82882509D01*
X105457065Y-82824098D01*
X105458987Y-82802704D01*
X105463148Y-82755551D01*
X103745045Y-82755551D01*
X103628423Y-82755551D01*
X103468891Y-82755551D01*
X103468891Y-82642382D01*
X103536686Y-82642382D01*
X103576338Y-82641296D01*
X103597884Y-82636054D01*
X103600520Y-82632934D01*
X103739384Y-82632934D01*
X103746692Y-82640062D01*
X103772007Y-82642262D01*
X103789092Y-82642382D01*
X103846119Y-82642382D01*
X104058779Y-82642382D01*
X105473302Y-82642382D01*
X105425458Y-82593386D01*
X105351150Y-82532924D01*
X105259184Y-82486291D01*
X105148002Y-82452849D01*
X105037529Y-82434353D01*
X104965227Y-82425722D01*
X104965227Y-82516640D01*
X104386812Y-82516640D01*
X104386812Y-82416046D01*
X104487406Y-82416046D01*
X104864633Y-82416046D01*
X104864633Y-82353175D01*
X104487406Y-82353175D01*
X104487406Y-82416046D01*
X104386812Y-82416046D01*
X104386812Y-82413493D01*
X104301935Y-82422096D01*
X104242632Y-82429356D01*
X104179449Y-82438979D01*
X104141614Y-82445852D01*
X104066168Y-82461007D01*
X104062474Y-82551695D01*
X104058779Y-82642382D01*
X103846119Y-82642382D01*
X103846119Y-82592085D01*
X103844456Y-82560576D01*
X103840303Y-82543063D01*
X103838629Y-82541788D01*
X103820013Y-82549854D01*
X103792817Y-82569420D01*
X103765552Y-82593544D01*
X103746733Y-82615282D01*
X103745057Y-82618108D01*
X103739384Y-82632934D01*
X103600520Y-82632934D01*
X103608338Y-82623681D01*
X103612558Y-82610204D01*
X103629781Y-82575227D01*
X103662862Y-82533179D01*
X103706107Y-82489956D01*
X103753826Y-82451454D01*
X103785170Y-82431401D01*
X103820877Y-82409451D01*
X103839181Y-82391011D01*
X103845612Y-82369268D01*
X103846106Y-82356318D01*
X103846106Y-82353175D01*
X103846119Y-82315452D01*
X103951952Y-82315452D01*
X104000645Y-82316629D01*
X104038595Y-82319765D01*
X104059692Y-82324271D01*
X104061977Y-82326095D01*
X104075359Y-82328895D01*
X104107926Y-82327748D01*
X104154084Y-82322993D01*
X104185624Y-82318603D01*
X104242812Y-82309978D01*
X104295114Y-82302191D01*
X104334418Y-82296447D01*
X104345945Y-82294815D01*
X104376063Y-82285488D01*
X104386812Y-82270872D01*
X104390080Y-82264920D01*
X104401770Y-82260378D01*
X104424712Y-82257070D01*
X104461735Y-82254815D01*
X104515668Y-82253434D01*
X104589340Y-82252750D01*
X104676020Y-82252580D01*
X104768529Y-82252677D01*
X104838906Y-82253130D01*
X104890164Y-82254190D01*
X104925320Y-82256103D01*
X104947389Y-82259119D01*
X104959385Y-82263485D01*
X104964324Y-82269449D01*
X104965227Y-82276384D01*
X104972921Y-82298395D01*
X104998121Y-82310921D01*
X105044009Y-82315388D01*
X105052264Y-82315452D01*
X105129973Y-82323468D01*
X105218233Y-82345536D01*
X105309085Y-82378684D01*
X105394570Y-82419939D01*
X105466726Y-82466331D01*
X105476072Y-82473682D01*
X105506533Y-82497598D01*
X105524572Y-82507176D01*
X105537169Y-82504080D01*
X105550100Y-82491304D01*
X105588293Y-82466278D01*
X105637998Y-82456671D01*
X105691524Y-82461667D01*
X105741178Y-82480451D01*
X105779267Y-82512206D01*
X105782025Y-82515897D01*
X105810526Y-82575175D01*
X105815828Y-82636534D01*
X105798518Y-82695027D01*
X105759180Y-82745704D01*
X105754370Y-82749889D01*
X105726440Y-82769767D01*
X105698102Y-82778521D01*
X105658263Y-82779153D01*
X105648311Y-82778592D01*
X105609332Y-82777162D01*
X105589254Y-82780439D01*
X105581985Y-82790328D01*
X105581240Y-82799561D01*
X105579716Y-82826344D01*
X105575935Y-82866625D01*
X105573218Y-82890724D01*
X105569277Y-82929001D01*
X105570916Y-82948596D01*
X105580421Y-82955758D01*
X105597351Y-82956739D01*
X105607392Y-82953501D01*
X105623590Y-82943020D01*
X105647145Y-82924148D01*
X105679257Y-82895735D01*
X105721128Y-82856635D01*
X105773957Y-82805697D01*
X105838945Y-82741773D01*
X105917291Y-82663714D01*
X106010197Y-82570372D01*
X106118863Y-82460598D01*
X106171231Y-82407552D01*
X106713049Y-81858367D01*
X106712430Y-81945448D01*
G36*
X106712430Y-81945448D02*
G01*
X106711811Y-82032531D01*
X106260086Y-82491491D01*
X105808361Y-82950452D01*
X105808032Y-83161071D01*
X105807703Y-83371689D01*
X105532610Y-83371689D01*
X105525522Y-83425130D01*
X105522838Y-83449488D01*
X105518313Y-83495359D01*
X105512191Y-83560005D01*
X105504712Y-83640691D01*
X105496119Y-83734681D01*
X105486654Y-83839237D01*
X105476558Y-83951625D01*
X105466074Y-84069107D01*
X105455444Y-84188948D01*
X105444909Y-84308411D01*
X105434713Y-84424759D01*
X105425095Y-84535257D01*
X105416300Y-84637169D01*
X105408568Y-84727758D01*
X105402142Y-84804287D01*
X105397263Y-84864021D01*
X105394175Y-84904224D01*
X105393117Y-84922159D01*
X105393118Y-84922244D01*
X105400827Y-84936635D01*
X105423981Y-84966348D01*
X105462895Y-85011731D01*
X105517884Y-85073129D01*
X105589264Y-85150888D01*
X105677349Y-85245354D01*
X105782454Y-85356872D01*
X105904895Y-85485788D01*
X105939310Y-85521887D01*
X106485137Y-86094016D01*
X106396881Y-86182036D01*
X106325485Y-86104358D01*
X106299366Y-86076286D01*
X106258566Y-86032874D01*
X106205777Y-85976966D01*
X106143691Y-85911408D01*
X106075000Y-85839041D01*
X106002396Y-85762712D01*
X105958960Y-85717124D01*
X105877416Y-85631719D01*
X105811504Y-85563310D01*
X105759544Y-85510653D01*
X105719855Y-85472505D01*
X105690757Y-85447620D01*
X105670569Y-85434756D01*
X105657610Y-85432668D01*
X105650200Y-85440113D01*
X105646658Y-85455846D01*
X105645303Y-85478623D01*
X105645121Y-85484839D01*
X105635703Y-85527661D01*
X105612497Y-85579419D01*
X105580136Y-85631928D01*
X105543252Y-85677003D01*
X105528493Y-85690928D01*
X105452767Y-85739647D01*
X105364308Y-85766906D01*
X105286100Y-85773373D01*
X105197468Y-85761176D01*
X105115612Y-85725413D01*
X105043164Y-85667322D01*
X105029797Y-85652862D01*
X104980918Y-85597333D01*
X104135326Y-85597333D01*
X104135326Y-85773373D01*
X103908990Y-85773373D01*
X103908990Y-85691131D01*
X103906150Y-85634986D01*
X103896607Y-85596016D01*
X103885009Y-85574819D01*
X103876723Y-85559652D01*
X103869627Y-85537662D01*
X103863252Y-85505587D01*
X103857128Y-85460169D01*
X103850784Y-85398148D01*
X103843750Y-85316262D01*
X103838934Y-85255346D01*
X103816839Y-84969943D01*
X103274435Y-85519405D01*
X103176363Y-85618828D01*
X103082216Y-85714415D01*
X102993715Y-85804410D01*
X102912580Y-85887057D01*
X102840531Y-85960601D01*
X102779288Y-86023284D01*
X102730573Y-86073352D01*
X102696104Y-86109048D01*
X102677621Y-86128595D01*
X102647257Y-86159544D01*
X102621929Y-86181130D01*
X102608305Y-86188323D01*
X102590905Y-86179897D01*
X102565540Y-86158845D01*
X102556942Y-86150271D01*
X102520486Y-86112220D01*
X102721198Y-85908258D01*
X102772404Y-85856299D01*
X102838431Y-85789420D01*
X102916382Y-85710550D01*
X103003362Y-85622614D01*
X103096474Y-85528541D01*
X103192821Y-85431258D01*
X103289508Y-85333693D01*
X103358866Y-85263745D01*
X103464297Y-85157150D01*
X103552871Y-85066907D01*
X103625719Y-84991792D01*
X103683977Y-84930586D01*
X103728775Y-84882066D01*
X103750979Y-84856729D01*
X103929276Y-84856729D01*
X103951599Y-85142155D01*
X103958331Y-85225819D01*
X103964843Y-85302327D01*
X103970766Y-85367681D01*
X103975732Y-85417881D01*
X103979371Y-85448929D01*
X103980542Y-85455873D01*
X103987162Y-85484165D01*
X104936636Y-85484165D01*
X104942974Y-85405206D01*
X104962110Y-85311915D01*
X105002154Y-85229391D01*
X105060582Y-85160638D01*
X105134871Y-85108663D01*
X105218252Y-85077463D01*
X105245302Y-85062828D01*
X105258844Y-85031419D01*
X105259128Y-85030034D01*
X105260753Y-85016774D01*
X105258744Y-85003195D01*
X105251142Y-84986781D01*
X105235984Y-84965011D01*
X105211312Y-84935367D01*
X105175164Y-84895332D01*
X105125580Y-84842385D01*
X105060599Y-84774009D01*
X105056401Y-84769605D01*
X104986507Y-84696211D01*
X104912200Y-84618037D01*
X104838586Y-84540464D01*
X104770771Y-84468875D01*
X104713860Y-84408651D01*
X104701168Y-84395187D01*
X104652513Y-84344420D01*
X104609291Y-84300975D01*
X104574605Y-84267841D01*
X104551556Y-84248005D01*
X104543818Y-84243646D01*
X104532278Y-84252770D01*
X104505290Y-84277800D01*
X104464979Y-84316652D01*
X104413471Y-84367243D01*
X104352891Y-84427488D01*
X104285364Y-84495304D01*
X104230174Y-84551165D01*
X103929276Y-84856729D01*
X103750979Y-84856729D01*
X103761249Y-84845011D01*
X103782529Y-84818199D01*
X103793749Y-84800408D01*
X103796246Y-84792170D01*
X103795300Y-84774190D01*
X103792427Y-84733492D01*
X103787813Y-84672419D01*
X103781642Y-84593313D01*
X103774102Y-84498514D01*
X103765379Y-84390367D01*
X103755657Y-84271212D01*
X103745124Y-84143391D01*
X103736635Y-84041235D01*
X103688604Y-83465274D01*
X103812195Y-83465274D01*
X103812727Y-83477704D01*
X103815231Y-83512710D01*
X103819504Y-83567815D01*
X103825347Y-83640543D01*
X103832557Y-83728414D01*
X103840934Y-83828951D01*
X103850277Y-83939677D01*
X103859242Y-84044805D01*
X103869398Y-84164083D01*
X103878858Y-84276680D01*
X103887404Y-84379905D01*
X103894821Y-84471073D01*
X103900892Y-84547495D01*
X103905399Y-84606483D01*
X103908127Y-84645349D01*
X103908884Y-84660444D01*
X103910065Y-84669838D01*
X103914744Y-84673566D01*
X103924724Y-84670071D01*
X103941810Y-84657799D01*
X103967804Y-84635194D01*
X104004510Y-84600700D01*
X104053733Y-84552762D01*
X104117274Y-84489824D01*
X104184695Y-84422568D01*
X104460399Y-84147077D01*
X104458467Y-84145006D01*
X104640710Y-84145006D01*
X104649016Y-84156380D01*
X104672267Y-84183163D01*
X104708135Y-84222892D01*
X104754287Y-84273107D01*
X104808394Y-84331346D01*
X104868126Y-84395147D01*
X104931152Y-84462049D01*
X104995142Y-84529590D01*
X105057764Y-84595310D01*
X105116690Y-84656746D01*
X105169588Y-84711437D01*
X105214128Y-84756922D01*
X105247980Y-84790738D01*
X105268812Y-84810426D01*
X105274494Y-84814437D01*
X105276366Y-84801491D01*
X105280254Y-84765734D01*
X105285943Y-84709404D01*
X105293219Y-84634740D01*
X105301869Y-84543980D01*
X105311678Y-84439362D01*
X105322434Y-84323126D01*
X105333921Y-84197508D01*
X105343093Y-84096218D01*
X105354826Y-83964879D01*
X105365665Y-83841152D01*
X105375430Y-83727281D01*
X105383937Y-83625511D01*
X105391005Y-83538087D01*
X105396451Y-83467253D01*
X105400092Y-83415253D01*
X105401747Y-83384332D01*
X105401558Y-83376303D01*
X105391666Y-83383454D01*
X105366476Y-83406441D01*
X105328190Y-83443039D01*
X105279011Y-83491022D01*
X105221139Y-83548166D01*
X105156778Y-83612247D01*
X105088129Y-83681038D01*
X105017395Y-83752316D01*
X104946778Y-83823855D01*
X104878480Y-83893430D01*
X104814704Y-83958817D01*
X104757650Y-84017791D01*
X104709522Y-84068127D01*
X104672522Y-84107599D01*
X104648852Y-84133983D01*
X104640710Y-84145006D01*
X104458467Y-84145006D01*
X104357591Y-84036895D01*
X104305232Y-83980977D01*
X104246465Y-83918548D01*
X104183615Y-83852043D01*
X104119005Y-83783898D01*
X104054958Y-83716548D01*
X103993797Y-83652428D01*
X103937847Y-83593972D01*
X103889430Y-83543618D01*
X103850870Y-83503798D01*
X103824491Y-83476950D01*
X103812616Y-83465508D01*
X103812195Y-83465274D01*
X103688604Y-83465274D01*
X103676599Y-83321326D01*
X103076062Y-82689758D01*
X102475525Y-82058189D01*
X102475966Y-81969915D01*
X102476408Y-81881640D01*
X102573417Y-81985266D01*
X102627709Y-82043063D01*
X102691808Y-82110968D01*
X102763984Y-82187172D01*
X102842508Y-82269869D01*
X102925651Y-82357253D01*
X103011681Y-82447515D01*
X103098870Y-82538850D01*
X103185487Y-82629449D01*
X103269803Y-82717507D01*
X103350088Y-82801215D01*
X103424613Y-82878767D01*
X103491646Y-82948357D01*
X103549459Y-83008176D01*
X103596321Y-83056418D01*
X103630504Y-83091276D01*
X103650276Y-83110943D01*
X103654610Y-83114716D01*
X103654908Y-83101592D01*
X103653269Y-83067989D01*
X103649977Y-83018480D01*
X103645318Y-82957637D01*
X103643318Y-82933332D01*
X103628423Y-82755551D01*
X103745045Y-82755551D01*
X103751066Y-82783843D01*
X103754137Y-82806218D01*
X103758452Y-82848317D01*
X103763512Y-82904778D01*
X103768819Y-82970235D01*
X103770656Y-82994462D01*
X103776073Y-83064021D01*
X103781541Y-83128618D01*
X103786512Y-83182148D01*
X103790439Y-83218510D01*
X103791325Y-83225109D01*
X103794666Y-83238656D01*
X103801899Y-83254514D01*
X103814560Y-83274461D01*
X103834189Y-83300273D01*
X103862322Y-83333729D01*
X103900498Y-83376607D01*
X103950254Y-83430683D01*
X104013129Y-83497736D01*
X104090659Y-83579543D01*
X104169749Y-83662550D01*
X104248436Y-83744694D01*
X104321888Y-83820769D01*
X104388276Y-83888925D01*
X104445773Y-83947312D01*
X104492549Y-83994081D01*
X104526776Y-84027382D01*
X104546627Y-84045367D01*
X104550860Y-84048042D01*
X104561997Y-84038341D01*
X104588029Y-84013041D01*
X104626430Y-83974682D01*
X104674672Y-83925800D01*
X104730230Y-83868934D01*
X104770408Y-83827506D01*
X104980169Y-83610600D01*
X104361663Y-83610600D01*
X104361663Y-83371689D01*
X105116119Y-83371689D01*
X105116119Y-83478142D01*
X105254435Y-83340254D01*
X105352553Y-83242440D01*
X105543643Y-83242440D01*
X105545471Y-83257870D01*
X105554723Y-83266467D01*
X105577050Y-83270213D01*
X105618105Y-83271089D01*
X105625376Y-83271095D01*
X105707109Y-83271095D01*
X105707109Y-83051772D01*
X105625376Y-83132779D01*
X105579270Y-83182028D01*
X105551694Y-83219759D01*
X105543643Y-83242440D01*
X105352553Y-83242440D01*
X105392752Y-83202366D01*
X105392752Y-83079552D01*
X105393137Y-83023050D01*
X105394900Y-82987105D01*
X105398950Y-82967130D01*
X105406199Y-82958537D01*
X105417130Y-82956739D01*
X105429288Y-82954098D01*
X105438273Y-82943512D01*
X105445174Y-82920981D01*
X105451076Y-82882509D01*
X105457065Y-82824098D01*
X105458987Y-82802704D01*
X105463148Y-82755551D01*
X103745045Y-82755551D01*
X103628423Y-82755551D01*
X103468891Y-82755551D01*
X103468891Y-82642382D01*
X103536686Y-82642382D01*
X103576338Y-82641296D01*
X103597884Y-82636054D01*
X103600520Y-82632934D01*
X103739384Y-82632934D01*
X103746692Y-82640062D01*
X103772007Y-82642262D01*
X103789092Y-82642382D01*
X103846119Y-82642382D01*
X104058779Y-82642382D01*
X105473302Y-82642382D01*
X105425458Y-82593386D01*
X105351150Y-82532924D01*
X105259184Y-82486291D01*
X105148002Y-82452849D01*
X105037529Y-82434353D01*
X104965227Y-82425722D01*
X104965227Y-82516640D01*
X104386812Y-82516640D01*
X104386812Y-82416046D01*
X104487406Y-82416046D01*
X104864633Y-82416046D01*
X104864633Y-82353175D01*
X104487406Y-82353175D01*
X104487406Y-82416046D01*
X104386812Y-82416046D01*
X104386812Y-82413493D01*
X104301935Y-82422096D01*
X104242632Y-82429356D01*
X104179449Y-82438979D01*
X104141614Y-82445852D01*
X104066168Y-82461007D01*
X104062474Y-82551695D01*
X104058779Y-82642382D01*
X103846119Y-82642382D01*
X103846119Y-82592085D01*
X103844456Y-82560576D01*
X103840303Y-82543063D01*
X103838629Y-82541788D01*
X103820013Y-82549854D01*
X103792817Y-82569420D01*
X103765552Y-82593544D01*
X103746733Y-82615282D01*
X103745057Y-82618108D01*
X103739384Y-82632934D01*
X103600520Y-82632934D01*
X103608338Y-82623681D01*
X103612558Y-82610204D01*
X103629781Y-82575227D01*
X103662862Y-82533179D01*
X103706107Y-82489956D01*
X103753826Y-82451454D01*
X103785170Y-82431401D01*
X103820877Y-82409451D01*
X103839181Y-82391011D01*
X103845612Y-82369268D01*
X103846106Y-82356318D01*
X103846106Y-82353175D01*
X103846119Y-82315452D01*
X103951952Y-82315452D01*
X104000645Y-82316629D01*
X104038595Y-82319765D01*
X104059692Y-82324271D01*
X104061977Y-82326095D01*
X104075359Y-82328895D01*
X104107926Y-82327748D01*
X104154084Y-82322993D01*
X104185624Y-82318603D01*
X104242812Y-82309978D01*
X104295114Y-82302191D01*
X104334418Y-82296447D01*
X104345945Y-82294815D01*
X104376063Y-82285488D01*
X104386812Y-82270872D01*
X104390080Y-82264920D01*
X104401770Y-82260378D01*
X104424712Y-82257070D01*
X104461735Y-82254815D01*
X104515668Y-82253434D01*
X104589340Y-82252750D01*
X104676020Y-82252580D01*
X104768529Y-82252677D01*
X104838906Y-82253130D01*
X104890164Y-82254190D01*
X104925320Y-82256103D01*
X104947389Y-82259119D01*
X104959385Y-82263485D01*
X104964324Y-82269449D01*
X104965227Y-82276384D01*
X104972921Y-82298395D01*
X104998121Y-82310921D01*
X105044009Y-82315388D01*
X105052264Y-82315452D01*
X105129973Y-82323468D01*
X105218233Y-82345536D01*
X105309085Y-82378684D01*
X105394570Y-82419939D01*
X105466726Y-82466331D01*
X105476072Y-82473682D01*
X105506533Y-82497598D01*
X105524572Y-82507176D01*
X105537169Y-82504080D01*
X105550100Y-82491304D01*
X105588293Y-82466278D01*
X105637998Y-82456671D01*
X105691524Y-82461667D01*
X105741178Y-82480451D01*
X105779267Y-82512206D01*
X105782025Y-82515897D01*
X105810526Y-82575175D01*
X105815828Y-82636534D01*
X105798518Y-82695027D01*
X105759180Y-82745704D01*
X105754370Y-82749889D01*
X105726440Y-82769767D01*
X105698102Y-82778521D01*
X105658263Y-82779153D01*
X105648311Y-82778592D01*
X105609332Y-82777162D01*
X105589254Y-82780439D01*
X105581985Y-82790328D01*
X105581240Y-82799561D01*
X105579716Y-82826344D01*
X105575935Y-82866625D01*
X105573218Y-82890724D01*
X105569277Y-82929001D01*
X105570916Y-82948596D01*
X105580421Y-82955758D01*
X105597351Y-82956739D01*
X105607392Y-82953501D01*
X105623590Y-82943020D01*
X105647145Y-82924148D01*
X105679257Y-82895735D01*
X105721128Y-82856635D01*
X105773957Y-82805697D01*
X105838945Y-82741773D01*
X105917291Y-82663714D01*
X106010197Y-82570372D01*
X106118863Y-82460598D01*
X106171231Y-82407552D01*
X106713049Y-81858367D01*
X106712430Y-81945448D01*
G37*
X106335822Y-87898422D02*
X102815029Y-87898422D01*
X102815029Y-87030798D01*
X106335822Y-87030798D01*
X106335822Y-87898422D01*
G36*
X106335822Y-87898422D02*
G01*
X102815029Y-87898422D01*
X102815029Y-87030798D01*
X106335822Y-87030798D01*
X106335822Y-87898422D01*
G37*
X194332528Y-85115219D02*
X194343908Y-85134293D01*
X194369488Y-85178021D01*
X194408002Y-85244219D01*
X194458186Y-85330702D01*
X194518775Y-85435285D01*
X194588503Y-85555783D01*
X194666107Y-85690012D01*
X194750320Y-85835787D01*
X194839879Y-85990923D01*
X194931998Y-86150600D01*
X195026076Y-86313717D01*
X195116402Y-86470309D01*
X195201665Y-86618106D01*
X195280557Y-86754840D01*
X195351769Y-86878242D01*
X195413991Y-86986044D01*
X195465913Y-87075977D01*
X195506228Y-87145773D01*
X195533624Y-87193164D01*
X195546507Y-87215386D01*
X195567507Y-87252930D01*
X195578925Y-87276431D01*
X195579551Y-87280520D01*
X195565636Y-87272842D01*
X195526941Y-87250803D01*
X195465487Y-87215571D01*
X195383298Y-87168311D01*
X195282396Y-87110189D01*
X195164805Y-87042371D01*
X195032546Y-86966024D01*
X194887642Y-86882314D01*
X194732117Y-86792406D01*
X194567992Y-86697467D01*
X194505549Y-86661332D01*
X194338487Y-86564683D01*
X194179074Y-86472538D01*
X194029355Y-86386075D01*
X193891376Y-86306471D01*
X193767185Y-86234905D01*
X193658827Y-86172555D01*
X193568348Y-86120598D01*
X193497796Y-86080213D01*
X193449215Y-86052578D01*
X193424654Y-86038872D01*
X193422085Y-86037574D01*
X193429569Y-86025820D01*
X193455614Y-85994395D01*
X193497559Y-85946194D01*
X193552746Y-85884110D01*
X193618517Y-85811039D01*
X193692212Y-85729876D01*
X193771173Y-85643516D01*
X193852740Y-85554853D01*
X193934254Y-85466782D01*
X194013057Y-85382199D01*
X194086490Y-85303997D01*
X194151893Y-85235072D01*
X194206608Y-85178319D01*
X194247977Y-85136632D01*
X194262164Y-85122963D01*
X194309180Y-85078801D01*
X194332528Y-85115219D01*
G36*
X194332528Y-85115219D02*
G01*
X194343908Y-85134293D01*
X194369488Y-85178021D01*
X194408002Y-85244219D01*
X194458186Y-85330702D01*
X194518775Y-85435285D01*
X194588503Y-85555783D01*
X194666107Y-85690012D01*
X194750320Y-85835787D01*
X194839879Y-85990923D01*
X194931998Y-86150600D01*
X195026076Y-86313717D01*
X195116402Y-86470309D01*
X195201665Y-86618106D01*
X195280557Y-86754840D01*
X195351769Y-86878242D01*
X195413991Y-86986044D01*
X195465913Y-87075977D01*
X195506228Y-87145773D01*
X195533624Y-87193164D01*
X195546507Y-87215386D01*
X195567507Y-87252930D01*
X195578925Y-87276431D01*
X195579551Y-87280520D01*
X195565636Y-87272842D01*
X195526941Y-87250803D01*
X195465487Y-87215571D01*
X195383298Y-87168311D01*
X195282396Y-87110189D01*
X195164805Y-87042371D01*
X195032546Y-86966024D01*
X194887642Y-86882314D01*
X194732117Y-86792406D01*
X194567992Y-86697467D01*
X194505549Y-86661332D01*
X194338487Y-86564683D01*
X194179074Y-86472538D01*
X194029355Y-86386075D01*
X193891376Y-86306471D01*
X193767185Y-86234905D01*
X193658827Y-86172555D01*
X193568348Y-86120598D01*
X193497796Y-86080213D01*
X193449215Y-86052578D01*
X193424654Y-86038872D01*
X193422085Y-86037574D01*
X193429569Y-86025820D01*
X193455614Y-85994395D01*
X193497559Y-85946194D01*
X193552746Y-85884110D01*
X193618517Y-85811039D01*
X193692212Y-85729876D01*
X193771173Y-85643516D01*
X193852740Y-85554853D01*
X193934254Y-85466782D01*
X194013057Y-85382199D01*
X194086490Y-85303997D01*
X194151893Y-85235072D01*
X194206608Y-85178319D01*
X194247977Y-85136632D01*
X194262164Y-85122963D01*
X194309180Y-85078801D01*
X194332528Y-85115219D01*
G37*
X192509043Y-81966435D02*
X192532065Y-82003845D01*
X192567534Y-82063114D01*
X192613996Y-82141718D01*
X192669996Y-82237138D01*
X192734081Y-82346850D01*
X192804796Y-82468334D01*
X192880687Y-82599068D01*
X192960299Y-82736530D01*
X193042178Y-82878198D01*
X193124870Y-83021551D01*
X193206921Y-83164067D01*
X193286876Y-83303224D01*
X193363281Y-83436501D01*
X193434682Y-83561376D01*
X193499624Y-83675327D01*
X193556653Y-83775833D01*
X193604315Y-83860372D01*
X193641155Y-83926422D01*
X193665720Y-83971462D01*
X193676554Y-83992970D01*
X193676951Y-83994314D01*
X193663501Y-84012565D01*
X193626114Y-84040482D01*
X193569235Y-84075325D01*
X193497312Y-84114354D01*
X193422015Y-84151443D01*
X193319560Y-84196417D01*
X193211817Y-84236826D01*
X193095073Y-84273569D01*
X192965618Y-84307542D01*
X192819740Y-84339644D01*
X192653726Y-84370773D01*
X192463866Y-84401827D01*
X192267469Y-84430745D01*
X192096834Y-84456400D01*
X191953545Y-84481798D01*
X191834008Y-84508202D01*
X191734630Y-84536873D01*
X191651818Y-84569073D01*
X191581978Y-84606065D01*
X191521518Y-84649112D01*
X191466845Y-84699475D01*
X191449214Y-84718183D01*
X191411000Y-84761739D01*
X191382732Y-84797282D01*
X191369618Y-84818183D01*
X191369268Y-84819897D01*
X191364680Y-84830406D01*
X191348758Y-84830524D01*
X191318266Y-84818854D01*
X191269968Y-84793996D01*
X191200627Y-84754552D01*
X191152439Y-84726187D01*
X191080583Y-84681847D01*
X191024742Y-84643879D01*
X190988667Y-84615016D01*
X190976113Y-84597988D01*
X190976121Y-84597864D01*
X190983906Y-84581637D01*
X191005892Y-84541000D01*
X191040803Y-84478167D01*
X191087363Y-84395352D01*
X191144295Y-84294772D01*
X191210323Y-84178640D01*
X191284172Y-84049171D01*
X191364564Y-83908580D01*
X191450224Y-83759082D01*
X191539876Y-83602892D01*
X191632243Y-83442224D01*
X191726049Y-83279293D01*
X191820018Y-83116313D01*
X191912874Y-82955500D01*
X192003340Y-82799068D01*
X192090141Y-82649233D01*
X192172000Y-82508208D01*
X192247641Y-82378209D01*
X192315787Y-82261449D01*
X192375163Y-82160145D01*
X192424493Y-82076511D01*
X192462500Y-82012762D01*
X192487907Y-81971111D01*
X192499440Y-81953775D01*
X192499923Y-81953405D01*
X192509043Y-81966435D01*
G36*
X192509043Y-81966435D02*
G01*
X192532065Y-82003845D01*
X192567534Y-82063114D01*
X192613996Y-82141718D01*
X192669996Y-82237138D01*
X192734081Y-82346850D01*
X192804796Y-82468334D01*
X192880687Y-82599068D01*
X192960299Y-82736530D01*
X193042178Y-82878198D01*
X193124870Y-83021551D01*
X193206921Y-83164067D01*
X193286876Y-83303224D01*
X193363281Y-83436501D01*
X193434682Y-83561376D01*
X193499624Y-83675327D01*
X193556653Y-83775833D01*
X193604315Y-83860372D01*
X193641155Y-83926422D01*
X193665720Y-83971462D01*
X193676554Y-83992970D01*
X193676951Y-83994314D01*
X193663501Y-84012565D01*
X193626114Y-84040482D01*
X193569235Y-84075325D01*
X193497312Y-84114354D01*
X193422015Y-84151443D01*
X193319560Y-84196417D01*
X193211817Y-84236826D01*
X193095073Y-84273569D01*
X192965618Y-84307542D01*
X192819740Y-84339644D01*
X192653726Y-84370773D01*
X192463866Y-84401827D01*
X192267469Y-84430745D01*
X192096834Y-84456400D01*
X191953545Y-84481798D01*
X191834008Y-84508202D01*
X191734630Y-84536873D01*
X191651818Y-84569073D01*
X191581978Y-84606065D01*
X191521518Y-84649112D01*
X191466845Y-84699475D01*
X191449214Y-84718183D01*
X191411000Y-84761739D01*
X191382732Y-84797282D01*
X191369618Y-84818183D01*
X191369268Y-84819897D01*
X191364680Y-84830406D01*
X191348758Y-84830524D01*
X191318266Y-84818854D01*
X191269968Y-84793996D01*
X191200627Y-84754552D01*
X191152439Y-84726187D01*
X191080583Y-84681847D01*
X191024742Y-84643879D01*
X190988667Y-84615016D01*
X190976113Y-84597988D01*
X190976121Y-84597864D01*
X190983906Y-84581637D01*
X191005892Y-84541000D01*
X191040803Y-84478167D01*
X191087363Y-84395352D01*
X191144295Y-84294772D01*
X191210323Y-84178640D01*
X191284172Y-84049171D01*
X191364564Y-83908580D01*
X191450224Y-83759082D01*
X191539876Y-83602892D01*
X191632243Y-83442224D01*
X191726049Y-83279293D01*
X191820018Y-83116313D01*
X191912874Y-82955500D01*
X192003340Y-82799068D01*
X192090141Y-82649233D01*
X192172000Y-82508208D01*
X192247641Y-82378209D01*
X192315787Y-82261449D01*
X192375163Y-82160145D01*
X192424493Y-82076511D01*
X192462500Y-82012762D01*
X192487907Y-81971111D01*
X192499440Y-81953775D01*
X192499923Y-81953405D01*
X192509043Y-81966435D01*
G37*
X190667094Y-85171758D02*
X190699619Y-85184336D01*
X190749193Y-85209312D01*
X190820374Y-85248476D01*
X190825916Y-85251588D01*
X190891474Y-85289076D01*
X190946798Y-85321919D01*
X190986455Y-85346805D01*
X191005012Y-85360420D01*
X191005531Y-85361087D01*
X191001048Y-85379990D01*
X190980486Y-85422205D01*
X190945183Y-85485432D01*
X190896480Y-85567372D01*
X190835718Y-85665722D01*
X190764236Y-85778185D01*
X190746445Y-85805765D01*
X190700093Y-85882299D01*
X190666342Y-85948156D01*
X190648153Y-85997382D01*
X190646286Y-86007107D01*
X190647115Y-86049912D01*
X190656394Y-86117809D01*
X190672968Y-86206443D01*
X190695680Y-86311459D01*
X190723373Y-86428502D01*
X190754890Y-86553216D01*
X190789075Y-86681245D01*
X190824771Y-86808234D01*
X190860821Y-86929828D01*
X190896068Y-87041672D01*
X190929356Y-87139410D01*
X190959528Y-87218687D01*
X190980561Y-87265722D01*
X191005337Y-87315825D01*
X191028730Y-87363768D01*
X191029997Y-87366393D01*
X191068699Y-87414820D01*
X191125184Y-87447428D01*
X191190939Y-87463054D01*
X191257451Y-87460537D01*
X191316205Y-87438714D01*
X191349258Y-87409982D01*
X191396859Y-87331183D01*
X191431739Y-87232978D01*
X191450877Y-87125379D01*
X191453588Y-87064380D01*
X191442670Y-86950535D01*
X191410624Y-86856260D01*
X191355726Y-86776979D01*
X191338607Y-86759333D01*
X191287661Y-86709835D01*
X191284163Y-86359962D01*
X191280664Y-86010089D01*
X191369818Y-85875131D01*
X191411654Y-85814045D01*
X191451945Y-85759093D01*
X191484943Y-85717936D01*
X191499126Y-85702792D01*
X191539281Y-85665410D01*
X191593665Y-85694698D01*
X191628039Y-85715684D01*
X191646846Y-85731978D01*
X191648049Y-85734907D01*
X191660903Y-85747328D01*
X191682896Y-85756577D01*
X191704150Y-85764913D01*
X191736694Y-85780749D01*
X191783322Y-85805633D01*
X191846829Y-85841109D01*
X191930008Y-85888723D01*
X192035653Y-85950022D01*
X192093062Y-85983532D01*
X192160594Y-86023671D01*
X192204885Y-86052259D01*
X192229855Y-86072639D01*
X192239423Y-86088153D01*
X192237508Y-86102146D01*
X192235911Y-86105396D01*
X192220376Y-86125866D01*
X192187136Y-86164265D01*
X192140062Y-86216296D01*
X192083028Y-86277666D01*
X192033700Y-86329690D01*
X191920030Y-86453167D01*
X191831105Y-86560191D01*
X191766134Y-86651840D01*
X191724321Y-86729188D01*
X191710217Y-86768466D01*
X191704392Y-86802849D01*
X191698375Y-86861499D01*
X191692696Y-86937717D01*
X191687884Y-87024802D01*
X191685619Y-87079868D01*
X191682459Y-87175064D01*
X191681069Y-87244662D01*
X191681858Y-87294009D01*
X191685235Y-87328454D01*
X191691608Y-87353343D01*
X191701387Y-87374025D01*
X191709067Y-87386653D01*
X191753421Y-87435326D01*
X191810574Y-87469245D01*
X191870708Y-87484038D01*
X191915773Y-87478686D01*
X191956576Y-87455530D01*
X192007724Y-87414062D01*
X192062042Y-87361512D01*
X192112357Y-87305116D01*
X192151494Y-87252105D01*
X192165905Y-87226489D01*
X192187491Y-87191414D01*
X192226753Y-87137989D01*
X192280102Y-87070389D01*
X192343952Y-86992790D01*
X192414715Y-86909368D01*
X192488804Y-86824298D01*
X192562632Y-86741755D01*
X192632611Y-86665916D01*
X192695155Y-86600956D01*
X192744260Y-86553269D01*
X192798779Y-86505632D01*
X192844642Y-86470508D01*
X192876811Y-86451549D01*
X192887489Y-86449464D01*
X192903853Y-86457874D01*
X192944671Y-86480446D01*
X193007586Y-86515824D01*
X193090244Y-86562654D01*
X193190289Y-86619581D01*
X193305366Y-86685249D01*
X193433119Y-86758303D01*
X193571194Y-86837388D01*
X193717234Y-86921148D01*
X193868884Y-87008229D01*
X194023790Y-87097276D01*
X194179595Y-87186932D01*
X194333944Y-87275843D01*
X194484482Y-87362654D01*
X194628854Y-87446009D01*
X194764704Y-87524554D01*
X194889677Y-87596933D01*
X195001417Y-87661790D01*
X195097570Y-87717771D01*
X195175779Y-87763520D01*
X195233689Y-87797683D01*
X195268946Y-87818904D01*
X195279165Y-87825563D01*
X195265402Y-87826880D01*
X195222104Y-87828159D01*
X195150714Y-87829396D01*
X195052673Y-87830583D01*
X194929422Y-87831715D01*
X194782403Y-87832786D01*
X194613057Y-87833789D01*
X194422826Y-87834719D01*
X194213151Y-87835568D01*
X193985473Y-87836332D01*
X193741235Y-87837003D01*
X193481877Y-87837576D01*
X193208841Y-87838044D01*
X192923568Y-87838402D01*
X192627500Y-87838642D01*
X192322079Y-87838759D01*
X192193924Y-87838771D01*
X189093970Y-87838771D01*
X189315053Y-87455447D01*
X189361856Y-87374280D01*
X189422102Y-87269766D01*
X189493778Y-87145401D01*
X189574869Y-87004682D01*
X189663362Y-86851103D01*
X189757240Y-86688162D01*
X189854491Y-86519354D01*
X189953100Y-86348175D01*
X190051053Y-86178121D01*
X190075825Y-86135112D01*
X190166152Y-85978457D01*
X190252289Y-85829403D01*
X190332942Y-85690168D01*
X190406816Y-85562971D01*
X190472617Y-85450032D01*
X190529050Y-85353568D01*
X190574821Y-85275800D01*
X190608635Y-85218946D01*
X190629198Y-85185225D01*
X190634953Y-85176640D01*
X190647058Y-85169789D01*
X190667094Y-85171758D01*
G36*
X190667094Y-85171758D02*
G01*
X190699619Y-85184336D01*
X190749193Y-85209312D01*
X190820374Y-85248476D01*
X190825916Y-85251588D01*
X190891474Y-85289076D01*
X190946798Y-85321919D01*
X190986455Y-85346805D01*
X191005012Y-85360420D01*
X191005531Y-85361087D01*
X191001048Y-85379990D01*
X190980486Y-85422205D01*
X190945183Y-85485432D01*
X190896480Y-85567372D01*
X190835718Y-85665722D01*
X190764236Y-85778185D01*
X190746445Y-85805765D01*
X190700093Y-85882299D01*
X190666342Y-85948156D01*
X190648153Y-85997382D01*
X190646286Y-86007107D01*
X190647115Y-86049912D01*
X190656394Y-86117809D01*
X190672968Y-86206443D01*
X190695680Y-86311459D01*
X190723373Y-86428502D01*
X190754890Y-86553216D01*
X190789075Y-86681245D01*
X190824771Y-86808234D01*
X190860821Y-86929828D01*
X190896068Y-87041672D01*
X190929356Y-87139410D01*
X190959528Y-87218687D01*
X190980561Y-87265722D01*
X191005337Y-87315825D01*
X191028730Y-87363768D01*
X191029997Y-87366393D01*
X191068699Y-87414820D01*
X191125184Y-87447428D01*
X191190939Y-87463054D01*
X191257451Y-87460537D01*
X191316205Y-87438714D01*
X191349258Y-87409982D01*
X191396859Y-87331183D01*
X191431739Y-87232978D01*
X191450877Y-87125379D01*
X191453588Y-87064380D01*
X191442670Y-86950535D01*
X191410624Y-86856260D01*
X191355726Y-86776979D01*
X191338607Y-86759333D01*
X191287661Y-86709835D01*
X191284163Y-86359962D01*
X191280664Y-86010089D01*
X191369818Y-85875131D01*
X191411654Y-85814045D01*
X191451945Y-85759093D01*
X191484943Y-85717936D01*
X191499126Y-85702792D01*
X191539281Y-85665410D01*
X191593665Y-85694698D01*
X191628039Y-85715684D01*
X191646846Y-85731978D01*
X191648049Y-85734907D01*
X191660903Y-85747328D01*
X191682896Y-85756577D01*
X191704150Y-85764913D01*
X191736694Y-85780749D01*
X191783322Y-85805633D01*
X191846829Y-85841109D01*
X191930008Y-85888723D01*
X192035653Y-85950022D01*
X192093062Y-85983532D01*
X192160594Y-86023671D01*
X192204885Y-86052259D01*
X192229855Y-86072639D01*
X192239423Y-86088153D01*
X192237508Y-86102146D01*
X192235911Y-86105396D01*
X192220376Y-86125866D01*
X192187136Y-86164265D01*
X192140062Y-86216296D01*
X192083028Y-86277666D01*
X192033700Y-86329690D01*
X191920030Y-86453167D01*
X191831105Y-86560191D01*
X191766134Y-86651840D01*
X191724321Y-86729188D01*
X191710217Y-86768466D01*
X191704392Y-86802849D01*
X191698375Y-86861499D01*
X191692696Y-86937717D01*
X191687884Y-87024802D01*
X191685619Y-87079868D01*
X191682459Y-87175064D01*
X191681069Y-87244662D01*
X191681858Y-87294009D01*
X191685235Y-87328454D01*
X191691608Y-87353343D01*
X191701387Y-87374025D01*
X191709067Y-87386653D01*
X191753421Y-87435326D01*
X191810574Y-87469245D01*
X191870708Y-87484038D01*
X191915773Y-87478686D01*
X191956576Y-87455530D01*
X192007724Y-87414062D01*
X192062042Y-87361512D01*
X192112357Y-87305116D01*
X192151494Y-87252105D01*
X192165905Y-87226489D01*
X192187491Y-87191414D01*
X192226753Y-87137989D01*
X192280102Y-87070389D01*
X192343952Y-86992790D01*
X192414715Y-86909368D01*
X192488804Y-86824298D01*
X192562632Y-86741755D01*
X192632611Y-86665916D01*
X192695155Y-86600956D01*
X192744260Y-86553269D01*
X192798779Y-86505632D01*
X192844642Y-86470508D01*
X192876811Y-86451549D01*
X192887489Y-86449464D01*
X192903853Y-86457874D01*
X192944671Y-86480446D01*
X193007586Y-86515824D01*
X193090244Y-86562654D01*
X193190289Y-86619581D01*
X193305366Y-86685249D01*
X193433119Y-86758303D01*
X193571194Y-86837388D01*
X193717234Y-86921148D01*
X193868884Y-87008229D01*
X194023790Y-87097276D01*
X194179595Y-87186932D01*
X194333944Y-87275843D01*
X194484482Y-87362654D01*
X194628854Y-87446009D01*
X194764704Y-87524554D01*
X194889677Y-87596933D01*
X195001417Y-87661790D01*
X195097570Y-87717771D01*
X195175779Y-87763520D01*
X195233689Y-87797683D01*
X195268946Y-87818904D01*
X195279165Y-87825563D01*
X195265402Y-87826880D01*
X195222104Y-87828159D01*
X195150714Y-87829396D01*
X195052673Y-87830583D01*
X194929422Y-87831715D01*
X194782403Y-87832786D01*
X194613057Y-87833789D01*
X194422826Y-87834719D01*
X194213151Y-87835568D01*
X193985473Y-87836332D01*
X193741235Y-87837003D01*
X193481877Y-87837576D01*
X193208841Y-87838044D01*
X192923568Y-87838402D01*
X192627500Y-87838642D01*
X192322079Y-87838759D01*
X192193924Y-87838771D01*
X189093970Y-87838771D01*
X189315053Y-87455447D01*
X189361856Y-87374280D01*
X189422102Y-87269766D01*
X189493778Y-87145401D01*
X189574869Y-87004682D01*
X189663362Y-86851103D01*
X189757240Y-86688162D01*
X189854491Y-86519354D01*
X189953100Y-86348175D01*
X190051053Y-86178121D01*
X190075825Y-86135112D01*
X190166152Y-85978457D01*
X190252289Y-85829403D01*
X190332942Y-85690168D01*
X190406816Y-85562971D01*
X190472617Y-85450032D01*
X190529050Y-85353568D01*
X190574821Y-85275800D01*
X190608635Y-85218946D01*
X190629198Y-85185225D01*
X190634953Y-85176640D01*
X190647058Y-85169789D01*
X190667094Y-85171758D01*
G37*
X103672094Y-68661758D02*
X103704619Y-68674336D01*
X103754193Y-68699312D01*
X103825374Y-68738476D01*
X103830916Y-68741588D01*
X103896474Y-68779076D01*
X103951798Y-68811919D01*
X103991455Y-68836805D01*
X104010012Y-68850420D01*
X104010531Y-68851087D01*
X104006048Y-68869990D01*
X103985486Y-68912205D01*
X103950183Y-68975432D01*
X103901480Y-69057372D01*
X103840718Y-69155722D01*
X103769236Y-69268185D01*
X103751445Y-69295765D01*
X103705093Y-69372299D01*
X103671342Y-69438156D01*
X103653153Y-69487382D01*
X103651286Y-69497107D01*
X103652115Y-69539912D01*
X103661394Y-69607809D01*
X103677968Y-69696443D01*
X103700680Y-69801459D01*
X103728373Y-69918502D01*
X103759890Y-70043216D01*
X103794075Y-70171245D01*
X103829771Y-70298234D01*
X103865821Y-70419828D01*
X103901068Y-70531672D01*
X103934356Y-70629410D01*
X103964528Y-70708687D01*
X103985561Y-70755722D01*
X104010337Y-70805825D01*
X104033730Y-70853768D01*
X104034997Y-70856393D01*
X104073699Y-70904820D01*
X104130184Y-70937428D01*
X104195939Y-70953054D01*
X104262451Y-70950537D01*
X104321205Y-70928714D01*
X104354258Y-70899982D01*
X104401859Y-70821183D01*
X104436739Y-70722978D01*
X104455877Y-70615379D01*
X104458588Y-70554380D01*
X104447670Y-70440535D01*
X104415624Y-70346260D01*
X104360726Y-70266979D01*
X104343607Y-70249333D01*
X104292661Y-70199835D01*
X104289163Y-69849962D01*
X104285664Y-69500089D01*
X104374818Y-69365131D01*
X104416654Y-69304045D01*
X104456945Y-69249093D01*
X104489943Y-69207936D01*
X104504126Y-69192792D01*
X104544281Y-69155410D01*
X104598665Y-69184698D01*
X104633039Y-69205684D01*
X104651846Y-69221978D01*
X104653049Y-69224907D01*
X104665903Y-69237328D01*
X104687896Y-69246577D01*
X104709150Y-69254913D01*
X104741694Y-69270749D01*
X104788322Y-69295633D01*
X104851829Y-69331109D01*
X104935008Y-69378723D01*
X105040653Y-69440022D01*
X105098062Y-69473532D01*
X105165594Y-69513671D01*
X105209885Y-69542259D01*
X105234855Y-69562639D01*
X105244423Y-69578153D01*
X105242508Y-69592146D01*
X105240911Y-69595396D01*
X105225376Y-69615866D01*
X105192136Y-69654265D01*
X105145062Y-69706296D01*
X105088028Y-69767666D01*
X105038700Y-69819690D01*
X104925030Y-69943167D01*
X104836105Y-70050191D01*
X104771134Y-70141840D01*
X104729321Y-70219188D01*
X104715217Y-70258466D01*
X104709392Y-70292849D01*
X104703375Y-70351499D01*
X104697696Y-70427717D01*
X104692884Y-70514802D01*
X104690619Y-70569868D01*
X104687459Y-70665064D01*
X104686069Y-70734662D01*
X104686858Y-70784009D01*
X104690235Y-70818454D01*
X104696608Y-70843343D01*
X104706387Y-70864025D01*
X104714067Y-70876653D01*
X104758421Y-70925326D01*
X104815574Y-70959245D01*
X104875708Y-70974038D01*
X104920773Y-70968686D01*
X104961576Y-70945530D01*
X105012724Y-70904062D01*
X105067042Y-70851512D01*
X105117357Y-70795116D01*
X105156494Y-70742105D01*
X105170905Y-70716489D01*
X105192491Y-70681414D01*
X105231753Y-70627989D01*
X105285102Y-70560389D01*
X105348952Y-70482790D01*
X105419715Y-70399368D01*
X105493804Y-70314298D01*
X105567632Y-70231755D01*
X105637611Y-70155916D01*
X105700155Y-70090956D01*
X105749260Y-70043269D01*
X105803779Y-69995632D01*
X105849642Y-69960508D01*
X105881811Y-69941549D01*
X105892489Y-69939464D01*
X105908853Y-69947874D01*
X105949671Y-69970446D01*
X106012586Y-70005824D01*
X106095244Y-70052654D01*
X106195289Y-70109581D01*
X106310366Y-70175249D01*
X106438119Y-70248303D01*
X106576194Y-70327388D01*
X106722234Y-70411148D01*
X106873884Y-70498229D01*
X107028790Y-70587276D01*
X107184595Y-70676932D01*
X107338944Y-70765843D01*
X107489482Y-70852654D01*
X107633854Y-70936009D01*
X107769704Y-71014554D01*
X107894677Y-71086933D01*
X108006417Y-71151790D01*
X108102570Y-71207771D01*
X108180779Y-71253520D01*
X108238689Y-71287683D01*
X108273946Y-71308904D01*
X108284165Y-71315563D01*
X108270402Y-71316880D01*
X108227104Y-71318159D01*
X108155714Y-71319396D01*
X108057673Y-71320583D01*
X107934422Y-71321715D01*
X107787403Y-71322786D01*
X107618057Y-71323789D01*
X107427826Y-71324719D01*
X107218151Y-71325568D01*
X106990473Y-71326332D01*
X106746235Y-71327003D01*
X106486877Y-71327576D01*
X106213841Y-71328044D01*
X105928568Y-71328402D01*
X105632500Y-71328642D01*
X105327079Y-71328759D01*
X105198924Y-71328771D01*
X102098970Y-71328771D01*
X102320053Y-70945447D01*
X102366856Y-70864280D01*
X102427102Y-70759766D01*
X102498778Y-70635401D01*
X102579869Y-70494682D01*
X102668362Y-70341103D01*
X102762240Y-70178162D01*
X102859491Y-70009354D01*
X102958100Y-69838175D01*
X103056053Y-69668121D01*
X103080825Y-69625112D01*
X103171152Y-69468457D01*
X103257289Y-69319403D01*
X103337942Y-69180168D01*
X103411816Y-69052971D01*
X103477617Y-68940032D01*
X103534050Y-68843568D01*
X103579821Y-68765800D01*
X103613635Y-68708946D01*
X103634198Y-68675225D01*
X103639953Y-68666640D01*
X103652058Y-68659789D01*
X103672094Y-68661758D01*
G36*
X103672094Y-68661758D02*
G01*
X103704619Y-68674336D01*
X103754193Y-68699312D01*
X103825374Y-68738476D01*
X103830916Y-68741588D01*
X103896474Y-68779076D01*
X103951798Y-68811919D01*
X103991455Y-68836805D01*
X104010012Y-68850420D01*
X104010531Y-68851087D01*
X104006048Y-68869990D01*
X103985486Y-68912205D01*
X103950183Y-68975432D01*
X103901480Y-69057372D01*
X103840718Y-69155722D01*
X103769236Y-69268185D01*
X103751445Y-69295765D01*
X103705093Y-69372299D01*
X103671342Y-69438156D01*
X103653153Y-69487382D01*
X103651286Y-69497107D01*
X103652115Y-69539912D01*
X103661394Y-69607809D01*
X103677968Y-69696443D01*
X103700680Y-69801459D01*
X103728373Y-69918502D01*
X103759890Y-70043216D01*
X103794075Y-70171245D01*
X103829771Y-70298234D01*
X103865821Y-70419828D01*
X103901068Y-70531672D01*
X103934356Y-70629410D01*
X103964528Y-70708687D01*
X103985561Y-70755722D01*
X104010337Y-70805825D01*
X104033730Y-70853768D01*
X104034997Y-70856393D01*
X104073699Y-70904820D01*
X104130184Y-70937428D01*
X104195939Y-70953054D01*
X104262451Y-70950537D01*
X104321205Y-70928714D01*
X104354258Y-70899982D01*
X104401859Y-70821183D01*
X104436739Y-70722978D01*
X104455877Y-70615379D01*
X104458588Y-70554380D01*
X104447670Y-70440535D01*
X104415624Y-70346260D01*
X104360726Y-70266979D01*
X104343607Y-70249333D01*
X104292661Y-70199835D01*
X104289163Y-69849962D01*
X104285664Y-69500089D01*
X104374818Y-69365131D01*
X104416654Y-69304045D01*
X104456945Y-69249093D01*
X104489943Y-69207936D01*
X104504126Y-69192792D01*
X104544281Y-69155410D01*
X104598665Y-69184698D01*
X104633039Y-69205684D01*
X104651846Y-69221978D01*
X104653049Y-69224907D01*
X104665903Y-69237328D01*
X104687896Y-69246577D01*
X104709150Y-69254913D01*
X104741694Y-69270749D01*
X104788322Y-69295633D01*
X104851829Y-69331109D01*
X104935008Y-69378723D01*
X105040653Y-69440022D01*
X105098062Y-69473532D01*
X105165594Y-69513671D01*
X105209885Y-69542259D01*
X105234855Y-69562639D01*
X105244423Y-69578153D01*
X105242508Y-69592146D01*
X105240911Y-69595396D01*
X105225376Y-69615866D01*
X105192136Y-69654265D01*
X105145062Y-69706296D01*
X105088028Y-69767666D01*
X105038700Y-69819690D01*
X104925030Y-69943167D01*
X104836105Y-70050191D01*
X104771134Y-70141840D01*
X104729321Y-70219188D01*
X104715217Y-70258466D01*
X104709392Y-70292849D01*
X104703375Y-70351499D01*
X104697696Y-70427717D01*
X104692884Y-70514802D01*
X104690619Y-70569868D01*
X104687459Y-70665064D01*
X104686069Y-70734662D01*
X104686858Y-70784009D01*
X104690235Y-70818454D01*
X104696608Y-70843343D01*
X104706387Y-70864025D01*
X104714067Y-70876653D01*
X104758421Y-70925326D01*
X104815574Y-70959245D01*
X104875708Y-70974038D01*
X104920773Y-70968686D01*
X104961576Y-70945530D01*
X105012724Y-70904062D01*
X105067042Y-70851512D01*
X105117357Y-70795116D01*
X105156494Y-70742105D01*
X105170905Y-70716489D01*
X105192491Y-70681414D01*
X105231753Y-70627989D01*
X105285102Y-70560389D01*
X105348952Y-70482790D01*
X105419715Y-70399368D01*
X105493804Y-70314298D01*
X105567632Y-70231755D01*
X105637611Y-70155916D01*
X105700155Y-70090956D01*
X105749260Y-70043269D01*
X105803779Y-69995632D01*
X105849642Y-69960508D01*
X105881811Y-69941549D01*
X105892489Y-69939464D01*
X105908853Y-69947874D01*
X105949671Y-69970446D01*
X106012586Y-70005824D01*
X106095244Y-70052654D01*
X106195289Y-70109581D01*
X106310366Y-70175249D01*
X106438119Y-70248303D01*
X106576194Y-70327388D01*
X106722234Y-70411148D01*
X106873884Y-70498229D01*
X107028790Y-70587276D01*
X107184595Y-70676932D01*
X107338944Y-70765843D01*
X107489482Y-70852654D01*
X107633854Y-70936009D01*
X107769704Y-71014554D01*
X107894677Y-71086933D01*
X108006417Y-71151790D01*
X108102570Y-71207771D01*
X108180779Y-71253520D01*
X108238689Y-71287683D01*
X108273946Y-71308904D01*
X108284165Y-71315563D01*
X108270402Y-71316880D01*
X108227104Y-71318159D01*
X108155714Y-71319396D01*
X108057673Y-71320583D01*
X107934422Y-71321715D01*
X107787403Y-71322786D01*
X107618057Y-71323789D01*
X107427826Y-71324719D01*
X107218151Y-71325568D01*
X106990473Y-71326332D01*
X106746235Y-71327003D01*
X106486877Y-71327576D01*
X106213841Y-71328044D01*
X105928568Y-71328402D01*
X105632500Y-71328642D01*
X105327079Y-71328759D01*
X105198924Y-71328771D01*
X102098970Y-71328771D01*
X102320053Y-70945447D01*
X102366856Y-70864280D01*
X102427102Y-70759766D01*
X102498778Y-70635401D01*
X102579869Y-70494682D01*
X102668362Y-70341103D01*
X102762240Y-70178162D01*
X102859491Y-70009354D01*
X102958100Y-69838175D01*
X103056053Y-69668121D01*
X103080825Y-69625112D01*
X103171152Y-69468457D01*
X103257289Y-69319403D01*
X103337942Y-69180168D01*
X103411816Y-69052971D01*
X103477617Y-68940032D01*
X103534050Y-68843568D01*
X103579821Y-68765800D01*
X103613635Y-68708946D01*
X103634198Y-68675225D01*
X103639953Y-68666640D01*
X103652058Y-68659789D01*
X103672094Y-68661758D01*
G37*
X105514043Y-65456435D02*
X105537065Y-65493845D01*
X105572534Y-65553114D01*
X105618996Y-65631718D01*
X105674996Y-65727138D01*
X105739081Y-65836850D01*
X105809796Y-65958334D01*
X105885687Y-66089068D01*
X105965299Y-66226530D01*
X106047178Y-66368198D01*
X106129870Y-66511551D01*
X106211921Y-66654067D01*
X106291876Y-66793224D01*
X106368281Y-66926501D01*
X106439682Y-67051376D01*
X106504624Y-67165327D01*
X106561653Y-67265833D01*
X106609315Y-67350372D01*
X106646155Y-67416422D01*
X106670720Y-67461462D01*
X106681554Y-67482970D01*
X106681951Y-67484314D01*
X106668501Y-67502565D01*
X106631114Y-67530482D01*
X106574235Y-67565325D01*
X106502312Y-67604354D01*
X106427015Y-67641443D01*
X106324560Y-67686417D01*
X106216817Y-67726826D01*
X106100073Y-67763569D01*
X105970618Y-67797542D01*
X105824740Y-67829644D01*
X105658726Y-67860773D01*
X105468866Y-67891827D01*
X105272469Y-67920745D01*
X105101834Y-67946400D01*
X104958545Y-67971798D01*
X104839008Y-67998202D01*
X104739630Y-68026873D01*
X104656818Y-68059073D01*
X104586978Y-68096065D01*
X104526518Y-68139112D01*
X104471845Y-68189475D01*
X104454214Y-68208183D01*
X104416000Y-68251739D01*
X104387732Y-68287282D01*
X104374618Y-68308183D01*
X104374268Y-68309897D01*
X104369680Y-68320406D01*
X104353758Y-68320524D01*
X104323266Y-68308854D01*
X104274968Y-68283996D01*
X104205627Y-68244552D01*
X104157439Y-68216187D01*
X104085583Y-68171847D01*
X104029742Y-68133879D01*
X103993667Y-68105016D01*
X103981113Y-68087988D01*
X103981121Y-68087864D01*
X103988906Y-68071637D01*
X104010892Y-68031000D01*
X104045803Y-67968167D01*
X104092363Y-67885352D01*
X104149295Y-67784772D01*
X104215323Y-67668640D01*
X104289172Y-67539171D01*
X104369564Y-67398580D01*
X104455224Y-67249082D01*
X104544876Y-67092892D01*
X104637243Y-66932224D01*
X104731049Y-66769293D01*
X104825018Y-66606313D01*
X104917874Y-66445500D01*
X105008340Y-66289068D01*
X105095141Y-66139233D01*
X105177000Y-65998208D01*
X105252641Y-65868209D01*
X105320787Y-65751449D01*
X105380163Y-65650145D01*
X105429493Y-65566511D01*
X105467500Y-65502762D01*
X105492907Y-65461111D01*
X105504440Y-65443775D01*
X105504923Y-65443405D01*
X105514043Y-65456435D01*
G36*
X105514043Y-65456435D02*
G01*
X105537065Y-65493845D01*
X105572534Y-65553114D01*
X105618996Y-65631718D01*
X105674996Y-65727138D01*
X105739081Y-65836850D01*
X105809796Y-65958334D01*
X105885687Y-66089068D01*
X105965299Y-66226530D01*
X106047178Y-66368198D01*
X106129870Y-66511551D01*
X106211921Y-66654067D01*
X106291876Y-66793224D01*
X106368281Y-66926501D01*
X106439682Y-67051376D01*
X106504624Y-67165327D01*
X106561653Y-67265833D01*
X106609315Y-67350372D01*
X106646155Y-67416422D01*
X106670720Y-67461462D01*
X106681554Y-67482970D01*
X106681951Y-67484314D01*
X106668501Y-67502565D01*
X106631114Y-67530482D01*
X106574235Y-67565325D01*
X106502312Y-67604354D01*
X106427015Y-67641443D01*
X106324560Y-67686417D01*
X106216817Y-67726826D01*
X106100073Y-67763569D01*
X105970618Y-67797542D01*
X105824740Y-67829644D01*
X105658726Y-67860773D01*
X105468866Y-67891827D01*
X105272469Y-67920745D01*
X105101834Y-67946400D01*
X104958545Y-67971798D01*
X104839008Y-67998202D01*
X104739630Y-68026873D01*
X104656818Y-68059073D01*
X104586978Y-68096065D01*
X104526518Y-68139112D01*
X104471845Y-68189475D01*
X104454214Y-68208183D01*
X104416000Y-68251739D01*
X104387732Y-68287282D01*
X104374618Y-68308183D01*
X104374268Y-68309897D01*
X104369680Y-68320406D01*
X104353758Y-68320524D01*
X104323266Y-68308854D01*
X104274968Y-68283996D01*
X104205627Y-68244552D01*
X104157439Y-68216187D01*
X104085583Y-68171847D01*
X104029742Y-68133879D01*
X103993667Y-68105016D01*
X103981113Y-68087988D01*
X103981121Y-68087864D01*
X103988906Y-68071637D01*
X104010892Y-68031000D01*
X104045803Y-67968167D01*
X104092363Y-67885352D01*
X104149295Y-67784772D01*
X104215323Y-67668640D01*
X104289172Y-67539171D01*
X104369564Y-67398580D01*
X104455224Y-67249082D01*
X104544876Y-67092892D01*
X104637243Y-66932224D01*
X104731049Y-66769293D01*
X104825018Y-66606313D01*
X104917874Y-66445500D01*
X105008340Y-66289068D01*
X105095141Y-66139233D01*
X105177000Y-65998208D01*
X105252641Y-65868209D01*
X105320787Y-65751449D01*
X105380163Y-65650145D01*
X105429493Y-65566511D01*
X105467500Y-65502762D01*
X105492907Y-65461111D01*
X105504440Y-65443775D01*
X105504923Y-65443405D01*
X105514043Y-65456435D01*
G37*
X107337528Y-68605219D02*
X107348908Y-68624293D01*
X107374488Y-68668021D01*
X107413002Y-68734219D01*
X107463186Y-68820702D01*
X107523775Y-68925285D01*
X107593503Y-69045783D01*
X107671107Y-69180012D01*
X107755320Y-69325787D01*
X107844879Y-69480923D01*
X107936998Y-69640600D01*
X108031076Y-69803717D01*
X108121402Y-69960309D01*
X108206665Y-70108106D01*
X108285557Y-70244840D01*
X108356769Y-70368242D01*
X108418991Y-70476044D01*
X108470913Y-70565977D01*
X108511228Y-70635773D01*
X108538624Y-70683164D01*
X108551507Y-70705386D01*
X108572507Y-70742930D01*
X108583925Y-70766431D01*
X108584551Y-70770520D01*
X108570636Y-70762842D01*
X108531941Y-70740803D01*
X108470487Y-70705571D01*
X108388298Y-70658311D01*
X108287396Y-70600189D01*
X108169805Y-70532371D01*
X108037546Y-70456024D01*
X107892642Y-70372314D01*
X107737117Y-70282406D01*
X107572992Y-70187467D01*
X107510549Y-70151332D01*
X107343487Y-70054683D01*
X107184074Y-69962538D01*
X107034355Y-69876075D01*
X106896376Y-69796471D01*
X106772185Y-69724905D01*
X106663827Y-69662555D01*
X106573348Y-69610598D01*
X106502796Y-69570213D01*
X106454215Y-69542578D01*
X106429654Y-69528872D01*
X106427085Y-69527574D01*
X106434569Y-69515820D01*
X106460614Y-69484395D01*
X106502559Y-69436194D01*
X106557746Y-69374110D01*
X106623517Y-69301039D01*
X106697212Y-69219876D01*
X106776173Y-69133516D01*
X106857740Y-69044853D01*
X106939254Y-68956782D01*
X107018057Y-68872199D01*
X107091490Y-68793997D01*
X107156893Y-68725072D01*
X107211608Y-68668319D01*
X107252977Y-68626632D01*
X107267164Y-68612963D01*
X107314180Y-68568801D01*
X107337528Y-68605219D01*
G36*
X107337528Y-68605219D02*
G01*
X107348908Y-68624293D01*
X107374488Y-68668021D01*
X107413002Y-68734219D01*
X107463186Y-68820702D01*
X107523775Y-68925285D01*
X107593503Y-69045783D01*
X107671107Y-69180012D01*
X107755320Y-69325787D01*
X107844879Y-69480923D01*
X107936998Y-69640600D01*
X108031076Y-69803717D01*
X108121402Y-69960309D01*
X108206665Y-70108106D01*
X108285557Y-70244840D01*
X108356769Y-70368242D01*
X108418991Y-70476044D01*
X108470913Y-70565977D01*
X108511228Y-70635773D01*
X108538624Y-70683164D01*
X108551507Y-70705386D01*
X108572507Y-70742930D01*
X108583925Y-70766431D01*
X108584551Y-70770520D01*
X108570636Y-70762842D01*
X108531941Y-70740803D01*
X108470487Y-70705571D01*
X108388298Y-70658311D01*
X108287396Y-70600189D01*
X108169805Y-70532371D01*
X108037546Y-70456024D01*
X107892642Y-70372314D01*
X107737117Y-70282406D01*
X107572992Y-70187467D01*
X107510549Y-70151332D01*
X107343487Y-70054683D01*
X107184074Y-69962538D01*
X107034355Y-69876075D01*
X106896376Y-69796471D01*
X106772185Y-69724905D01*
X106663827Y-69662555D01*
X106573348Y-69610598D01*
X106502796Y-69570213D01*
X106454215Y-69542578D01*
X106429654Y-69528872D01*
X106427085Y-69527574D01*
X106434569Y-69515820D01*
X106460614Y-69484395D01*
X106502559Y-69436194D01*
X106557746Y-69374110D01*
X106623517Y-69301039D01*
X106697212Y-69219876D01*
X106776173Y-69133516D01*
X106857740Y-69044853D01*
X106939254Y-68956782D01*
X107018057Y-68872199D01*
X107091490Y-68793997D01*
X107156893Y-68725072D01*
X107211608Y-68668319D01*
X107252977Y-68626632D01*
X107267164Y-68612963D01*
X107314180Y-68568801D01*
X107337528Y-68605219D01*
G37*
D13*
X149687727Y-70146644D02*
X149687727Y-73146644D01*
X149687727Y-70146644D02*
X150687727Y-70146644D01*
X150048900Y-82833356D02*
X150067727Y-70526644D01*
X150067727Y-70526644D02*
X161030073Y-70526644D01*
X161030073Y-70526644D02*
X161030073Y-82833356D01*
X161030073Y-82833356D02*
X150048900Y-82833356D01*
X113715400Y-75592500D02*
X113715400Y-84832500D01*
X114870400Y-75592500D02*
X113715400Y-75592500D01*
X114870400Y-84832500D02*
X113715400Y-84832500D01*
X117355400Y-75592500D02*
X116200400Y-75592500D01*
X117355400Y-75592500D02*
X117355400Y-84832500D01*
X117355400Y-84832500D02*
X116200400Y-84832500D01*
X154159264Y-86374800D02*
X152705136Y-86374800D01*
X154159264Y-84554800D02*
X152705136Y-84554800D01*
X138596800Y-81960600D02*
X133086800Y-81960600D01*
X138596800Y-85260600D02*
X133086800Y-85260600D01*
X138596800Y-85260600D02*
X138596800Y-81960600D01*
X135276364Y-68912000D02*
X133822236Y-68912000D01*
X135276364Y-70732000D02*
X133822236Y-70732000D01*
X139533600Y-85260600D02*
X145043600Y-85260600D01*
X139533600Y-81960600D02*
X145043600Y-81960600D01*
X139533600Y-81960600D02*
X139533600Y-85260600D01*
X160113936Y-67488000D02*
X160568064Y-67488000D01*
X160113936Y-68958000D02*
X160568064Y-68958000D01*
X163430264Y-86374800D02*
X161976136Y-86374800D01*
X163430264Y-84554800D02*
X161976136Y-84554800D01*
X113825400Y-69241248D02*
X113825400Y-72013752D01*
X117245400Y-69241248D02*
X117245400Y-72013752D01*
X176243000Y-73818000D02*
X176003000Y-73488000D01*
X176483000Y-73488000D01*
X176243000Y-73818000D01*
G36*
X176243000Y-73818000D02*
G01*
X176003000Y-73488000D01*
X176483000Y-73488000D01*
X176243000Y-73818000D01*
G37*
X178943000Y-78843000D02*
X180893000Y-78843000D01*
X178943000Y-78843000D02*
X176993000Y-78843000D01*
X178943000Y-73723000D02*
X180893000Y-73723000D01*
X178943000Y-73723000D02*
X176993000Y-73723000D01*
X139571400Y-74395800D02*
X139571400Y-79515800D01*
X143221400Y-74395800D02*
X139571400Y-74395800D01*
X143221400Y-74395800D02*
X145171400Y-74395800D01*
X143221400Y-79515800D02*
X139571400Y-79515800D01*
X143221400Y-79515800D02*
X146871400Y-79515800D01*
X146871400Y-74395800D02*
X145171400Y-74395800D01*
X146871400Y-79515800D02*
X146871400Y-74395800D01*
X142451400Y-75205800D02*
X142121400Y-75055800D01*
X142451400Y-74905800D01*
X142451400Y-75205800D01*
G36*
X142451400Y-75205800D02*
G01*
X142121400Y-75055800D01*
X142451400Y-74905800D01*
X142451400Y-75205800D01*
G37*
X142935964Y-68832200D02*
X141481836Y-68832200D01*
X142935964Y-70652200D02*
X141481836Y-70652200D01*
X127455900Y-79310200D02*
X119235900Y-79310200D01*
X119235900Y-73850200D01*
X127455900Y-73850200D01*
X127455900Y-79310200D01*
X125065900Y-77830200D02*
X124735900Y-77980200D01*
X124735900Y-77680200D01*
X125065900Y-77830200D01*
G36*
X125065900Y-77830200D02*
G01*
X124735900Y-77980200D01*
X124735900Y-77680200D01*
X125065900Y-77830200D01*
G37*
%LPC*%
D15*
X133086800Y-77966600D03*
X133086800Y-74466600D03*
X167834000Y-79105000D03*
X167834000Y-74105000D03*
D16*
X152037727Y-72146644D03*
D17*
X159068073Y-72146644D03*
X152037727Y-80333356D03*
X159068073Y-80333356D03*
D18*
X192630000Y-76610000D03*
D15*
X115535400Y-76462500D03*
X115535400Y-83962500D03*
D19*
X151969700Y-85464800D03*
X154894700Y-85464800D03*
D20*
X137086800Y-83610600D03*
X133086800Y-83610600D03*
D19*
X136011800Y-69822000D03*
X133086800Y-69822000D03*
D18*
X105130000Y-76610000D03*
D21*
X145043600Y-83610600D03*
X141043600Y-83610600D03*
D22*
X159428500Y-68223000D03*
X161253500Y-68223000D03*
D19*
X161240700Y-85464800D03*
X164165700Y-85464800D03*
D23*
X115535400Y-68490000D03*
X115535400Y-72765000D03*
D24*
X181418000Y-74378000D03*
X181418000Y-75648000D03*
X181418000Y-76918000D03*
X181418000Y-78188000D03*
X176468000Y-78188000D03*
X176468000Y-76918000D03*
X176468000Y-75648000D03*
X176468000Y-74378000D03*
X140746400Y-75050800D03*
X140746400Y-76320800D03*
X140746400Y-77590800D03*
X140746400Y-78860800D03*
X145696400Y-78860800D03*
X145696400Y-77590800D03*
X145696400Y-76320800D03*
X145696400Y-75050800D03*
D19*
X143671400Y-69742200D03*
X140746400Y-69742200D03*
D25*
X126305000Y-77830200D03*
X120386800Y-77830200D03*
X126305000Y-75330200D03*
X120386800Y-75330200D03*
D26*
X110811000Y-83947000D03*
D27*
X186436000Y-77597000D03*
X186436000Y-83383000D03*
D26*
X110811000Y-68474500D03*
D27*
X186436000Y-70866000D03*
%LPD*%
M02*
