G04 #@! TF.GenerationSoftware,KiCad,Pcbnew,8.0.3*
G04 #@! TF.CreationDate,2025-08-12T15:57:26+07:00*
G04 #@! TF.ProjectId,si-hardware-downled,73692d68-6172-4647-9761-72652d646f77,rev?*
G04 #@! TF.SameCoordinates,Original*
G04 #@! TF.FileFunction,Copper,L1,Top*
G04 #@! TF.FilePolarity,Positive*
%FSLAX46Y46*%
G04 Gerber Fmt 4.6, Leading zero omitted, Abs format (unit mm)*
G04 Created by KiCad (PCBNEW 8.0.3) date 2025-08-12 15:57:26*
%MOMM*%
%LPD*%
G01*
G04 APERTURE LIST*
G04 Aperture macros list*
%AMRoundRect*
0 Rectangle with rounded corners*
0 $1 Rounding radius*
0 $2 $3 $4 $5 $6 $7 $8 $9 X,Y pos of 4 corners*
0 Add a 4 corners polygon primitive as box body*
4,1,4,$2,$3,$4,$5,$6,$7,$8,$9,$2,$3,0*
0 Add four circle primitives for the rounded corners*
1,1,$1+$1,$2,$3*
1,1,$1+$1,$4,$5*
1,1,$1+$1,$6,$7*
1,1,$1+$1,$8,$9*
0 Add four rect primitives between the rounded corners*
20,1,$1+$1,$2,$3,$4,$5,0*
20,1,$1+$1,$4,$5,$6,$7,0*
20,1,$1+$1,$6,$7,$8,$9,0*
20,1,$1+$1,$8,$9,$2,$3,0*%
G04 Aperture macros list end*
G04 #@! TA.AperFunction,ComponentPad*
%ADD10C,1.600000*%
G04 #@! TD*
G04 #@! TA.AperFunction,ComponentPad*
%ADD11R,2.000000X2.000000*%
G04 #@! TD*
G04 #@! TA.AperFunction,ComponentPad*
%ADD12C,2.000000*%
G04 #@! TD*
G04 #@! TA.AperFunction,SMDPad,CuDef*
%ADD13RoundRect,0.250000X0.312500X0.625000X-0.312500X0.625000X-0.312500X-0.625000X0.312500X-0.625000X0*%
G04 #@! TD*
G04 #@! TA.AperFunction,SMDPad,CuDef*
%ADD14RoundRect,0.250000X1.000000X0.650000X-1.000000X0.650000X-1.000000X-0.650000X1.000000X-0.650000X0*%
G04 #@! TD*
G04 #@! TA.AperFunction,SMDPad,CuDef*
%ADD15RoundRect,0.250000X-1.000000X-0.650000X1.000000X-0.650000X1.000000X0.650000X-1.000000X0.650000X0*%
G04 #@! TD*
G04 #@! TA.AperFunction,SMDPad,CuDef*
%ADD16RoundRect,0.250000X-0.262500X-0.450000X0.262500X-0.450000X0.262500X0.450000X-0.262500X0.450000X0*%
G04 #@! TD*
G04 #@! TA.AperFunction,SMDPad,CuDef*
%ADD17RoundRect,0.250000X-1.450000X0.312500X-1.450000X-0.312500X1.450000X-0.312500X1.450000X0.312500X0*%
G04 #@! TD*
G04 #@! TA.AperFunction,SMDPad,CuDef*
%ADD18RoundRect,0.150000X-0.825000X-0.150000X0.825000X-0.150000X0.825000X0.150000X-0.825000X0.150000X0*%
G04 #@! TD*
G04 #@! TA.AperFunction,SMDPad,CuDef*
%ADD19R,1.792199X0.862800*%
G04 #@! TD*
G04 #@! TA.AperFunction,ComponentPad*
%ADD20RoundRect,0.250001X-1.149999X1.149999X-1.149999X-1.149999X1.149999X-1.149999X1.149999X1.149999X0*%
G04 #@! TD*
G04 #@! TA.AperFunction,ComponentPad*
%ADD21C,2.800000*%
G04 #@! TD*
G04 #@! TA.AperFunction,ViaPad*
%ADD22C,0.800000*%
G04 #@! TD*
G04 #@! TA.AperFunction,Conductor*
%ADD23C,0.750000*%
G04 #@! TD*
G04 #@! TA.AperFunction,Conductor*
%ADD24C,0.500000*%
G04 #@! TD*
G04 APERTURE END LIST*
D10*
X133086800Y-77966600D03*
X133086800Y-74466600D03*
X167834000Y-79105000D03*
X167834000Y-74105000D03*
D11*
X152037727Y-72146644D03*
D12*
X159068073Y-72146644D03*
X152037727Y-80333356D03*
X159068073Y-80333356D03*
D10*
X115535400Y-76462500D03*
X115535400Y-83962500D03*
D13*
X151969700Y-85464800D03*
X154894700Y-85464800D03*
D14*
X137086800Y-83610600D03*
X133086800Y-83610600D03*
D13*
X136011800Y-69822000D03*
X133086800Y-69822000D03*
D15*
X145043600Y-83610600D03*
X141043600Y-83610600D03*
D16*
X159428500Y-68223000D03*
X161253500Y-68223000D03*
D13*
X161240700Y-85464800D03*
X164165700Y-85464800D03*
D17*
X115535400Y-68490000D03*
X115535400Y-72765000D03*
D18*
X181418000Y-74378000D03*
X181418000Y-75648000D03*
X181418000Y-76918000D03*
X181418000Y-78188000D03*
X176468000Y-78188000D03*
X176468000Y-76918000D03*
X176468000Y-75648000D03*
X176468000Y-74378000D03*
X140746400Y-75050800D03*
X140746400Y-76320800D03*
X140746400Y-77590800D03*
X140746400Y-78860800D03*
X145696400Y-78860800D03*
X145696400Y-77590800D03*
X145696400Y-76320800D03*
X145696400Y-75050800D03*
D13*
X143671400Y-69742200D03*
X140746400Y-69742200D03*
D19*
X126305000Y-77830200D03*
X120386800Y-77830200D03*
X126305000Y-75330200D03*
X120386800Y-75330200D03*
D20*
X110811000Y-83947000D03*
D21*
X186436000Y-77597000D03*
X186436000Y-83383000D03*
D20*
X110811000Y-68474500D03*
D21*
X186436000Y-70866000D03*
D22*
X176852000Y-73351000D03*
X165443033Y-85062000D03*
X176852000Y-72491000D03*
X165443033Y-85922000D03*
X175922000Y-72491000D03*
X166386200Y-85062000D03*
X175922000Y-73351000D03*
X166386200Y-85922000D03*
D23*
X152037727Y-69104673D02*
X152919400Y-68223000D01*
X152919400Y-68223000D02*
X155388000Y-68223000D01*
X152037727Y-72146644D02*
X152037727Y-69104673D01*
D24*
X173472800Y-74644400D02*
X174476400Y-75648000D01*
X174476400Y-75648000D02*
X176468000Y-75648000D01*
X171420200Y-68223000D02*
X173472800Y-70275600D01*
X161253500Y-68223000D02*
X171420200Y-68223000D01*
X173472800Y-70275600D02*
X173472800Y-74644400D01*
X137303200Y-76320800D02*
X140746400Y-76320800D01*
X136011800Y-75029400D02*
X137303200Y-76320800D01*
X136011800Y-69822000D02*
X136011800Y-75029400D01*
X146802800Y-69742200D02*
X143671400Y-69742200D01*
X147742600Y-75660400D02*
X147742600Y-70682000D01*
X147742600Y-70682000D02*
X146802800Y-69742200D01*
X147082200Y-76320800D02*
X147742600Y-75660400D01*
X145696400Y-76320800D02*
X147082200Y-76320800D01*
D23*
X155388000Y-68223000D02*
X159428500Y-68223000D01*
G04 #@! TA.AperFunction,Conductor*
G36*
X161956239Y-84400485D02*
G01*
X162001994Y-84453289D01*
X162013200Y-84504800D01*
X162013200Y-86356800D01*
X161993515Y-86423839D01*
X161940711Y-86469594D01*
X161889200Y-86480800D01*
X154447200Y-86480800D01*
X154380161Y-86461115D01*
X154334406Y-86408311D01*
X154323200Y-86356800D01*
X154323200Y-84504800D01*
X154342885Y-84437761D01*
X154395689Y-84392006D01*
X154447200Y-84380800D01*
X161889200Y-84380800D01*
X161956239Y-84400485D01*
G37*
G04 #@! TD.AperFunction*
G04 #@! TA.AperFunction,Conductor*
G36*
X177315039Y-72010685D02*
G01*
X177360794Y-72063489D01*
X177372000Y-72115000D01*
X177372000Y-74723500D01*
X177352315Y-74790539D01*
X177299511Y-74836294D01*
X177248000Y-74847500D01*
X175576000Y-74847500D01*
X175508961Y-74827815D01*
X175463206Y-74775011D01*
X175452000Y-74723500D01*
X175452000Y-72115000D01*
X175471685Y-72047961D01*
X175524489Y-72002206D01*
X175576000Y-71991000D01*
X177248000Y-71991000D01*
X177315039Y-72010685D01*
G37*
G04 #@! TD.AperFunction*
G04 #@! TA.AperFunction,Conductor*
G36*
X133174947Y-77240400D02*
G01*
X133213800Y-77240400D01*
X133213800Y-79256400D01*
X125514600Y-79256400D01*
X125447561Y-79236715D01*
X125401806Y-79183911D01*
X125390600Y-79132400D01*
X125390600Y-77359200D01*
X125410285Y-77292161D01*
X125463089Y-77246406D01*
X125514600Y-77235200D01*
X133157238Y-77235200D01*
X133174947Y-77240400D01*
G37*
G04 #@! TD.AperFunction*
G04 #@! TA.AperFunction,Conductor*
G36*
X121396639Y-77337285D02*
G01*
X121442394Y-77390089D01*
X121453600Y-77441600D01*
X121453600Y-85194600D01*
X121433915Y-85261639D01*
X121381111Y-85307394D01*
X121329600Y-85318600D01*
X109563400Y-85318600D01*
X109496361Y-85298915D01*
X109450606Y-85246111D01*
X109439400Y-85194600D01*
X109439400Y-82521600D01*
X109459085Y-82454561D01*
X109511889Y-82408806D01*
X109563400Y-82397600D01*
X119294600Y-82397600D01*
X119294600Y-77441600D01*
X119314285Y-77374561D01*
X119367089Y-77328806D01*
X119418600Y-77317600D01*
X121329600Y-77317600D01*
X121396639Y-77337285D01*
G37*
G04 #@! TD.AperFunction*
G04 #@! TA.AperFunction,Conductor*
G36*
X186232039Y-76671685D02*
G01*
X186277794Y-76724489D01*
X186289000Y-76776000D01*
X186289000Y-78341000D01*
X186269315Y-78408039D01*
X186216511Y-78453794D01*
X186165000Y-78465000D01*
X186126765Y-78465000D01*
X186108151Y-78478631D01*
X186066041Y-78486000D01*
X180747000Y-78486000D01*
X180679961Y-78466315D01*
X180634206Y-78413511D01*
X180623000Y-78362000D01*
X180623000Y-77728576D01*
X180622405Y-77723043D01*
X180622405Y-76776000D01*
X180642090Y-76708961D01*
X180694894Y-76663206D01*
X180746405Y-76652000D01*
X186165000Y-76652000D01*
X186232039Y-76671685D01*
G37*
G04 #@! TD.AperFunction*
G04 #@! TA.AperFunction,Conductor*
G36*
X166835239Y-84570085D02*
G01*
X166880994Y-84622889D01*
X166892200Y-84674400D01*
X166892200Y-86273400D01*
X166872515Y-86340439D01*
X166819711Y-86386194D01*
X166768200Y-86397400D01*
X163716200Y-86397400D01*
X163649161Y-86377715D01*
X163603406Y-86324911D01*
X163592200Y-86273400D01*
X163592200Y-84674400D01*
X163611885Y-84607361D01*
X163664689Y-84561606D01*
X163716200Y-84550400D01*
X166768200Y-84550400D01*
X166835239Y-84570085D01*
G37*
G04 #@! TD.AperFunction*
G04 #@! TA.AperFunction,Conductor*
G36*
X121253439Y-72155685D02*
G01*
X121299194Y-72208489D01*
X121310400Y-72260000D01*
X121310400Y-75695000D01*
X121290715Y-75762039D01*
X121237911Y-75807794D01*
X121186400Y-75819000D01*
X118312638Y-75819000D01*
X118310613Y-75819673D01*
X118306235Y-75819750D01*
X117500400Y-75819750D01*
X117500400Y-76910638D01*
X117480715Y-76977677D01*
X117464081Y-76998319D01*
X117155719Y-77306681D01*
X117094396Y-77340166D01*
X117068038Y-77343000D01*
X114376762Y-77343000D01*
X114309723Y-77323315D01*
X114289081Y-77306681D01*
X113853719Y-76871319D01*
X113820234Y-76809996D01*
X113817400Y-76783638D01*
X113817400Y-72260000D01*
X113837085Y-72192961D01*
X113889889Y-72147206D01*
X113941400Y-72136000D01*
X121186400Y-72136000D01*
X121253439Y-72155685D01*
G37*
G04 #@! TD.AperFunction*
G04 #@! TA.AperFunction,Conductor*
G36*
X117256439Y-66948685D02*
G01*
X117302194Y-67001489D01*
X117313400Y-67053000D01*
X117313400Y-69726000D01*
X117293715Y-69793039D01*
X117240911Y-69838794D01*
X117189400Y-69850000D01*
X109563400Y-69850000D01*
X109496361Y-69830315D01*
X109450606Y-69777511D01*
X109439400Y-69726000D01*
X109439400Y-67053000D01*
X109459085Y-66985961D01*
X109511889Y-66940206D01*
X109563400Y-66929000D01*
X117189400Y-66929000D01*
X117256439Y-66948685D01*
G37*
G04 #@! TD.AperFunction*
G04 #@! TA.AperFunction,Conductor*
G36*
X186759039Y-69986685D02*
G01*
X186804794Y-70039489D01*
X186816000Y-70091000D01*
X186816000Y-71758000D01*
X186796315Y-71825039D01*
X186743511Y-71870794D01*
X186692000Y-71882000D01*
X182372000Y-71882000D01*
X182372000Y-75809000D01*
X182352315Y-75876039D01*
X182299511Y-75921794D01*
X182248000Y-75933000D01*
X180579785Y-75933000D01*
X180512746Y-75913315D01*
X180466991Y-75860511D01*
X180455785Y-75809000D01*
X180455785Y-70091000D01*
X180475470Y-70023961D01*
X180528274Y-69978206D01*
X180579785Y-69967000D01*
X186692000Y-69967000D01*
X186759039Y-69986685D01*
G37*
G04 #@! TD.AperFunction*
G04 #@! TA.AperFunction,Conductor*
G36*
X142068677Y-78308685D02*
G01*
X142089319Y-78325319D01*
X142397681Y-78633681D01*
X142431166Y-78695004D01*
X142434000Y-78721362D01*
X142434000Y-86772600D01*
X151044600Y-86772600D01*
X151044600Y-80318000D01*
X151064285Y-80250961D01*
X151117089Y-80205206D01*
X151168600Y-80194000D01*
X152851000Y-80194000D01*
X152918039Y-80213685D01*
X152963794Y-80266489D01*
X152975000Y-80318000D01*
X152975000Y-88096400D01*
X152955315Y-88163439D01*
X152902511Y-88209194D01*
X152851000Y-88220400D01*
X136081000Y-88220400D01*
X136013961Y-88200715D01*
X135968206Y-88147911D01*
X135957000Y-88096400D01*
X135957000Y-80826000D01*
X135976685Y-80758961D01*
X136029489Y-80713206D01*
X136081000Y-80702000D01*
X139767000Y-80702000D01*
X139767000Y-78721362D01*
X139786685Y-78654323D01*
X139803319Y-78633681D01*
X140009381Y-78427619D01*
X140070704Y-78394134D01*
X140097062Y-78391300D01*
X141637086Y-78391300D01*
X141637094Y-78391300D01*
X141673969Y-78388398D01*
X141673971Y-78388397D01*
X141673973Y-78388397D01*
X141715591Y-78376305D01*
X141831798Y-78342544D01*
X141893138Y-78306267D01*
X141956258Y-78289000D01*
X142001638Y-78289000D01*
X142068677Y-78308685D01*
G37*
G04 #@! TD.AperFunction*
G04 #@! TA.AperFunction,Conductor*
G36*
X167859400Y-74898400D02*
G01*
X167665400Y-74898400D01*
X161128400Y-74898400D01*
X158179000Y-74898400D01*
X158111961Y-74878715D01*
X158066206Y-74825911D01*
X158055000Y-74774400D01*
X158055000Y-73349000D01*
X160087000Y-73349000D01*
X167859400Y-73349000D01*
X167859400Y-74898400D01*
G37*
G04 #@! TD.AperFunction*
G04 #@! TA.AperFunction,Conductor*
G36*
X171893650Y-73368685D02*
G01*
X171939405Y-73421489D01*
X171950611Y-73473000D01*
X171950611Y-74845227D01*
X171948800Y-74851394D01*
X171948800Y-74898400D01*
X167665400Y-74898400D01*
X167665400Y-73349000D01*
X171826611Y-73349000D01*
X171893650Y-73368685D01*
G37*
G04 #@! TD.AperFunction*
G04 #@! TA.AperFunction,Conductor*
G36*
X177362039Y-77870685D02*
G01*
X177407794Y-77923489D01*
X177419000Y-77975000D01*
X177419000Y-79454200D01*
X177399315Y-79521239D01*
X177346511Y-79566994D01*
X177295000Y-79578200D01*
X171366178Y-79578200D01*
X171365442Y-79577984D01*
X171314600Y-79577984D01*
X171314600Y-77851000D01*
X171948800Y-77851000D01*
X177295000Y-77851000D01*
X177362039Y-77870685D01*
G37*
G04 #@! TD.AperFunction*
G04 #@! TA.AperFunction,Conductor*
G36*
X160030039Y-72001285D02*
G01*
X160075794Y-72054089D01*
X160087000Y-72105600D01*
X160087000Y-74877200D01*
X158110648Y-74877200D01*
X158066206Y-74825911D01*
X158055000Y-74774400D01*
X158055000Y-72105600D01*
X158074685Y-72038561D01*
X158127489Y-71992806D01*
X158179000Y-71981600D01*
X159963000Y-71981600D01*
X160030039Y-72001285D01*
G37*
G04 #@! TD.AperFunction*
G04 #@! TA.AperFunction,Conductor*
G36*
X186379039Y-82061685D02*
G01*
X186424794Y-82114489D01*
X186436000Y-82166000D01*
X186436000Y-84458000D01*
X186416315Y-84525039D01*
X186363511Y-84570794D01*
X186312000Y-84582000D01*
X176654000Y-84582000D01*
X176586961Y-84562315D01*
X176541206Y-84509511D01*
X176530000Y-84458000D01*
X176530000Y-82558000D01*
X176530000Y-82042000D01*
X178816000Y-82042000D01*
X186312000Y-82042000D01*
X186379039Y-82061685D01*
G37*
G04 #@! TD.AperFunction*
G04 #@! TA.AperFunction,Conductor*
G36*
X141652339Y-66947285D02*
G01*
X141698094Y-67000089D01*
X141709300Y-67051600D01*
X141709300Y-75211000D01*
X141689615Y-75278039D01*
X141636811Y-75323794D01*
X141585300Y-75335000D01*
X139855200Y-75335000D01*
X139788161Y-75315315D01*
X139742406Y-75262511D01*
X139731200Y-75211000D01*
X139731200Y-68450400D01*
X136418802Y-68450400D01*
X136406200Y-68449758D01*
X136374309Y-68446500D01*
X135649298Y-68446500D01*
X135649282Y-68446501D01*
X135617408Y-68449758D01*
X135604806Y-68450400D01*
X134067000Y-68450400D01*
X134067000Y-75858000D01*
X134047315Y-75925039D01*
X133994511Y-75970794D01*
X133943000Y-75982000D01*
X125453400Y-75982000D01*
X125386361Y-75962315D01*
X125340606Y-75909511D01*
X125329400Y-75858000D01*
X125329400Y-74239800D01*
X125349085Y-74172761D01*
X125401889Y-74127006D01*
X125453400Y-74115800D01*
X131791400Y-74115800D01*
X131791400Y-67051600D01*
X131811085Y-66984561D01*
X131863889Y-66938806D01*
X131915400Y-66927600D01*
X141585300Y-66927600D01*
X141652339Y-66947285D01*
G37*
G04 #@! TD.AperFunction*
G04 #@! TA.AperFunction,Conductor*
G36*
X171893650Y-73368685D02*
G01*
X171939405Y-73421489D01*
X171948800Y-73464675D01*
X171948800Y-79577984D01*
X170574200Y-79577984D01*
X170507161Y-79558299D01*
X170461406Y-79505495D01*
X170450200Y-79453984D01*
X170450200Y-74898400D01*
X170450200Y-73355200D01*
X171847726Y-73355200D01*
X171893650Y-73368685D01*
G37*
G04 #@! TD.AperFunction*
G04 #@! TA.AperFunction,Conductor*
G36*
X178759039Y-80379085D02*
G01*
X178804794Y-80431889D01*
X178816000Y-80483400D01*
X178816000Y-82558000D01*
X158213600Y-82558000D01*
X158146561Y-82538315D01*
X158100806Y-82485511D01*
X158089600Y-82434000D01*
X158089600Y-80415823D01*
X158094661Y-80398587D01*
X158094661Y-80359400D01*
X168621400Y-80359400D01*
X178692000Y-80359400D01*
X178759039Y-80379085D01*
G37*
G04 #@! TD.AperFunction*
G04 #@! TA.AperFunction,Conductor*
G36*
X178435000Y-84533000D02*
G01*
X176561559Y-84533000D01*
X176541206Y-84509511D01*
X176530000Y-84458000D01*
X176530000Y-82558000D01*
X176530000Y-80365600D01*
X178435000Y-80365600D01*
X178435000Y-84533000D01*
G37*
G04 #@! TD.AperFunction*
G04 #@! TA.AperFunction,Conductor*
G36*
X152892639Y-71057285D02*
G01*
X152938394Y-71110089D01*
X152949600Y-71161600D01*
X152949600Y-73021800D01*
X152929915Y-73088839D01*
X152877111Y-73134594D01*
X152825600Y-73145800D01*
X150435000Y-73145800D01*
X150435000Y-79168600D01*
X150415315Y-79235639D01*
X150362511Y-79281394D01*
X150311000Y-79292600D01*
X146554000Y-79292600D01*
X146554000Y-84299400D01*
X146534315Y-84366439D01*
X146481511Y-84412194D01*
X146430000Y-84423400D01*
X143980400Y-84423400D01*
X143913361Y-84403715D01*
X143867606Y-84350911D01*
X143856400Y-84299400D01*
X143856400Y-77460800D01*
X143876085Y-77393761D01*
X143928889Y-77348006D01*
X143980400Y-77336800D01*
X148555400Y-77336800D01*
X148555400Y-71161600D01*
X148575085Y-71094561D01*
X148627889Y-71048806D01*
X148679400Y-71037600D01*
X152825600Y-71037600D01*
X152892639Y-71057285D01*
G37*
G04 #@! TD.AperFunction*
G04 #@! TA.AperFunction,Conductor*
G36*
X134274439Y-77260085D02*
G01*
X134320194Y-77312889D01*
X134331400Y-77364400D01*
X134331400Y-84350200D01*
X134311715Y-84417239D01*
X134258911Y-84462994D01*
X134207400Y-84474200D01*
X131966200Y-84474200D01*
X131899161Y-84454515D01*
X131853406Y-84401711D01*
X131842200Y-84350200D01*
X131842200Y-79256400D01*
X131842200Y-77240400D01*
X133174947Y-77240400D01*
X134207400Y-77240400D01*
X134274439Y-77260085D01*
G37*
G04 #@! TD.AperFunction*
G04 #@! TA.AperFunction,Conductor*
G36*
X168564439Y-79037685D02*
G01*
X168610194Y-79090489D01*
X168621400Y-79142000D01*
X168621400Y-82550806D01*
X167046600Y-82550806D01*
X167046600Y-79142000D01*
X167066285Y-79074961D01*
X167119089Y-79029206D01*
X167170600Y-79018000D01*
X168497400Y-79018000D01*
X168564439Y-79037685D01*
G37*
G04 #@! TD.AperFunction*
G04 #@! TA.AperFunction,Conductor*
G36*
X160008512Y-80155285D02*
G01*
X160054267Y-80208089D01*
X160065473Y-80259600D01*
X160065473Y-82555000D01*
X158203383Y-82555000D01*
X158146561Y-82538315D01*
X158100806Y-82485511D01*
X158094661Y-82457264D01*
X158094661Y-80259600D01*
X158114346Y-80192561D01*
X158167150Y-80146806D01*
X158218661Y-80135600D01*
X159941473Y-80135600D01*
X160008512Y-80155285D01*
G37*
G04 #@! TD.AperFunction*
M02*
