M48
; DRILL file {KiCad 8.0.3} date 2025-08-12T15:57:55+0700
; FORMAT={-:-/ absolute / inch / decimal}
; #@! TF.CreationDate,2025-08-12T15:57:55+07:00
; #@! TF.GenerationSoftware,Kicad,Pcbnew,8.0.3
; #@! TF.FileFunction,Plated,1,2,PTH
FMAT,2
INCH
; #@! TA.AperFunction,Plated,PTH,ViaDrill
T1C0.0157
; #@! TA.AperFunction,Plated,PTH,ComponentDrill
T2C0.0315
; #@! TA.AperFunction,Plated,PTH,ComponentDrill
T3C0.0354
; #@! TA.AperFunction,Plated,PTH,ComponentDrill
T4C0.0551
%
G90
G05
T1
X6.5135Y-3.3489
X6.5135Y-3.3828
X6.5506Y-3.3489
X6.5506Y-3.3828
X6.9261Y-2.854
X6.9261Y-2.8878
X6.9627Y-2.854
X6.9627Y-2.8878
T2
X4.5486Y-3.0103
X4.5486Y-3.3056
X5.2396Y-2.9318
X5.2396Y-3.0696
X6.6076Y-2.9175
X6.6076Y-3.1144
T3
X5.9857Y-2.8404
X5.9857Y-3.1627
X6.2625Y-2.8404
X6.2625Y-3.1627
T4
X4.3626Y-2.6958
X4.3626Y-3.305
X7.34Y-2.79
X7.34Y-3.055
X7.34Y-3.2828
M30
